NotoSansTelugu-Bold.ufo
<glyph name="exclam.telu" format="2">
  <advance width="363"/>
  <unicode hex="0021"/>
  <outline>
    <contour>
      <point x="262" y="237" type="line"/>
      <point x="287" y="656" type="line"/>
      <point x="76" y="656" type="line"/>
      <point x="101" y="237" type="line"/>
    </contour>
    <contour>
      <point x="78" y="81" type="curve" smooth="yes"/>
      <point x="78" y="15"/>
      <point x="125" y="-12"/>
      <point x="181" y="-12" type="curve" smooth="yes"/>
      <point x="236" y="-12"/>
      <point x="282" y="15"/>
      <point x="282" y="81" type="curve" smooth="yes"/>
      <point x="282" y="150"/>
      <point x="236" y="175"/>
      <point x="181" y="175" type="curve" smooth="yes"/>
      <point x="125" y="175"/>
      <point x="78" y="150"/>
    </contour>
  </outline>
</glyph>
<glyph name="quotedbl.telu" format="2">
  <advance width="550"/>
  <unicode hex="0022"/>
  <outline>
    <contour>
      <point x="92" y="516" type="line"/>
      <point x="226" y="516" type="line"/>
      <point x="246" y="773" type="line"/>
      <point x="72" y="773" type="line"/>
    </contour>
    <contour>
      <point x="324" y="516" type="line"/>
      <point x="458" y="516" type="line"/>
      <point x="478" y="773" type="line"/>
      <point x="304" y="773" type="line"/>
    </contour>
  </outline>
</glyph>
<glyph name="numbersign.telu" format="2">
  <advance width="695"/>
  <unicode hex="0023"/>
  <outline>
    <contour>
      <point x="107" y="0" type="line"/>
      <point x="237" y="0" type="line"/>
      <point x="270" y="165" type="line"/>
      <point x="357" y="165" type="line"/>
      <point x="323" y="0" type="line"/>
      <point x="453" y="0" type="line"/>
      <point x="486" y="165" type="line"/>
      <point x="632" y="165" type="line"/>
      <point x="632" y="285" type="line"/>
      <point x="510" y="285" type="line"/>
      <point x="525" y="366" type="line"/>
      <point x="663" y="366" type="line"/>
      <point x="663" y="489" type="line"/>
      <point x="549" y="489" type="line"/>
      <point x="582" y="649" type="line"/>
      <point x="451" y="649" type="line"/>
      <point x="419" y="489" type="line"/>
      <point x="333" y="489" type="line"/>
      <point x="366" y="649" type="line"/>
      <point x="235" y="649" type="line"/>
      <point x="203" y="489" type="line"/>
      <point x="65" y="489" type="line"/>
      <point x="65" y="366" type="line"/>
      <point x="179" y="366" type="line"/>
      <point x="164" y="285" type="line"/>
      <point x="32" y="285" type="line"/>
      <point x="32" y="165" type="line"/>
      <point x="141" y="165" type="line"/>
    </contour>
    <contour>
      <point x="294" y="285" type="line"/>
      <point x="309" y="366" type="line"/>
      <point x="395" y="366" type="line"/>
      <point x="380" y="285" type="line"/>
    </contour>
  </outline>
</glyph>
<glyph name="percent.telu" format="2">
  <advance width="984"/>
  <unicode hex="0025"/>
  <outline>
    <contour>
      <point x="221" y="0" type="line"/>
      <point x="366" y="0" type="line"/>
      <point x="762" y="649" type="line"/>
      <point x="617" y="649" type="line"/>
    </contour>
    <contour>
      <point x="219" y="276" type="curve" smooth="yes"/>
      <point x="340" y="276"/>
      <point x="405" y="343"/>
      <point x="405" y="468" type="curve" smooth="yes"/>
      <point x="405" y="596"/>
      <point x="335" y="661"/>
      <point x="221" y="661" type="curve" smooth="yes"/>
      <point x="102" y="661"/>
      <point x="37" y="595"/>
      <point x="37" y="469" type="curve" smooth="yes"/>
      <point x="37" y="342"/>
      <point x="110" y="276"/>
    </contour>
    <contour>
      <point x="221" y="394" type="curve" smooth="yes"/>
      <point x="193" y="394"/>
      <point x="184" y="421"/>
      <point x="184" y="468" type="curve" smooth="yes"/>
      <point x="184" y="519"/>
      <point x="193" y="543"/>
      <point x="221" y="543" type="curve" smooth="yes"/>
      <point x="249" y="543"/>
      <point x="258" y="519"/>
      <point x="258" y="468" type="curve" smooth="yes"/>
      <point x="258" y="418"/>
      <point x="249" y="394"/>
    </contour>
    <contour>
      <point x="761" y="-12" type="curve" smooth="yes"/>
      <point x="882" y="-12"/>
      <point x="947" y="55"/>
      <point x="947" y="180" type="curve" smooth="yes"/>
      <point x="947" y="308"/>
      <point x="877" y="373"/>
      <point x="763" y="373" type="curve" smooth="yes"/>
      <point x="644" y="373"/>
      <point x="579" y="307"/>
      <point x="579" y="181" type="curve" smooth="yes"/>
      <point x="579" y="54"/>
      <point x="652" y="-12"/>
    </contour>
    <contour>
      <point x="763" y="106" type="curve" smooth="yes"/>
      <point x="735" y="106"/>
      <point x="726" y="133"/>
      <point x="726" y="180" type="curve" smooth="yes"/>
      <point x="726" y="231"/>
      <point x="735" y="255"/>
      <point x="763" y="255" type="curve" smooth="yes"/>
      <point x="791" y="255"/>
      <point x="800" y="231"/>
      <point x="800" y="180" type="curve" smooth="yes"/>
      <point x="800" y="130"/>
      <point x="791" y="106"/>
    </contour>
  </outline>
</glyph>
<glyph name="quotesingle.telu" format="2">
  <advance width="318"/>
  <unicode hex="0027"/>
  <outline>
    <contour>
      <point x="92" y="516" type="line"/>
      <point x="226" y="516" type="line"/>
      <point x="246" y="773" type="line"/>
      <point x="72" y="773" type="line"/>
    </contour>
  </outline>
</glyph>
<glyph name="parenleft.telu" format="2">
  <advance width="418"/>
  <unicode hex="0028"/>
  <outline>
    <contour>
      <point x="45" y="209" type="curve" smooth="yes"/>
      <point x="45" y="-7"/>
      <point x="111" y="-211"/>
      <point x="233" y="-361" type="curve"/>
      <point x="391" y="-361" type="line"/>
      <point x="283" y="-211"/>
      <point x="213" y="-33"/>
      <point x="213" y="208" type="curve" smooth="yes"/>
      <point x="213" y="458"/>
      <point x="293" y="646"/>
      <point x="390" y="773" type="curve"/>
      <point x="233" y="773" type="line"/>
      <point x="124" y="650"/>
      <point x="45" y="444"/>
    </contour>
  </outline>
</glyph>
<glyph name="parenright.telu" format="2">
  <advance width="418"/>
  <unicode hex="0029"/>
  <outline>
    <contour>
      <point x="373" y="203" type="curve" smooth="yes"/>
      <point x="373" y="419"/>
      <point x="307" y="623"/>
      <point x="185" y="773" type="curve"/>
      <point x="27" y="773" type="line"/>
      <point x="135" y="623"/>
      <point x="205" y="445"/>
      <point x="205" y="204" type="curve" smooth="yes"/>
      <point x="205" y="-46"/>
      <point x="125" y="-234"/>
      <point x="28" y="-361" type="curve"/>
      <point x="185" y="-361" type="line"/>
      <point x="294" y="-238"/>
      <point x="373" y="-32"/>
    </contour>
  </outline>
</glyph>
<glyph name="asterisk.telu" format="2">
  <advance width="571"/>
  <unicode hex="002A"/>
  <outline>
    <contour>
      <point x="368" y="773" type="line"/>
      <point x="220" y="773" type="line"/>
      <point x="239" y="601" type="line"/>
      <point x="69" y="650" type="line"/>
      <point x="47" y="508" type="line"/>
      <point x="200" y="496" type="line"/>
      <point x="99" y="360" type="line"/>
      <point x="232" y="294" type="line"/>
      <point x="292" y="431" type="line"/>
      <point x="362" y="293" type="line"/>
      <point x="489" y="360" type="line"/>
      <point x="388" y="496" type="line"/>
      <point x="541" y="506" type="line"/>
      <point x="523" y="650" type="line"/>
      <point x="349" y="601" type="line"/>
    </contour>
  </outline>
</glyph>
<glyph name="plus.telu" format="2">
  <advance width="572"/>
  <unicode hex="002B"/>
  <outline>
    <contour>
      <point x="220" y="260" type="line"/>
      <point x="220" y="81" type="line"/>
      <point x="351" y="81" type="line"/>
      <point x="351" y="260" type="line"/>
      <point x="533" y="260" type="line"/>
      <point x="533" y="391" type="line"/>
      <point x="351" y="391" type="line"/>
      <point x="351" y="570" type="line"/>
      <point x="220" y="570" type="line"/>
      <point x="220" y="391" type="line"/>
      <point x="38" y="391" type="line"/>
      <point x="38" y="260" type="line"/>
    </contour>
  </outline>
</glyph>
<glyph name="comma.telu" format="2">
  <advance width="320"/>
  <unicode hex="002C"/>
  <outline>
    <contour>
      <point x="251" y="142" type="line"/>
      <point x="84" y="142" type="line"/>
      <point x="75" y="60"/>
      <point x="56" y="-42"/>
      <point x="34" y="-130" type="curve"/>
      <point x="170" y="-130" type="line"/>
      <point x="203" y="-56"/>
      <point x="241" y="57"/>
      <point x="258" y="131" type="curve"/>
    </contour>
  </outline>
</glyph>
<glyph name="hyphen.telu" format="2">
  <advance width="348"/>
  <unicode hex="002D"/>
  <outline>
    <contour>
      <point x="36" y="190" type="line"/>
      <point x="312" y="190" type="line"/>
      <point x="312" y="339" type="line"/>
      <point x="36" y="339" type="line"/>
    </contour>
  </outline>
</glyph>
<glyph name="period.telu" format="2">
  <advance width="310"/>
  <unicode hex="002E"/>
  <outline>
    <contour>
      <point x="53" y="81" type="curve" smooth="yes"/>
      <point x="53" y="15"/>
      <point x="100" y="-12"/>
      <point x="157" y="-12" type="curve" smooth="yes"/>
      <point x="211" y="-12"/>
      <point x="257" y="15"/>
      <point x="257" y="81" type="curve" smooth="yes"/>
      <point x="257" y="150"/>
      <point x="211" y="175"/>
      <point x="157" y="175" type="curve" smooth="yes"/>
      <point x="100" y="175"/>
      <point x="53" y="150"/>
    </contour>
  </outline>
</glyph>
<glyph name="slash.telu" format="2">
  <advance width="471"/>
  <unicode hex="002F"/>
  <outline>
    <contour>
      <point x="444" y="773" type="line"/>
      <point x="293" y="773" type="line"/>
      <point x="27" y="-361" type="line"/>
      <point x="178" y="-361" type="line"/>
    </contour>
  </outline>
</glyph>
<glyph name="zero.telu" format="2">
  <advance width="572"/>
  <unicode hex="0030"/>
  <outline>
    <contour>
      <point x="537" y="326" type="curve" smooth="yes"/>
      <point x="537" y="538"/>
      <point x="462" y="661"/>
      <point x="287" y="661" type="curve" smooth="yes"/>
      <point x="111" y="661"/>
      <point x="35" y="533"/>
      <point x="35" y="323" type="curve" smooth="yes"/>
      <point x="35" y="111"/>
      <point x="111" y="-12"/>
      <point x="285" y="-12" type="curve" smooth="yes"/>
      <point x="461" y="-12"/>
      <point x="537" y="116"/>
    </contour>
    <contour>
      <point x="221" y="324" type="curve" smooth="yes"/>
      <point x="221" y="453"/>
      <point x="237" y="516"/>
      <point x="286" y="516" type="curve" smooth="yes"/>
      <point x="335" y="516"/>
      <point x="351" y="454"/>
      <point x="351" y="325" type="curve" smooth="yes"/>
      <point x="351" y="196"/>
      <point x="335" y="133"/>
      <point x="286" y="133" type="curve" smooth="yes"/>
      <point x="237" y="133"/>
      <point x="221" y="196"/>
    </contour>
  </outline>
</glyph>
<glyph name="one.telu" format="2">
  <advance width="572"/>
  <unicode hex="0031"/>
  <outline>
    <contour>
      <point x="452" y="0" type="line"/>
      <point x="452" y="649" type="line"/>
      <point x="278" y="649" type="line"/>
      <point x="37" y="452" type="line"/>
      <point x="133" y="330" type="line"/>
      <point x="207" y="392" type="line"/>
      <point x="230" y="412"/>
      <point x="248" y="432"/>
      <point x="266" y="455" type="curve"/>
      <point x="263" y="408"/>
      <point x="263" y="342"/>
      <point x="263" y="290" type="curve" smooth="yes"/>
      <point x="263" y="0" type="line"/>
    </contour>
  </outline>
</glyph>
<glyph name="two.telu" format="2">
  <advance width="572"/>
  <unicode hex="0032"/>
  <outline>
    <contour>
      <point x="535" y="0" type="line"/>
      <point x="535" y="149" type="line"/>
      <point x="277" y="149" type="line"/>
      <point x="277" y="154" type="line"/>
      <point x="337" y="205" type="line" smooth="yes"/>
      <point x="460" y="310"/>
      <point x="523" y="381"/>
      <point x="523" y="483" type="curve" smooth="yes"/>
      <point x="523" y="584"/>
      <point x="439" y="661"/>
      <point x="290" y="661" type="curve" smooth="yes"/>
      <point x="174" y="661"/>
      <point x="89" y="607"/>
      <point x="18" y="550" type="curve"/>
      <point x="116" y="434" type="line"/>
      <point x="165" y="479"/>
      <point x="214" y="510"/>
      <point x="266" y="510" type="curve" smooth="yes"/>
      <point x="310" y="510"/>
      <point x="333" y="488"/>
      <point x="333" y="453" type="curve" smooth="yes"/>
      <point x="333" y="410"/>
      <point x="309" y="382"/>
      <point x="223" y="304" type="curve" smooth="yes"/>
      <point x="27" y="127" type="line"/>
      <point x="27" y="0" type="line"/>
    </contour>
  </outline>
</glyph>
<glyph name="three.telu" format="2">
  <advance width="572"/>
  <unicode hex="0033"/>
  <outline>
    <contour>
      <point x="514" y="495" type="curve" smooth="yes"/>
      <point x="514" y="599"/>
      <point x="420" y="661"/>
      <point x="272" y="661" type="curve" smooth="yes"/>
      <point x="170" y="661"/>
      <point x="97" y="631"/>
      <point x="29" y="589" type="curve"/>
      <point x="102" y="472" type="line"/>
      <point x="144" y="498"/>
      <point x="193" y="519"/>
      <point x="249" y="519" type="curve" smooth="yes"/>
      <point x="297" y="519"/>
      <point x="329" y="499"/>
      <point x="329" y="467" type="curve" smooth="yes"/>
      <point x="329" y="423"/>
      <point x="295" y="398"/>
      <point x="204" y="398" type="curve" smooth="yes"/>
      <point x="144" y="398" type="line"/>
      <point x="144" y="267" type="line"/>
      <point x="207" y="267" type="line" smooth="yes"/>
      <point x="305" y="267"/>
      <point x="337" y="241"/>
      <point x="337" y="197" type="curve" smooth="yes"/>
      <point x="337" y="153"/>
      <point x="300" y="130"/>
      <point x="218" y="130" type="curve" smooth="yes"/>
      <point x="154" y="130"/>
      <point x="89" y="144"/>
      <point x="33" y="173" type="curve"/>
      <point x="33" y="25" type="line"/>
      <point x="92" y="2"/>
      <point x="153" y="-12"/>
      <point x="238" y="-12" type="curve" smooth="yes"/>
      <point x="438" y="-12"/>
      <point x="529" y="78"/>
      <point x="529" y="186" type="curve" smooth="yes"/>
      <point x="529" y="277"/>
      <point x="464" y="325"/>
      <point x="381" y="340" type="curve"/>
      <point x="381" y="343" type="line"/>
      <point x="456" y="368"/>
      <point x="514" y="411"/>
    </contour>
  </outline>
</glyph>
<glyph name="four.telu" format="2">
  <advance width="572"/>
  <unicode hex="0034"/>
  <outline>
    <contour>
      <point x="559" y="121" type="line"/>
      <point x="559" y="254" type="line"/>
      <point x="482" y="254" type="line"/>
      <point x="482" y="649" type="line"/>
      <point x="304" y="649" type="line"/>
      <point x="16" y="249" type="line"/>
      <point x="16" y="121" type="line"/>
      <point x="299" y="121" type="line"/>
      <point x="299" y="0" type="line"/>
      <point x="482" y="0" type="line"/>
      <point x="482" y="121" type="line"/>
    </contour>
    <contour>
      <point x="299" y="254" type="line"/>
      <point x="179" y="254" type="line"/>
      <point x="246" y="351" type="line" smooth="yes"/>
      <point x="266" y="380"/>
      <point x="288" y="412"/>
      <point x="300" y="437" type="curve"/>
      <point x="304" y="437" type="line"/>
      <point x="300" y="401"/>
      <point x="299" y="372"/>
      <point x="299" y="333" type="curve" smooth="yes"/>
    </contour>
  </outline>
</glyph>
<glyph name="five.telu" format="2">
  <advance width="572"/>
  <unicode hex="0035"/>
  <outline>
    <contour>
      <point x="321" y="426" type="curve" smooth="yes"/>
      <point x="282" y="426"/>
      <point x="265" y="423"/>
      <point x="238" y="417" type="curve"/>
      <point x="247" y="500" type="line"/>
      <point x="490" y="500" type="line"/>
      <point x="490" y="649" type="line"/>
      <point x="89" y="649" type="line"/>
      <point x="60" y="305" type="line"/>
      <point x="129" y="273" type="line"/>
      <point x="161" y="284"/>
      <point x="191" y="291"/>
      <point x="230" y="291" type="curve" smooth="yes"/>
      <point x="300" y="291"/>
      <point x="342" y="267"/>
      <point x="342" y="211" type="curve" smooth="yes"/>
      <point x="342" y="156"/>
      <point x="305" y="130"/>
      <point x="226" y="130" type="curve" smooth="yes"/>
      <point x="162" y="130"/>
      <point x="101" y="147"/>
      <point x="47" y="173" type="curve"/>
      <point x="47" y="24" type="line"/>
      <point x="101" y="0"/>
      <point x="163" y="-12"/>
      <point x="246" y="-12" type="curve" smooth="yes"/>
      <point x="434" y="-12"/>
      <point x="532" y="71"/>
      <point x="532" y="218" type="curve" smooth="yes"/>
      <point x="532" y="355"/>
      <point x="434" y="426"/>
    </contour>
  </outline>
</glyph>
<glyph name="six.telu" format="2">
  <advance width="572"/>
  <unicode hex="0036"/>
  <outline>
    <contour>
      <point x="29" y="289" type="curve" smooth="yes"/>
      <point x="29" y="81"/>
      <point x="143" y="-12"/>
      <point x="297" y="-12" type="curve" smooth="yes"/>
      <point x="449" y="-12"/>
      <point x="545" y="76"/>
      <point x="545" y="224" type="curve" smooth="yes"/>
      <point x="545" y="358"/>
      <point x="473" y="438"/>
      <point x="350" y="438" type="curve" smooth="yes"/>
      <point x="281" y="438"/>
      <point x="237" y="407"/>
      <point x="208" y="362" type="curve"/>
      <point x="204" y="362" type="line"/>
      <point x="208" y="459"/>
      <point x="261" y="519"/>
      <point x="395" y="519" type="curve" smooth="yes"/>
      <point x="432" y="519"/>
      <point x="465" y="516"/>
      <point x="498" y="510" type="curve"/>
      <point x="498" y="653" type="line"/>
      <point x="463" y="659"/>
      <point x="432" y="661"/>
      <point x="395" y="661" type="curve" smooth="yes"/>
      <point x="96" y="661"/>
      <point x="29" y="467"/>
    </contour>
    <contour>
      <point x="291" y="130" type="curve" smooth="yes"/>
      <point x="245" y="130"/>
      <point x="218" y="169"/>
      <point x="218" y="230" type="curve" smooth="yes"/>
      <point x="218" y="273"/>
      <point x="247" y="300"/>
      <point x="293" y="300" type="curve" smooth="yes"/>
      <point x="340" y="300"/>
      <point x="361" y="275"/>
      <point x="361" y="218" type="curve" smooth="yes"/>
      <point x="361" y="155"/>
      <point x="335" y="130"/>
    </contour>
  </outline>
</glyph>
<glyph name="seven.telu" format="2">
  <advance width="572"/>
  <unicode hex="0037"/>
  <outline>
    <contour>
      <point x="89" y="0" type="line"/>
      <point x="291" y="0" type="line"/>
      <point x="541" y="537" type="line"/>
      <point x="541" y="649" type="line"/>
      <point x="27" y="649" type="line"/>
      <point x="27" y="500" type="line"/>
      <point x="340" y="500" type="line"/>
    </contour>
  </outline>
</glyph>
<glyph name="eight.telu" format="2">
  <advance width="572"/>
  <unicode hex="0038"/>
  <outline>
    <contour>
      <point x="286" y="661" type="curve" smooth="yes"/>
      <point x="146" y="661"/>
      <point x="47" y="609"/>
      <point x="47" y="503" type="curve" smooth="yes"/>
      <point x="47" y="431"/>
      <point x="98" y="379"/>
      <point x="159" y="342" type="curve"/>
      <point x="80" y="309"/>
      <point x="28" y="254"/>
      <point x="28" y="172" type="curve" smooth="yes"/>
      <point x="28" y="59"/>
      <point x="104" y="-12"/>
      <point x="287" y="-12" type="curve" smooth="yes"/>
      <point x="465" y="-12"/>
      <point x="544" y="63"/>
      <point x="544" y="175" type="curve" smooth="yes"/>
      <point x="544" y="258"/>
      <point x="475" y="306"/>
      <point x="400" y="345" type="curve"/>
      <point x="467" y="378"/>
      <point x="525" y="422"/>
      <point x="525" y="503" type="curve" smooth="yes"/>
      <point x="525" y="608"/>
      <point x="427" y="661"/>
    </contour>
    <contour>
      <point x="212" y="183" type="curve" smooth="yes"/>
      <point x="212" y="218"/>
      <point x="237" y="246"/>
      <point x="283" y="269" type="curve"/>
      <point x="300" y="260" type="line"/>
      <point x="344" y="237"/>
      <point x="360" y="214"/>
      <point x="360" y="178" type="curve" smooth="yes"/>
      <point x="360" y="148"/>
      <point x="339" y="121"/>
      <point x="284" y="121" type="curve" smooth="yes"/>
      <point x="234" y="121"/>
      <point x="212" y="147"/>
    </contour>
    <contour>
      <point x="286" y="528" type="curve" smooth="yes"/>
      <point x="319" y="528"/>
      <point x="342" y="512"/>
      <point x="342" y="483" type="curve" smooth="yes"/>
      <point x="342" y="452"/>
      <point x="317" y="432"/>
      <point x="288" y="417" type="curve"/>
      <point x="251" y="435"/>
      <point x="231" y="452"/>
      <point x="231" y="482" type="curve" smooth="yes"/>
      <point x="231" y="510"/>
      <point x="250" y="528"/>
    </contour>
  </outline>
</glyph>
<glyph name="nine.telu" format="2">
  <advance width="572"/>
  <unicode hex="0039"/>
  <outline>
    <contour>
      <point x="543" y="355" type="curve" smooth="yes"/>
      <point x="543" y="571"/>
      <point x="429" y="661"/>
      <point x="275" y="661" type="curve" smooth="yes"/>
      <point x="125" y="661"/>
      <point x="27" y="574"/>
      <point x="27" y="426" type="curve" smooth="yes"/>
      <point x="27" y="292"/>
      <point x="100" y="212"/>
      <point x="221" y="212" type="curve" smooth="yes"/>
      <point x="296" y="212"/>
      <point x="344" y="244"/>
      <point x="366" y="285" type="curve"/>
      <point x="371" y="285" type="line"/>
      <point x="358" y="189"/>
      <point x="316" y="130"/>
      <point x="177" y="130" type="curve" smooth="yes"/>
      <point x="140" y="130"/>
      <point x="105" y="133"/>
      <point x="72" y="139" type="curve"/>
      <point x="72" y="-4" type="line"/>
      <point x="107" y="-10"/>
      <point x="140" y="-12"/>
      <point x="177" y="-12" type="curve" smooth="yes"/>
      <point x="485" y="-12"/>
      <point x="543" y="188"/>
    </contour>
    <contour>
      <point x="281" y="519" type="curve" smooth="yes"/>
      <point x="333" y="519"/>
      <point x="354" y="476"/>
      <point x="354" y="422" type="curve" smooth="yes"/>
      <point x="354" y="382"/>
      <point x="330" y="350"/>
      <point x="282" y="350" type="curve" smooth="yes"/>
      <point x="230" y="350"/>
      <point x="211" y="379"/>
      <point x="211" y="435" type="curve" smooth="yes"/>
      <point x="211" y="492"/>
      <point x="237" y="519"/>
    </contour>
  </outline>
</glyph>
<glyph name="colon.telu" format="2">
  <advance width="310"/>
  <unicode hex="003A"/>
  <outline>
    <contour>
      <point x="53" y="81" type="curve" smooth="yes"/>
      <point x="53" y="15"/>
      <point x="100" y="-12"/>
      <point x="157" y="-12" type="curve" smooth="yes"/>
      <point x="211" y="-12"/>
      <point x="257" y="15"/>
      <point x="257" y="81" type="curve" smooth="yes"/>
      <point x="257" y="150"/>
      <point x="211" y="175"/>
      <point x="157" y="175" type="curve" smooth="yes"/>
      <point x="100" y="175"/>
      <point x="53" y="150"/>
    </contour>
    <contour>
      <point x="53" y="362" type="curve" smooth="yes"/>
      <point x="53" y="295"/>
      <point x="100" y="268"/>
      <point x="157" y="268" type="curve" smooth="yes"/>
      <point x="211" y="268"/>
      <point x="257" y="295"/>
      <point x="257" y="362" type="curve" smooth="yes"/>
      <point x="257" y="430"/>
      <point x="211" y="455"/>
      <point x="157" y="455" type="curve" smooth="yes"/>
      <point x="100" y="455"/>
      <point x="53" y="430"/>
    </contour>
  </outline>
</glyph>
<glyph name="semicolon.telu" format="2">
  <advance width="320"/>
  <unicode hex="003B"/>
  <outline>
    <contour>
      <point x="251" y="142" type="line"/>
      <point x="84" y="142" type="line"/>
      <point x="75" y="60"/>
      <point x="56" y="-42"/>
      <point x="34" y="-130" type="curve"/>
      <point x="170" y="-130" type="line"/>
      <point x="203" y="-56"/>
      <point x="241" y="57"/>
      <point x="258" y="131" type="curve"/>
    </contour>
    <contour>
      <point x="58" y="362" type="curve" smooth="yes"/>
      <point x="58" y="295"/>
      <point x="105" y="268"/>
      <point x="162" y="268" type="curve" smooth="yes"/>
      <point x="216" y="268"/>
      <point x="262" y="295"/>
      <point x="262" y="362" type="curve" smooth="yes"/>
      <point x="262" y="430"/>
      <point x="216" y="455"/>
      <point x="162" y="455" type="curve" smooth="yes"/>
      <point x="105" y="455"/>
      <point x="58" y="430"/>
    </contour>
  </outline>
</glyph>
<glyph name="less.telu" format="2">
  <advance width="572"/>
  <unicode hex="003C"/>
  <outline>
    <contour>
      <point x="532" y="60" type="line"/>
      <point x="532" y="204" type="line"/>
      <point x="229" y="327" type="line"/>
      <point x="532" y="465" type="line"/>
      <point x="532" y="610" type="line"/>
      <point x="38" y="363" type="line"/>
      <point x="38" y="279" type="line"/>
    </contour>
  </outline>
</glyph>
<glyph name="equal.telu" format="2">
  <advance width="572"/>
  <unicode hex="003D"/>
  <outline>
    <contour>
      <point x="38" y="371" type="line"/>
      <point x="533" y="371" type="line"/>
      <point x="533" y="502" type="line"/>
      <point x="38" y="502" type="line"/>
    </contour>
    <contour>
      <point x="38" y="149" type="line"/>
      <point x="533" y="149" type="line"/>
      <point x="533" y="280" type="line"/>
      <point x="38" y="280" type="line"/>
    </contour>
  </outline>
</glyph>
<glyph name="greater.telu" format="2">
  <advance width="572"/>
  <unicode hex="003E"/>
  <outline>
    <contour>
      <point x="40" y="204" type="line"/>
      <point x="40" y="60" type="line"/>
      <point x="534" y="279" type="line"/>
      <point x="534" y="363" type="line"/>
      <point x="40" y="610" type="line"/>
      <point x="40" y="465" type="line"/>
      <point x="343" y="327" type="line"/>
    </contour>
  </outline>
</glyph>
<glyph name="question.telu" format="2">
  <advance width="502"/>
  <unicode hex="003F"/>
  <outline>
    <contour>
      <point x="251" y="661" type="curve" smooth="yes"/>
      <point x="169" y="661"/>
      <point x="98" y="642"/>
      <point x="37" y="613" type="curve"/>
      <point x="99" y="485" type="line"/>
      <point x="143" y="506"/>
      <point x="180" y="520"/>
      <point x="226" y="520" type="curve" smooth="yes"/>
      <point x="273" y="520"/>
      <point x="296" y="505"/>
      <point x="296" y="475" type="curve" smooth="yes"/>
      <point x="296" y="446"/>
      <point x="283" y="431"/>
      <point x="221" y="384" type="curve" smooth="yes"/>
      <point x="158" y="337"/>
      <point x="144" y="305"/>
      <point x="144" y="245" type="curve" smooth="yes"/>
      <point x="144" y="225" type="line"/>
      <point x="294" y="225" type="line"/>
      <point x="294" y="230" type="line" smooth="yes"/>
      <point x="294" y="260"/>
      <point x="313" y="278"/>
      <point x="362" y="314" type="curve" smooth="yes"/>
      <point x="443" y="374"/>
      <point x="473" y="416"/>
      <point x="473" y="491" type="curve" smooth="yes"/>
      <point x="473" y="589"/>
      <point x="406" y="661"/>
    </contour>
    <contour>
      <point x="226" y="-12" type="curve" smooth="yes"/>
      <point x="281" y="-12"/>
      <point x="327" y="15"/>
      <point x="327" y="81" type="curve" smooth="yes"/>
      <point x="327" y="150"/>
      <point x="281" y="175"/>
      <point x="226" y="175" type="curve" smooth="yes"/>
      <point x="169" y="175"/>
      <point x="123" y="150"/>
      <point x="123" y="81" type="curve" smooth="yes"/>
      <point x="123" y="15"/>
      <point x="169" y="-12"/>
    </contour>
  </outline>
</glyph>
<glyph name="bracketleft.telu" format="2">
  <advance width="373"/>
  <unicode hex="005B"/>
  <outline>
    <contour>
      <point x="333" y="-361" type="line"/>
      <point x="333" y="-237" type="line"/>
      <point x="227" y="-237" type="line"/>
      <point x="227" y="649" type="line"/>
      <point x="333" y="649" type="line"/>
      <point x="333" y="773" type="line"/>
      <point x="72" y="773" type="line"/>
      <point x="72" y="-361" type="line"/>
    </contour>
  </outline>
</glyph>
<glyph name="backslash.telu" format="2">
  <advance width="471"/>
  <unicode hex="005C"/>
  <outline>
    <contour>
      <point x="178" y="773" type="line"/>
      <point x="27" y="773" type="line"/>
      <point x="293" y="-361" type="line"/>
      <point x="444" y="-361" type="line"/>
    </contour>
  </outline>
</glyph>
<glyph name="bracketright.telu" format="2">
  <advance width="373"/>
  <unicode hex="005D"/>
  <outline>
    <contour>
      <point x="40" y="-237" type="line"/>
      <point x="40" y="-361" type="line"/>
      <point x="301" y="-361" type="line"/>
      <point x="301" y="773" type="line"/>
      <point x="40" y="773" type="line"/>
      <point x="40" y="649" type="line"/>
      <point x="146" y="649" type="line"/>
      <point x="146" y="-237" type="line"/>
    </contour>
  </outline>
</glyph>
<glyph name="asciicircum.telu" format="2">
  <advance width="572"/>
  <unicode hex="005E"/>
  <outline>
    <contour>
      <point x="13" y="242" type="line"/>
      <point x="153" y="242" type="line"/>
      <point x="274" y="524" type="line"/>
      <point x="415" y="242" type="line"/>
      <point x="559" y="242" type="line"/>
      <point x="311" y="714" type="line"/>
      <point x="228" y="714" type="line"/>
    </contour>
  </outline>
</glyph>
<glyph name="braceleft.telu" format="2">
  <advance width="436"/>
  <unicode hex="007B"/>
  <outline>
    <contour>
      <point x="396" y="-361" type="curve"/>
      <point x="396" y="-225" type="line"/>
      <point x="325" y="-225"/>
      <point x="303" y="-211"/>
      <point x="303" y="-165" type="curve" smooth="yes"/>
      <point x="303" y="79" type="line" smooth="yes"/>
      <point x="303" y="155"/>
      <point x="262" y="191"/>
      <point x="186" y="203" type="curve"/>
      <point x="186" y="209" type="line"/>
      <point x="262" y="221"/>
      <point x="303" y="257"/>
      <point x="303" y="333" type="curve" smooth="yes"/>
      <point x="303" y="577" type="line" smooth="yes"/>
      <point x="303" y="623"/>
      <point x="325" y="637"/>
      <point x="396" y="637" type="curve"/>
      <point x="396" y="773" type="line"/>
      <point x="191" y="773"/>
      <point x="145" y="722"/>
      <point x="145" y="605" type="curve" smooth="yes"/>
      <point x="145" y="363" type="line" smooth="yes"/>
      <point x="145" y="303"/>
      <point x="113" y="284"/>
      <point x="25" y="280" type="curve"/>
      <point x="25" y="132" type="line"/>
      <point x="113" y="128"/>
      <point x="145" y="109"/>
      <point x="145" y="49" type="curve" smooth="yes"/>
      <point x="145" y="-193" type="line" smooth="yes"/>
      <point x="145" y="-310"/>
      <point x="191" y="-361"/>
    </contour>
  </outline>
</glyph>
<glyph name="braceright.telu" format="2">
  <advance width="436"/>
  <unicode hex="007D"/>
  <outline>
    <contour>
      <point x="40" y="773" type="curve"/>
      <point x="40" y="637" type="line"/>
      <point x="111" y="637"/>
      <point x="133" y="623"/>
      <point x="133" y="577" type="curve" smooth="yes"/>
      <point x="133" y="334" type="line" smooth="yes"/>
      <point x="133" y="258"/>
      <point x="174" y="222"/>
      <point x="250" y="210" type="curve"/>
      <point x="250" y="204" type="line"/>
      <point x="174" y="192"/>
      <point x="133" y="156"/>
      <point x="133" y="80" type="curve" smooth="yes"/>
      <point x="133" y="-165" type="line" smooth="yes"/>
      <point x="133" y="-211"/>
      <point x="111" y="-225"/>
      <point x="40" y="-225" type="curve"/>
      <point x="40" y="-361" type="line"/>
      <point x="245" y="-361"/>
      <point x="291" y="-310"/>
      <point x="291" y="-193" type="curve" smooth="yes"/>
      <point x="291" y="50" type="line" smooth="yes"/>
      <point x="291" y="110"/>
      <point x="323" y="129"/>
      <point x="411" y="133" type="curve"/>
      <point x="411" y="281" type="line"/>
      <point x="323" y="285"/>
      <point x="291" y="304"/>
      <point x="291" y="364" type="curve" smooth="yes"/>
      <point x="291" y="605" type="line" smooth="yes"/>
      <point x="291" y="722"/>
      <point x="245" y="773"/>
    </contour>
  </outline>
</glyph>
<glyph name="asciitilde.telu" format="2">
  <advance width="572"/>
  <unicode hex="007E"/>
  <outline>
    <contour>
      <point x="267" y="262" type="curve"/>
      <point x="332" y="236"/>
      <point x="365" y="231"/>
      <point x="404" y="231" type="curve" smooth="yes"/>
      <point x="457" y="231"/>
      <point x="499" y="249"/>
      <point x="533" y="284" type="curve"/>
      <point x="533" y="421" type="line"/>
      <point x="499" y="388"/>
      <point x="457" y="362"/>
      <point x="420" y="362" type="curve" smooth="yes"/>
      <point x="390" y="362"/>
      <point x="354" y="369"/>
      <point x="304" y="389" type="curve" smooth="yes"/>
      <point x="239" y="415"/>
      <point x="206" y="420"/>
      <point x="167" y="420" type="curve" smooth="yes"/>
      <point x="113" y="420"/>
      <point x="72" y="402"/>
      <point x="38" y="367" type="curve"/>
      <point x="38" y="230" type="line"/>
      <point x="72" y="263"/>
      <point x="113" y="289"/>
      <point x="152" y="289" type="curve" smooth="yes"/>
      <point x="183" y="289"/>
      <point x="218" y="283"/>
    </contour>
  </outline>
</glyph>
<glyph name="multiply.telu" format="2">
  <advance width="572"/>
  <unicode hex="00D7"/>
  <outline>
    <contour>
      <point x="52" y="183" type="line"/>
      <point x="143" y="92" type="line"/>
      <point x="285" y="235" type="line"/>
      <point x="428" y="92" type="line"/>
      <point x="519" y="183" type="line"/>
      <point x="375" y="325" type="line"/>
      <point x="519" y="467" type="line"/>
      <point x="428" y="558" type="line"/>
      <point x="285" y="415" type="line"/>
      <point x="143" y="558" type="line"/>
      <point x="52" y="467" type="line"/>
      <point x="195" y="325" type="line"/>
    </contour>
  </outline>
</glyph>
<glyph name="divide.telu" format="2">
  <advance width="572"/>
  <unicode hex="00F7"/>
  <outline>
    <contour>
      <point x="38" y="260" type="line"/>
      <point x="533" y="260" type="line"/>
      <point x="533" y="391" type="line"/>
      <point x="38" y="391" type="line"/>
    </contour>
    <contour>
      <point x="285" y="52" type="curve" smooth="yes"/>
      <point x="325" y="52"/>
      <point x="362" y="77"/>
      <point x="362" y="135" type="curve" smooth="yes"/>
      <point x="362" y="197"/>
      <point x="325" y="218"/>
      <point x="285" y="218" type="curve" smooth="yes"/>
      <point x="244" y="218"/>
      <point x="209" y="197"/>
      <point x="209" y="135" type="curve" smooth="yes"/>
      <point x="209" y="77"/>
      <point x="244" y="52"/>
    </contour>
    <contour>
      <point x="285" y="433" type="curve" smooth="yes"/>
      <point x="325" y="433"/>
      <point x="362" y="458"/>
      <point x="362" y="516" type="curve" smooth="yes"/>
      <point x="362" y="578"/>
      <point x="325" y="599"/>
      <point x="285" y="599" type="curve" smooth="yes"/>
      <point x="244" y="599"/>
      <point x="209" y="578"/>
      <point x="209" y="516" type="curve" smooth="yes"/>
      <point x="209" y="458"/>
      <point x="244" y="433"/>
    </contour>
  </outline>
</glyph>
<glyph name="uni0951" format="2">
  <unicode hex="0951"/>
  <outline>
    <contour>
      <point x="-227" y="599" type="line"/>
      <point x="-227" y="809" type="line"/>
      <point x="-345" y="809" type="line"/>
      <point x="-345" y="599" type="line"/>
    </contour>
  </outline>
</glyph>
<glyph name="uni0952" format="2">
  <unicode hex="0952"/>
  <outline>
    <contour>
      <point x="-537" y="-97" type="line"/>
      <point x="-537" y="-192" type="line"/>
      <point x="-36" y="-192" type="line"/>
      <point x="-36" y="-97" type="line"/>
    </contour>
  </outline>
</glyph>
<glyph name="dandatelu" format="2">
  <advance width="423"/>
  <unicode hex="0964"/>
  <outline>
    <contour>
      <point x="173" y="-139" type="line"/>
      <point x="341" y="-139" type="line"/>
      <point x="341" y="673" type="line"/>
      <point x="173" y="673" type="line"/>
    </contour>
  </outline>
</glyph>
<glyph name="dbldandatelu" format="2">
  <advance width="675"/>
  <unicode hex="0965"/>
  <outline>
    <contour>
      <point x="427" y="-139" type="line"/>
      <point x="595" y="-139" type="line"/>
      <point x="595" y="673" type="line"/>
      <point x="427" y="673" type="line"/>
    </contour>
    <contour>
      <point x="172" y="-139" type="line"/>
      <point x="340" y="-139" type="line"/>
      <point x="340" y="673" type="line"/>
      <point x="172" y="673" type="line"/>
    </contour>
  </outline>
</glyph>
<glyph name="uni0C00" format="2">
  <unicode hex="0C00"/>
  <outline>
    <contour>
      <point x="-286" y="587" type="curve" smooth="yes"/>
      <point x="-147" y="587"/>
      <point x="-63" y="642"/>
      <point x="-63" y="759" type="curve" smooth="yes"/>
      <point x="-63" y="779"/>
      <point x="-66" y="799"/>
      <point x="-70" y="815" type="curve"/>
      <point x="-197" y="796" type="line"/>
      <point x="-193" y="785"/>
      <point x="-192" y="773"/>
      <point x="-192" y="761" type="curve" smooth="yes"/>
      <point x="-192" y="710"/>
      <point x="-232" y="687"/>
      <point x="-286" y="687" type="curve" smooth="yes"/>
      <point x="-338" y="687"/>
      <point x="-380" y="703"/>
      <point x="-380" y="759" type="curve" smooth="yes"/>
      <point x="-380" y="772"/>
      <point x="-379" y="779"/>
      <point x="-376" y="791" type="curve"/>
      <point x="-501" y="815" type="line"/>
      <point x="-506" y="799"/>
      <point x="-509" y="778"/>
      <point x="-509" y="759" type="curve" smooth="yes"/>
      <point x="-509" y="643"/>
      <point x="-418" y="587"/>
    </contour>
    <contour>
      <point x="-287" y="703" type="curve" smooth="yes"/>
      <point x="-245" y="703"/>
      <point x="-223" y="725"/>
      <point x="-223" y="758" type="curve" smooth="yes"/>
      <point x="-223" y="788"/>
      <point x="-246" y="810"/>
      <point x="-287" y="810" type="curve" smooth="yes"/>
      <point x="-329" y="810"/>
      <point x="-350" y="788"/>
      <point x="-350" y="758" type="curve" smooth="yes"/>
      <point x="-350" y="725"/>
      <point x="-329" y="703"/>
    </contour>
  </outline>
</glyph>
<glyph name="candrabindutelu" format="2">
  <advance width="336"/>
  <unicode hex="0C01"/>
  <outline>
    <contour>
      <point x="28" y="210" type="curve" smooth="yes"/>
      <point x="28" y="72"/>
      <point x="120" y="-12"/>
      <point x="310" y="-12" type="curve" smooth="yes"/>
      <point x="315" y="-12" type="line"/>
      <point x="315" y="120" type="line"/>
      <point x="227" y="120"/>
      <point x="205" y="160"/>
      <point x="205" y="212" type="curve" smooth="yes"/>
      <point x="205" y="270"/>
      <point x="244" y="301"/>
      <point x="315" y="301" type="curve"/>
      <point x="315" y="433" type="line"/>
      <point x="309" y="433" type="line" smooth="yes"/>
      <point x="141" y="433"/>
      <point x="28" y="358"/>
    </contour>
  </outline>
</glyph>
<glyph name="anusvaratelu" format="2">
  <advance width="579"/>
  <unicode hex="0C02"/>
  <outline>
    <contour>
      <point x="28" y="210" type="curve" smooth="yes"/>
      <point x="28" y="80"/>
      <point x="118" y="-12"/>
      <point x="288" y="-12" type="curve" smooth="yes"/>
      <point x="450" y="-12"/>
      <point x="551" y="77"/>
      <point x="551" y="210" type="curve" smooth="yes"/>
      <point x="551" y="341"/>
      <point x="460" y="433"/>
      <point x="291" y="433" type="curve" smooth="yes"/>
      <point x="127" y="433"/>
      <point x="28" y="344"/>
    </contour>
    <contour>
      <point x="205" y="211" type="curve" smooth="yes"/>
      <point x="205" y="264"/>
      <point x="235" y="303"/>
      <point x="290" y="303" type="curve" smooth="yes"/>
      <point x="347" y="303"/>
      <point x="374" y="260"/>
      <point x="374" y="212" type="curve" smooth="yes"/>
      <point x="374" y="162"/>
      <point x="349" y="118"/>
      <point x="291" y="118" type="curve" smooth="yes"/>
      <point x="230" y="118"/>
      <point x="205" y="160"/>
    </contour>
  </outline>
</glyph>
<glyph name="visargatelu" format="2">
  <advance width="355"/>
  <unicode hex="0C03"/>
  <outline>
    <contour>
      <point x="24" y="113" type="curve" smooth="yes"/>
      <point x="24" y="42"/>
      <point x="76" y="-12"/>
      <point x="177" y="-12" type="curve" smooth="yes"/>
      <point x="279" y="-12"/>
      <point x="331" y="43"/>
      <point x="331" y="113" type="curve" smooth="yes"/>
      <point x="331" y="188"/>
      <point x="278" y="242"/>
      <point x="177" y="242" type="curve" smooth="yes"/>
      <point x="77" y="242"/>
      <point x="24" y="187"/>
    </contour>
    <contour>
      <point x="138" y="115" type="curve" smooth="yes"/>
      <point x="138" y="137"/>
      <point x="152" y="155"/>
      <point x="177" y="155" type="curve" smooth="yes"/>
      <point x="202" y="155"/>
      <point x="217" y="138"/>
      <point x="217" y="116" type="curve" smooth="yes"/>
      <point x="217" y="93"/>
      <point x="203" y="75"/>
      <point x="177" y="75" type="curve" smooth="yes"/>
      <point x="152" y="75"/>
      <point x="138" y="92"/>
    </contour>
    <contour>
      <point x="24" y="382" type="curve" smooth="yes"/>
      <point x="24" y="311"/>
      <point x="76" y="256"/>
      <point x="177" y="256" type="curve" smooth="yes"/>
      <point x="279" y="256"/>
      <point x="331" y="310"/>
      <point x="331" y="382" type="curve" smooth="yes"/>
      <point x="331" y="457"/>
      <point x="278" y="508"/>
      <point x="177" y="508" type="curve" smooth="yes"/>
      <point x="77" y="508"/>
      <point x="24" y="454"/>
    </contour>
    <contour>
      <point x="138" y="382" type="curve" smooth="yes"/>
      <point x="138" y="404"/>
      <point x="152" y="421"/>
      <point x="177" y="421" type="curve" smooth="yes"/>
      <point x="202" y="421"/>
      <point x="217" y="405"/>
      <point x="217" y="383" type="curve" smooth="yes"/>
      <point x="217" y="361"/>
      <point x="203" y="343"/>
      <point x="177" y="343" type="curve" smooth="yes"/>
      <point x="152" y="343"/>
      <point x="138" y="360"/>
    </contour>
  </outline>
</glyph>
<glyph name="uni0C04" format="2">
  <unicode hex="0C04"/>
  <outline>
    <contour>
      <point x="-439" y="716" type="curve" smooth="yes"/>
      <point x="-439" y="645"/>
      <point x="-387" y="590"/>
      <point x="-286" y="590" type="curve" smooth="yes"/>
      <point x="-184" y="590"/>
      <point x="-132" y="644"/>
      <point x="-132" y="716" type="curve" smooth="yes"/>
      <point x="-132" y="791"/>
      <point x="-185" y="842"/>
      <point x="-286" y="842" type="curve" smooth="yes"/>
      <point x="-386" y="842"/>
      <point x="-439" y="788"/>
    </contour>
    <contour>
      <point x="-325" y="716" type="curve" smooth="yes"/>
      <point x="-325" y="738"/>
      <point x="-311" y="755"/>
      <point x="-286" y="755" type="curve" smooth="yes"/>
      <point x="-261" y="755"/>
      <point x="-246" y="739"/>
      <point x="-246" y="717" type="curve" smooth="yes"/>
      <point x="-246" y="695"/>
      <point x="-260" y="677"/>
      <point x="-286" y="677" type="curve" smooth="yes"/>
      <point x="-311" y="677"/>
      <point x="-325" y="694"/>
    </contour>
  </outline>
</glyph>
<glyph name="atelu" format="2">
  <advance width="980"/>
  <unicode hex="0C05"/>
  <outline>
    <contour>
      <point x="475" y="-12" type="curve" smooth="yes"/>
      <point x="813" y="-12"/>
      <point x="951" y="99"/>
      <point x="951" y="282" type="curve" smooth="yes"/>
      <point x="951" y="417"/>
      <point x="856" y="508"/>
      <point x="698" y="508" type="curve" smooth="yes"/>
      <point x="574" y="508"/>
      <point x="511" y="447"/>
      <point x="511" y="371" type="curve" smooth="yes"/>
      <point x="511" y="339"/>
      <point x="522" y="309"/>
      <point x="545" y="283" type="curve"/>
      <point x="551" y="309" type="line"/>
      <point x="431" y="309" type="line"/>
      <point x="431" y="183" type="line"/>
      <point x="713" y="183" type="line"/>
      <point x="713" y="295" type="line"/>
      <point x="683" y="300"/>
      <point x="660" y="311"/>
      <point x="660" y="339" type="curve" smooth="yes"/>
      <point x="660" y="355"/>
      <point x="672" y="373"/>
      <point x="701" y="373" type="curve" smooth="yes"/>
      <point x="738" y="373"/>
      <point x="766" y="342"/>
      <point x="766" y="290" type="curve" smooth="yes"/>
      <point x="766" y="181"/>
      <point x="681" y="137"/>
      <point x="479" y="137" type="curve" smooth="yes"/>
      <point x="257" y="137"/>
      <point x="196" y="196"/>
      <point x="196" y="266" type="curve" smooth="yes"/>
      <point x="196" y="294" type="line" smooth="yes"/>
      <point x="196" y="353"/>
      <point x="220" y="391"/>
      <point x="259" y="391" type="curve" smooth="yes"/>
      <point x="284" y="391"/>
      <point x="295" y="374"/>
      <point x="295" y="355" type="curve" smooth="yes"/>
      <point x="295" y="321"/>
      <point x="272" y="311"/>
      <point x="241" y="311" type="curve" smooth="yes"/>
      <point x="193" y="311"/>
      <point x="156" y="343"/>
      <point x="129" y="380" type="curve"/>
      <point x="103" y="268" type="line"/>
      <point x="136" y="239"/>
      <point x="187" y="199"/>
      <point x="270" y="199" type="curve" smooth="yes"/>
      <point x="378" y="199"/>
      <point x="447" y="242"/>
      <point x="447" y="350" type="curve" smooth="yes"/>
      <point x="447" y="429"/>
      <point x="392" y="508"/>
      <point x="265" y="508" type="curve" smooth="yes"/>
      <point x="120" y="508"/>
      <point x="29" y="410"/>
      <point x="29" y="284" type="curve" smooth="yes"/>
      <point x="29" y="115"/>
      <point x="142" y="-12"/>
    </contour>
  </outline>
</glyph>
<glyph name="aatelu" format="2">
  <advance width="952"/>
  <unicode hex="0C06"/>
  <outline>
    <contour>
      <point x="503" y="-12" type="curve" smooth="yes"/>
      <point x="764" y="-12"/>
      <point x="908" y="44"/>
      <point x="908" y="166" type="curve" smooth="yes"/>
      <point x="908" y="230"/>
      <point x="866" y="273"/>
      <point x="765" y="300" type="curve"/>
      <point x="689" y="322"/>
      <point x="666" y="337"/>
      <point x="666" y="362" type="curve" smooth="yes"/>
      <point x="666" y="379"/>
      <point x="681" y="392"/>
      <point x="710" y="392" type="curve" smooth="yes"/>
      <point x="744" y="392"/>
      <point x="764" y="376"/>
      <point x="764" y="357" type="curve" smooth="yes"/>
      <point x="764" y="334"/>
      <point x="744" y="315"/>
      <point x="721" y="305" type="curve"/>
      <point x="431" y="305" type="line"/>
      <point x="431" y="183" type="line"/>
      <point x="631" y="183" type="line" smooth="yes"/>
      <point x="719" y="183"/>
      <point x="780" y="193"/>
      <point x="823" y="218" type="curve"/>
      <point x="881" y="247"/>
      <point x="924" y="284"/>
      <point x="924" y="361" type="curve" smooth="yes"/>
      <point x="924" y="439"/>
      <point x="853" y="508"/>
      <point x="710" y="508" type="curve" smooth="yes"/>
      <point x="555" y="508"/>
      <point x="516" y="440"/>
      <point x="516" y="385" type="curve" smooth="yes"/>
      <point x="516" y="321"/>
      <point x="572" y="289"/>
      <point x="668" y="248" type="curve"/>
      <point x="709" y="234"/>
      <point x="729" y="220"/>
      <point x="729" y="192" type="curve" smooth="yes"/>
      <point x="729" y="146"/>
      <point x="645" y="138"/>
      <point x="494" y="138" type="curve" smooth="yes"/>
      <point x="257" y="138"/>
      <point x="196" y="195"/>
      <point x="196" y="266" type="curve" smooth="yes"/>
      <point x="196" y="294" type="line" smooth="yes"/>
      <point x="196" y="353"/>
      <point x="220" y="391"/>
      <point x="259" y="391" type="curve" smooth="yes"/>
      <point x="284" y="391"/>
      <point x="295" y="374"/>
      <point x="295" y="355" type="curve" smooth="yes"/>
      <point x="295" y="321"/>
      <point x="272" y="311"/>
      <point x="241" y="311" type="curve" smooth="yes"/>
      <point x="193" y="311"/>
      <point x="156" y="343"/>
      <point x="129" y="380" type="curve"/>
      <point x="103" y="268" type="line"/>
      <point x="136" y="239"/>
      <point x="187" y="199"/>
      <point x="270" y="199" type="curve" smooth="yes"/>
      <point x="377" y="199"/>
      <point x="447" y="242"/>
      <point x="447" y="350" type="curve" smooth="yes"/>
      <point x="447" y="429"/>
      <point x="394" y="508"/>
      <point x="265" y="508" type="curve" smooth="yes"/>
      <point x="120" y="508"/>
      <point x="29" y="410"/>
      <point x="29" y="284" type="curve" smooth="yes"/>
      <point x="29" y="115"/>
      <point x="134" y="-12"/>
    </contour>
  </outline>
</glyph>
<glyph name="iitelu" format="2">
  <advance width="1097"/>
  <unicode hex="0C08"/>
  <outline>
    <contour>
      <point x="901" y="0" type="curve" smooth="yes"/>
      <point x="1013" y="0"/>
      <point x="1072" y="68"/>
      <point x="1072" y="157" type="curve" smooth="yes"/>
      <point x="1072" y="217"/>
      <point x="1041" y="254"/>
      <point x="1004" y="278" type="curve" smooth="yes"/>
      <point x="968" y="301"/>
      <point x="920" y="314"/>
      <point x="817" y="314" type="curve" smooth="yes"/>
      <point x="29" y="314" type="line"/>
      <point x="29" y="205" type="line"/>
      <point x="878" y="205" type="line" smooth="yes"/>
      <point x="925" y="205"/>
      <point x="946" y="187"/>
      <point x="946" y="160" type="curve" smooth="yes"/>
      <point x="946" y="131"/>
      <point x="929" y="120"/>
      <point x="901" y="120" type="curve" smooth="yes"/>
      <point x="873" y="120"/>
      <point x="857" y="137"/>
      <point x="857" y="160" type="curve" smooth="yes"/>
      <point x="857" y="197"/>
      <point x="886" y="214"/>
      <point x="946" y="238" type="curve"/>
      <point x="838" y="269" type="line"/>
      <point x="792" y="244"/>
      <point x="734" y="207"/>
      <point x="734" y="134" type="curve" smooth="yes"/>
      <point x="734" y="69"/>
      <point x="787" y="0"/>
    </contour>
    <contour>
      <point x="911" y="497" type="curve" smooth="yes"/>
      <point x="822" y="497"/>
      <point x="759" y="447"/>
      <point x="715" y="387" type="curve"/>
      <point x="838" y="341" type="line"/>
      <point x="859" y="368"/>
      <point x="878" y="385"/>
      <point x="902" y="385" type="curve" smooth="yes"/>
      <point x="920" y="385"/>
      <point x="931" y="376"/>
      <point x="931" y="359" type="curve" smooth="yes"/>
      <point x="931" y="335"/>
      <point x="911" y="318"/>
      <point x="855" y="287" type="curve"/>
      <point x="956" y="237" type="line"/>
      <point x="1013" y="257"/>
      <point x="1066" y="303"/>
      <point x="1066" y="372" type="curve" smooth="yes"/>
      <point x="1066" y="430"/>
      <point x="1033" y="497"/>
    </contour>
    <contour>
      <point x="76" y="243" type="curve" smooth="yes"/>
      <point x="76" y="96"/>
      <point x="168" y="-12"/>
      <point x="377" y="-12" type="curve" smooth="yes"/>
      <point x="585" y="-12"/>
      <point x="682" y="93"/>
      <point x="682" y="241" type="curve" smooth="yes"/>
      <point x="682" y="394"/>
      <point x="579" y="508"/>
      <point x="380" y="508" type="curve" smooth="yes"/>
      <point x="167" y="508"/>
      <point x="76" y="382"/>
    </contour>
    <contour>
      <point x="257" y="253" type="curve" smooth="yes"/>
      <point x="257" y="321"/>
      <point x="300" y="368"/>
      <point x="383" y="368" type="curve" smooth="yes"/>
      <point x="458" y="368"/>
      <point x="501" y="322"/>
      <point x="501" y="250" type="curve" smooth="yes"/>
      <point x="501" y="178"/>
      <point x="456" y="138"/>
      <point x="375" y="138" type="curve" smooth="yes"/>
      <point x="298" y="138"/>
      <point x="257" y="180"/>
    </contour>
    <component base="hattelu" xOffset="224"/>
  </outline>
</glyph>
<glyph name="utelu" format="2">
  <advance width="961"/>
  <unicode hex="0C09"/>
  <outline>
    <contour>
      <point x="655" y="-12" type="curve" smooth="yes"/>
      <point x="825" y="-12"/>
      <point x="863" y="88"/>
      <point x="863" y="151" type="curve" smooth="yes"/>
      <point x="863" y="234"/>
      <point x="801" y="280"/>
      <point x="688" y="280" type="curve" smooth="yes"/>
      <point x="605" y="280"/>
      <point x="541" y="231"/>
      <point x="541" y="166" type="curve" smooth="yes"/>
      <point x="541" y="130"/>
      <point x="552" y="86"/>
      <point x="574" y="57" type="curve"/>
      <point x="690" y="90" type="line"/>
      <point x="664" y="108"/>
      <point x="653" y="127"/>
      <point x="653" y="151" type="curve" smooth="yes"/>
      <point x="653" y="173"/>
      <point x="669" y="186"/>
      <point x="691" y="186" type="curve" smooth="yes"/>
      <point x="714" y="186"/>
      <point x="726" y="174"/>
      <point x="726" y="158" type="curve" smooth="yes"/>
      <point x="726" y="131"/>
      <point x="706" y="124"/>
      <point x="672" y="124" type="curve" smooth="yes"/>
      <point x="647" y="124"/>
      <point x="628" y="127"/>
      <point x="607" y="130" type="curve"/>
      <point x="526" y="132"/>
      <point x="502" y="162"/>
      <point x="494" y="199" type="curve"/>
      <point x="343" y="199" type="line"/>
      <point x="335" y="156"/>
      <point x="317" y="137"/>
      <point x="277" y="137" type="curve" smooth="yes"/>
      <point x="241" y="137"/>
      <point x="211" y="160"/>
      <point x="211" y="207" type="curve" smooth="yes"/>
      <point x="211" y="234"/>
      <point x="215" y="256"/>
      <point x="223" y="275" type="curve" smooth="yes"/>
      <point x="247" y="329"/>
      <point x="307" y="368"/>
      <point x="453" y="368" type="curve" smooth="yes"/>
      <point x="563" y="368"/>
      <point x="626" y="359"/>
      <point x="728" y="322" type="curve"/>
      <point x="799" y="445" type="line"/>
      <point x="683" y="488"/>
      <point x="600" y="507"/>
      <point x="464" y="507" type="curve" smooth="yes"/>
      <point x="183" y="507"/>
      <point x="31" y="395"/>
      <point x="31" y="205" type="curve" smooth="yes"/>
      <point x="31" y="71"/>
      <point x="105" y="-12"/>
      <point x="238" y="-12" type="curve" smooth="yes"/>
      <point x="348" y="-12"/>
      <point x="396" y="18"/>
      <point x="441" y="74" type="curve"/>
      <point x="411" y="74" type="line"/>
      <point x="453" y="30"/>
      <point x="518" y="-12"/>
    </contour>
    <contour>
      <point x="85" y="218" type="line"/>
      <point x="932" y="218" type="line"/>
      <point x="932" y="327" type="line"/>
      <point x="157" y="327" type="line"/>
    </contour>
    <contour>
      <point x="530" y="628" type="line"/>
      <point x="366" y="628" type="line"/>
      <point x="374" y="490" type="line"/>
      <point x="522" y="490" type="line"/>
    </contour>
  </outline>
</glyph>
<glyph name="uutelu" format="2">
  <advance width="1278"/>
  <unicode hex="0C0A"/>
  <outline>
    <contour>
      <point x="656" y="-12" type="curve" smooth="yes"/>
      <point x="825" y="-12"/>
      <point x="863" y="88"/>
      <point x="863" y="151" type="curve" smooth="yes"/>
      <point x="863" y="234"/>
      <point x="801" y="280"/>
      <point x="688" y="280" type="curve" smooth="yes"/>
      <point x="605" y="280"/>
      <point x="541" y="231"/>
      <point x="541" y="166" type="curve" smooth="yes"/>
      <point x="541" y="130"/>
      <point x="552" y="86"/>
      <point x="574" y="57" type="curve"/>
      <point x="690" y="90" type="line"/>
      <point x="664" y="108"/>
      <point x="653" y="127"/>
      <point x="653" y="151" type="curve" smooth="yes"/>
      <point x="653" y="173"/>
      <point x="669" y="186"/>
      <point x="691" y="186" type="curve" smooth="yes"/>
      <point x="714" y="186"/>
      <point x="726" y="174"/>
      <point x="726" y="158" type="curve" smooth="yes"/>
      <point x="726" y="131"/>
      <point x="706" y="124"/>
      <point x="672" y="124" type="curve" smooth="yes"/>
      <point x="647" y="124"/>
      <point x="628" y="127"/>
      <point x="607" y="130" type="curve"/>
      <point x="526" y="132"/>
      <point x="502" y="162"/>
      <point x="494" y="199" type="curve"/>
      <point x="343" y="199" type="line"/>
      <point x="335" y="156"/>
      <point x="317" y="137"/>
      <point x="277" y="137" type="curve" smooth="yes"/>
      <point x="241" y="137"/>
      <point x="211" y="160"/>
      <point x="211" y="207" type="curve" smooth="yes"/>
      <point x="211" y="234"/>
      <point x="215" y="256"/>
      <point x="223" y="275" type="curve" smooth="yes"/>
      <point x="247" y="329"/>
      <point x="307" y="368"/>
      <point x="453" y="368" type="curve" smooth="yes"/>
      <point x="563" y="368"/>
      <point x="626" y="359"/>
      <point x="728" y="322" type="curve"/>
      <point x="799" y="445" type="line"/>
      <point x="683" y="488"/>
      <point x="600" y="507"/>
      <point x="464" y="507" type="curve" smooth="yes"/>
      <point x="183" y="507"/>
      <point x="31" y="395"/>
      <point x="31" y="205" type="curve" smooth="yes"/>
      <point x="31" y="71"/>
      <point x="105" y="-12"/>
      <point x="238" y="-12" type="curve" smooth="yes"/>
      <point x="348" y="-12"/>
      <point x="396" y="18"/>
      <point x="441" y="74" type="curve"/>
      <point x="411" y="74" type="line"/>
      <point x="453" y="30"/>
      <point x="518" y="-12"/>
    </contour>
    <contour>
      <point x="1082" y="13" type="curve" smooth="yes"/>
      <point x="1194" y="13"/>
      <point x="1253" y="81"/>
      <point x="1253" y="170" type="curve" smooth="yes"/>
      <point x="1253" y="230"/>
      <point x="1222" y="267"/>
      <point x="1185" y="291" type="curve" smooth="yes"/>
      <point x="1149" y="314"/>
      <point x="1101" y="327"/>
      <point x="998" y="327" type="curve" smooth="yes"/>
      <point x="183" y="327" type="line"/>
      <point x="123" y="218" type="line"/>
      <point x="1059" y="218" type="line" smooth="yes"/>
      <point x="1106" y="218"/>
      <point x="1127" y="200"/>
      <point x="1127" y="173" type="curve" smooth="yes"/>
      <point x="1127" y="144"/>
      <point x="1110" y="133"/>
      <point x="1082" y="133" type="curve" smooth="yes"/>
      <point x="1054" y="133"/>
      <point x="1038" y="150"/>
      <point x="1038" y="173" type="curve" smooth="yes"/>
      <point x="1038" y="210"/>
      <point x="1067" y="227"/>
      <point x="1127" y="251" type="curve"/>
      <point x="1019" y="282" type="line"/>
      <point x="973" y="257"/>
      <point x="915" y="220"/>
      <point x="915" y="147" type="curve" smooth="yes"/>
      <point x="915" y="82"/>
      <point x="968" y="13"/>
    </contour>
    <contour>
      <point x="1092" y="510" type="curve" smooth="yes"/>
      <point x="1003" y="510"/>
      <point x="940" y="460"/>
      <point x="896" y="400" type="curve"/>
      <point x="1019" y="354" type="line"/>
      <point x="1040" y="381"/>
      <point x="1059" y="398"/>
      <point x="1083" y="398" type="curve" smooth="yes"/>
      <point x="1101" y="398"/>
      <point x="1112" y="389"/>
      <point x="1112" y="372" type="curve" smooth="yes"/>
      <point x="1112" y="348"/>
      <point x="1092" y="331"/>
      <point x="1036" y="300" type="curve"/>
      <point x="1137" y="250" type="line"/>
      <point x="1194" y="270"/>
      <point x="1247" y="316"/>
      <point x="1247" y="385" type="curve" smooth="yes"/>
      <point x="1247" y="443"/>
      <point x="1214" y="510"/>
    </contour>
    <contour>
      <point x="430" y="628" type="line"/>
      <point x="266" y="628" type="line"/>
      <point x="275" y="471" type="line"/>
      <point x="422" y="490" type="line"/>
    </contour>
    <contour>
      <point x="640" y="628" type="line"/>
      <point x="476" y="628" type="line"/>
      <point x="484" y="490" type="line"/>
      <point x="630" y="484" type="line"/>
    </contour>
  </outline>
</glyph>
<glyph name="lvocalictelu" format="2">
  <advance width="1034"/>
  <unicode hex="0C0C"/>
  <outline>
    <contour>
      <point x="629" y="-122" type="curve" smooth="yes"/>
      <point x="840" y="-122"/>
      <point x="1001" y="17"/>
      <point x="1001" y="212" type="curve" smooth="yes"/>
      <point x="1001" y="329"/>
      <point x="954" y="437"/>
      <point x="842" y="508" type="curve"/>
      <point x="726" y="377" type="line"/>
      <point x="779" y="335"/>
      <point x="816" y="282"/>
      <point x="816" y="209" type="curve" smooth="yes"/>
      <point x="816" y="85"/>
      <point x="717" y="27"/>
      <point x="641" y="27" type="curve" smooth="yes"/>
      <point x="599" y="27"/>
      <point x="576" y="45"/>
      <point x="576" y="78" type="curve" smooth="yes"/>
      <point x="576" y="103"/>
      <point x="587" y="122"/>
      <point x="630" y="168" type="curve" smooth="yes"/>
      <point x="688" y="229"/>
      <point x="721" y="274"/>
      <point x="721" y="350" type="curve" smooth="yes"/>
      <point x="721" y="406"/>
      <point x="680" y="508"/>
      <point x="541" y="508" type="curve" smooth="yes"/>
      <point x="463" y="508"/>
      <point x="404" y="478"/>
      <point x="356" y="404" type="curve"/>
      <point x="381" y="406" type="line"/>
      <point x="340" y="468"/>
      <point x="293" y="508"/>
      <point x="207" y="508" type="curve" smooth="yes"/>
      <point x="90" y="508"/>
      <point x="25" y="437"/>
      <point x="25" y="355" type="curve" smooth="yes"/>
      <point x="25" y="308"/>
      <point x="37" y="264"/>
      <point x="52" y="230" type="curve"/>
      <point x="222" y="279" type="line"/>
      <point x="213" y="296"/>
      <point x="210" y="311"/>
      <point x="210" y="325" type="curve" smooth="yes"/>
      <point x="210" y="342"/>
      <point x="218" y="359"/>
      <point x="239" y="359" type="curve" smooth="yes"/>
      <point x="269" y="359"/>
      <point x="286" y="329"/>
      <point x="288" y="281" type="curve"/>
      <point x="452" y="281" type="line"/>
      <point x="461" y="327"/>
      <point x="482" y="360"/>
      <point x="516" y="360" type="curve" smooth="yes"/>
      <point x="532" y="360"/>
      <point x="543" y="353"/>
      <point x="543" y="332" type="curve" smooth="yes"/>
      <point x="543" y="311"/>
      <point x="521" y="286"/>
      <point x="490" y="252" type="curve" smooth="yes"/>
      <point x="423" y="180"/>
      <point x="394" y="137"/>
      <point x="394" y="65" type="curve" smooth="yes"/>
      <point x="394" y="-46"/>
      <point x="476" y="-122"/>
    </contour>
  </outline>
</glyph>
<glyph name="eetelu" format="2">
  <advance width="826"/>
  <unicode hex="0C0F"/>
  <outline>
    <contour>
      <point x="574" y="-12" type="curve" smooth="yes"/>
      <point x="728" y="-12"/>
      <point x="795" y="79"/>
      <point x="795" y="207" type="curve" smooth="yes"/>
      <point x="795" y="455"/>
      <point x="582" y="645"/>
      <point x="391" y="731" type="curve"/>
      <point x="307" y="575" type="line"/>
      <point x="488" y="482"/>
      <point x="610" y="345"/>
      <point x="610" y="205" type="curve" smooth="yes"/>
      <point x="610" y="156"/>
      <point x="591" y="137"/>
      <point x="562" y="137" type="curve" smooth="yes"/>
      <point x="526" y="137"/>
      <point x="500" y="152"/>
      <point x="446" y="210" type="curve" smooth="yes"/>
      <point x="364" y="296"/>
      <point x="309" y="321"/>
      <point x="223" y="321" type="curve" smooth="yes"/>
      <point x="104" y="321"/>
      <point x="25" y="254"/>
      <point x="25" y="150" type="curve" smooth="yes"/>
      <point x="25" y="66"/>
      <point x="74" y="-12"/>
      <point x="213" y="-12" type="curve" smooth="yes"/>
      <point x="337" y="-12"/>
      <point x="381" y="40"/>
      <point x="423" y="98" type="curve"/>
      <point x="312" y="201" type="line"/>
      <point x="299" y="133"/>
      <point x="266" y="110"/>
      <point x="234" y="110" type="curve" smooth="yes"/>
      <point x="212" y="110"/>
      <point x="193" y="121"/>
      <point x="193" y="152" type="curve" smooth="yes"/>
      <point x="193" y="175"/>
      <point x="207" y="192"/>
      <point x="233" y="192" type="curve" smooth="yes"/>
      <point x="252" y="192"/>
      <point x="268" y="181"/>
      <point x="315" y="126" type="curve" smooth="yes"/>
      <point x="414" y="13"/>
      <point x="477" y="-12"/>
    </contour>
    <contour>
      <point x="87" y="675" type="curve" smooth="yes"/>
      <point x="87" y="608"/>
      <point x="110" y="545"/>
      <point x="157" y="468" type="curve"/>
      <point x="319" y="531" type="line"/>
      <point x="283" y="577"/>
      <point x="258" y="620"/>
      <point x="258" y="666" type="curve" smooth="yes"/>
      <point x="258" y="696"/>
      <point x="275" y="708"/>
      <point x="295" y="708" type="curve" smooth="yes"/>
      <point x="308" y="708"/>
      <point x="323" y="705"/>
      <point x="333" y="701" type="curve"/>
      <point x="384" y="824" type="line"/>
      <point x="356" y="835"/>
      <point x="318" y="844"/>
      <point x="270" y="844" type="curve" smooth="yes"/>
      <point x="148" y="844"/>
      <point x="87" y="767"/>
    </contour>
  </outline>
</glyph>
<glyph name="aitelu" format="2">
  <advance width="858"/>
  <unicode hex="0C10"/>
  <outline>
    <contour>
      <point x="600" y="-12" type="curve" smooth="yes"/>
      <point x="754" y="-12"/>
      <point x="826" y="85"/>
      <point x="826" y="238" type="curve" smooth="yes"/>
      <point x="826" y="354"/>
      <point x="766" y="508"/>
      <point x="587" y="508" type="curve" smooth="yes"/>
      <point x="489" y="508"/>
      <point x="438" y="467"/>
      <point x="400" y="409" type="curve"/>
      <point x="431" y="402" type="line"/>
      <point x="374" y="483"/>
      <point x="314" y="516"/>
      <point x="220" y="516" type="curve" smooth="yes"/>
      <point x="86" y="516"/>
      <point x="28" y="452"/>
      <point x="28" y="376" type="curve" smooth="yes"/>
      <point x="28" y="342"/>
      <point x="37" y="313"/>
      <point x="48" y="289" type="curve"/>
      <point x="217" y="332" type="line"/>
      <point x="214" y="340"/>
      <point x="213" y="348"/>
      <point x="213" y="353" type="curve" smooth="yes"/>
      <point x="213" y="372"/>
      <point x="227" y="386"/>
      <point x="250" y="386" type="curve" smooth="yes"/>
      <point x="286" y="386"/>
      <point x="313" y="355"/>
      <point x="328" y="314" type="curve"/>
      <point x="494" y="314" type="line"/>
      <point x="505" y="343"/>
      <point x="525" y="361"/>
      <point x="559" y="361" type="curve" smooth="yes"/>
      <point x="613" y="361"/>
      <point x="641" y="315"/>
      <point x="641" y="236" type="curve" smooth="yes"/>
      <point x="641" y="167"/>
      <point x="624" y="137"/>
      <point x="585" y="137" type="curve" smooth="yes"/>
      <point x="549" y="137"/>
      <point x="523" y="152"/>
      <point x="469" y="210" type="curve" smooth="yes"/>
      <point x="387" y="296"/>
      <point x="331" y="317"/>
      <point x="246" y="317" type="curve" smooth="yes"/>
      <point x="128" y="317"/>
      <point x="48" y="254"/>
      <point x="48" y="150" type="curve" smooth="yes"/>
      <point x="48" y="66"/>
      <point x="97" y="-12"/>
      <point x="236" y="-12" type="curve" smooth="yes"/>
      <point x="360" y="-12"/>
      <point x="404" y="40"/>
      <point x="446" y="98" type="curve"/>
      <point x="335" y="201" type="line"/>
      <point x="322" y="133"/>
      <point x="289" y="110"/>
      <point x="257" y="110" type="curve" smooth="yes"/>
      <point x="235" y="110"/>
      <point x="216" y="121"/>
      <point x="216" y="152" type="curve" smooth="yes"/>
      <point x="216" y="175"/>
      <point x="230" y="192"/>
      <point x="256" y="192" type="curve" smooth="yes"/>
      <point x="275" y="192"/>
      <point x="291" y="181"/>
      <point x="338" y="126" type="curve" smooth="yes"/>
      <point x="437" y="13"/>
      <point x="501" y="-12"/>
    </contour>
  </outline>
</glyph>
<glyph name="otelu" format="2">
  <advance width="857"/>
  <unicode hex="0C12"/>
  <outline>
    <contour>
      <point x="628" y="-12" type="curve" smooth="yes"/>
      <point x="766" y="-12"/>
      <point x="831" y="68"/>
      <point x="831" y="175" type="curve" smooth="yes"/>
      <point x="831" y="251"/>
      <point x="793" y="321"/>
      <point x="693" y="378" type="curve"/>
      <point x="596" y="256" type="line"/>
      <point x="635" y="232"/>
      <point x="646" y="211"/>
      <point x="646" y="184" type="curve" smooth="yes"/>
      <point x="646" y="159"/>
      <point x="631" y="137"/>
      <point x="593" y="137" type="curve" smooth="yes"/>
      <point x="549" y="137"/>
      <point x="526" y="165"/>
      <point x="520" y="213" type="curve"/>
      <point x="355" y="213" type="line"/>
      <point x="348" y="179"/>
      <point x="324" y="134"/>
      <point x="263" y="134" type="curve" smooth="yes"/>
      <point x="235" y="134"/>
      <point x="222" y="142"/>
      <point x="222" y="156" type="curve" smooth="yes"/>
      <point x="222" y="171"/>
      <point x="231" y="178"/>
      <point x="277" y="195" type="curve" smooth="yes"/>
      <point x="413" y="245"/>
      <point x="445" y="293"/>
      <point x="445" y="368" type="curve" smooth="yes"/>
      <point x="445" y="440"/>
      <point x="392" y="508"/>
      <point x="243" y="508" type="curve" smooth="yes"/>
      <point x="98" y="508"/>
      <point x="29" y="445"/>
      <point x="29" y="372" type="curve" smooth="yes"/>
      <point x="29" y="337"/>
      <point x="39" y="307"/>
      <point x="53" y="276" type="curve"/>
      <point x="211" y="323" type="line"/>
      <point x="207" y="331"/>
      <point x="202" y="345"/>
      <point x="202" y="359" type="curve" smooth="yes"/>
      <point x="202" y="375"/>
      <point x="210" y="390"/>
      <point x="239" y="390" type="curve" smooth="yes"/>
      <point x="263" y="390"/>
      <point x="272" y="377"/>
      <point x="272" y="362" type="curve" smooth="yes"/>
      <point x="272" y="334"/>
      <point x="252" y="323"/>
      <point x="209" y="306" type="curve" smooth="yes"/>
      <point x="76" y="253"/>
      <point x="37" y="204"/>
      <point x="37" y="132" type="curve" smooth="yes"/>
      <point x="37" y="53"/>
      <point x="95" y="-12"/>
      <point x="231" y="-12" type="curve" smooth="yes"/>
      <point x="341" y="-12"/>
      <point x="401" y="16"/>
      <point x="460" y="95" type="curve"/>
      <point x="405" y="96" type="line"/>
      <point x="467" y="16"/>
      <point x="517" y="-12"/>
    </contour>
  </outline>
</glyph>
<glyph name="autelu" format="2">
  <advance width="857"/>
  <unicode hex="0C14"/>
  <outline>
    <contour>
      <point x="654" y="379" type="curve" smooth="yes"/>
      <point x="759" y="379"/>
      <point x="825" y="441"/>
      <point x="825" y="541" type="curve" smooth="yes"/>
      <point x="825" y="604"/>
      <point x="803" y="648"/>
      <point x="764" y="676" type="curve" smooth="yes"/>
      <point x="713" y="713"/>
      <point x="657" y="721"/>
      <point x="540" y="721" type="curve" smooth="yes"/>
      <point x="32" y="721" type="line"/>
      <point x="32" y="581" type="line"/>
      <point x="200" y="581" type="line" smooth="yes"/>
      <point x="232" y="581"/>
      <point x="243" y="579"/>
      <point x="253" y="572" type="curve" smooth="yes"/>
      <point x="261" y="566"/>
      <point x="265" y="558"/>
      <point x="265" y="546" type="curve" smooth="yes"/>
      <point x="265" y="533"/>
      <point x="261" y="526"/>
      <point x="255" y="520" type="curve" smooth="yes"/>
      <point x="244" y="509"/>
      <point x="226" y="508"/>
      <point x="201" y="508" type="curve" smooth="yes"/>
      <point x="106" y="508" type="line"/>
      <point x="106" y="392" type="line"/>
      <point x="172" y="392" type="line" smooth="yes"/>
      <point x="271" y="392"/>
      <point x="321" y="398"/>
      <point x="356" y="420" type="curve" smooth="yes"/>
      <point x="400" y="448"/>
      <point x="422" y="494"/>
      <point x="422" y="550" type="curve" smooth="yes"/>
      <point x="422" y="562"/>
      <point x="421" y="571"/>
      <point x="418" y="581" type="curve"/>
      <point x="635" y="581" type="line" smooth="yes"/>
      <point x="679" y="581"/>
      <point x="699" y="564"/>
      <point x="699" y="539" type="curve" smooth="yes"/>
      <point x="699" y="510"/>
      <point x="680" y="499"/>
      <point x="654" y="499" type="curve" smooth="yes"/>
      <point x="624" y="499"/>
      <point x="610" y="519"/>
      <point x="610" y="548" type="curve" smooth="yes"/>
      <point x="610" y="581"/>
      <point x="631" y="611"/>
      <point x="663" y="638" type="curve"/>
      <point x="531" y="650" type="line"/>
      <point x="509" y="621"/>
      <point x="487" y="576"/>
      <point x="487" y="526" type="curve" smooth="yes"/>
      <point x="487" y="454"/>
      <point x="533" y="379"/>
    </contour>
    <component base="otelu"/>
  </outline>
</glyph>
<glyph name="ngatelu" format="2">
  <advance width="857"/>
  <unicode hex="0C19"/>
  <outline>
    <contour>
      <point x="628" y="-12" type="curve" smooth="yes"/>
      <point x="773" y="-12"/>
      <point x="831" y="68"/>
      <point x="831" y="149" type="curve" smooth="yes"/>
      <point x="831" y="198"/>
      <point x="817" y="234"/>
      <point x="798" y="263" type="curve"/>
      <point x="638" y="223" type="line"/>
      <point x="643" y="211"/>
      <point x="646" y="196"/>
      <point x="646" y="186" type="curve" smooth="yes"/>
      <point x="646" y="157"/>
      <point x="631" y="137"/>
      <point x="591" y="137" type="curve" smooth="yes"/>
      <point x="547" y="137"/>
      <point x="526" y="165"/>
      <point x="520" y="213" type="curve"/>
      <point x="355" y="213" type="line"/>
      <point x="348" y="179"/>
      <point x="324" y="134"/>
      <point x="263" y="134" type="curve" smooth="yes"/>
      <point x="235" y="134"/>
      <point x="222" y="142"/>
      <point x="222" y="156" type="curve" smooth="yes"/>
      <point x="222" y="171"/>
      <point x="231" y="178"/>
      <point x="277" y="195" type="curve" smooth="yes"/>
      <point x="413" y="245"/>
      <point x="445" y="293"/>
      <point x="445" y="368" type="curve" smooth="yes"/>
      <point x="445" y="440"/>
      <point x="392" y="508"/>
      <point x="243" y="508" type="curve" smooth="yes"/>
      <point x="98" y="508"/>
      <point x="29" y="445"/>
      <point x="29" y="372" type="curve" smooth="yes"/>
      <point x="29" y="337"/>
      <point x="39" y="307"/>
      <point x="53" y="276" type="curve"/>
      <point x="211" y="323" type="line"/>
      <point x="207" y="331"/>
      <point x="202" y="345"/>
      <point x="202" y="359" type="curve" smooth="yes"/>
      <point x="202" y="375"/>
      <point x="210" y="390"/>
      <point x="239" y="390" type="curve" smooth="yes"/>
      <point x="263" y="390"/>
      <point x="272" y="377"/>
      <point x="272" y="362" type="curve" smooth="yes"/>
      <point x="272" y="334"/>
      <point x="252" y="323"/>
      <point x="209" y="306" type="curve" smooth="yes"/>
      <point x="76" y="253"/>
      <point x="37" y="204"/>
      <point x="37" y="132" type="curve" smooth="yes"/>
      <point x="37" y="53"/>
      <point x="95" y="-12"/>
      <point x="231" y="-12" type="curve" smooth="yes"/>
      <point x="341" y="-12"/>
      <point x="401" y="16"/>
      <point x="460" y="95" type="curve"/>
      <point x="405" y="96" type="line"/>
      <point x="467" y="16"/>
      <point x="517" y="-12"/>
    </contour>
    <contour>
      <point x="365" y="263" type="line"/>
      <point x="758" y="263" type="line"/>
      <point x="758" y="380" type="line"/>
      <point x="371" y="380" type="line"/>
    </contour>
    <contour>
      <point x="674" y="508" type="line"/>
      <point x="510" y="508" type="line"/>
      <point x="518" y="370" type="line"/>
      <point x="666" y="370" type="line"/>
    </contour>
  </outline>
</glyph>
<glyph name="chatelu" format="2">
  <advance width="897"/>
  <unicode hex="0C1B"/>
  <outline>
    <contour>
      <point x="641" y="-12" type="curve" smooth="yes"/>
      <point x="790" y="-12"/>
      <point x="866" y="77"/>
      <point x="866" y="208" type="curve" smooth="yes"/>
      <point x="866" y="366"/>
      <point x="742" y="469"/>
      <point x="579" y="498" type="curve"/>
      <point x="446" y="386" type="line"/>
      <point x="592" y="366"/>
      <point x="681" y="297"/>
      <point x="681" y="197" type="curve" smooth="yes"/>
      <point x="681" y="154"/>
      <point x="659" y="137"/>
      <point x="622" y="137" type="curve" smooth="yes"/>
      <point x="576" y="137"/>
      <point x="551" y="163"/>
      <point x="546" y="213" type="curve"/>
      <point x="381" y="213" type="line"/>
      <point x="372" y="174"/>
      <point x="351" y="137"/>
      <point x="302" y="137" type="curve" smooth="yes"/>
      <point x="268" y="137"/>
      <point x="254" y="154"/>
      <point x="254" y="175" type="curve" smooth="yes"/>
      <point x="254" y="203"/>
      <point x="278" y="223"/>
      <point x="331" y="231" type="curve"/>
      <point x="331" y="364" type="line"/>
      <point x="24" y="364" type="line"/>
      <point x="24" y="218" type="line"/>
      <point x="156" y="218" type="line"/>
      <point x="149" y="257" type="line"/>
      <point x="98" y="231"/>
      <point x="73" y="184"/>
      <point x="73" y="137" type="curve" smooth="yes"/>
      <point x="73" y="38"/>
      <point x="149" y="-12"/>
      <point x="265" y="-12" type="curve" smooth="yes"/>
      <point x="371" y="-12"/>
      <point x="424" y="14"/>
      <point x="486" y="95" type="curve"/>
      <point x="431" y="96" type="line"/>
      <point x="493" y="15"/>
      <point x="543" y="-12"/>
    </contour>
    <contour>
      <point x="378" y="-137" type="line"/>
      <point x="542" y="-137" type="line"/>
      <point x="534" y="1" type="line"/>
      <point x="386" y="1" type="line"/>
    </contour>
    <component base="hattelu" xOffset="331"/>
  </outline>
</glyph>
<glyph name="jatelu" format="2">
  <advance width="857"/>
  <unicode hex="0C1C"/>
  <outline>
    <contour>
      <point x="628" y="-12" type="curve" smooth="yes"/>
      <point x="773" y="-12"/>
      <point x="831" y="68"/>
      <point x="831" y="149" type="curve" smooth="yes"/>
      <point x="831" y="198"/>
      <point x="817" y="234"/>
      <point x="798" y="263" type="curve"/>
      <point x="638" y="223" type="line"/>
      <point x="643" y="211"/>
      <point x="646" y="196"/>
      <point x="646" y="186" type="curve" smooth="yes"/>
      <point x="646" y="157"/>
      <point x="631" y="137"/>
      <point x="591" y="137" type="curve" smooth="yes"/>
      <point x="547" y="137"/>
      <point x="526" y="165"/>
      <point x="520" y="213" type="curve"/>
      <point x="355" y="213" type="line"/>
      <point x="348" y="179"/>
      <point x="324" y="134"/>
      <point x="263" y="134" type="curve" smooth="yes"/>
      <point x="235" y="134"/>
      <point x="222" y="142"/>
      <point x="222" y="156" type="curve" smooth="yes"/>
      <point x="222" y="171"/>
      <point x="231" y="178"/>
      <point x="277" y="195" type="curve" smooth="yes"/>
      <point x="413" y="245"/>
      <point x="445" y="293"/>
      <point x="445" y="368" type="curve" smooth="yes"/>
      <point x="445" y="440"/>
      <point x="392" y="508"/>
      <point x="243" y="508" type="curve" smooth="yes"/>
      <point x="98" y="508"/>
      <point x="29" y="445"/>
      <point x="29" y="372" type="curve" smooth="yes"/>
      <point x="29" y="337"/>
      <point x="39" y="307"/>
      <point x="53" y="276" type="curve"/>
      <point x="211" y="323" type="line"/>
      <point x="207" y="331"/>
      <point x="202" y="345"/>
      <point x="202" y="359" type="curve" smooth="yes"/>
      <point x="202" y="375"/>
      <point x="210" y="390"/>
      <point x="239" y="390" type="curve" smooth="yes"/>
      <point x="263" y="390"/>
      <point x="272" y="377"/>
      <point x="272" y="362" type="curve" smooth="yes"/>
      <point x="272" y="334"/>
      <point x="252" y="323"/>
      <point x="209" y="306" type="curve" smooth="yes"/>
      <point x="76" y="253"/>
      <point x="37" y="204"/>
      <point x="37" y="132" type="curve" smooth="yes"/>
      <point x="37" y="53"/>
      <point x="95" y="-12"/>
      <point x="231" y="-12" type="curve" smooth="yes"/>
      <point x="341" y="-12"/>
      <point x="401" y="16"/>
      <point x="460" y="95" type="curve"/>
      <point x="405" y="96" type="line"/>
      <point x="467" y="16"/>
      <point x="517" y="-12"/>
    </contour>
    <contour>
      <point x="774" y="374" type="curve" smooth="yes"/>
      <point x="774" y="464"/>
      <point x="710" y="508"/>
      <point x="599" y="508" type="curve" smooth="yes"/>
      <point x="569" y="508"/>
      <point x="534" y="503"/>
      <point x="503" y="495" type="curve"/>
      <point x="519" y="384" type="line"/>
      <point x="533" y="387"/>
      <point x="551" y="389"/>
      <point x="571" y="389" type="curve" smooth="yes"/>
      <point x="597" y="389"/>
      <point x="609" y="382"/>
      <point x="609" y="371" type="curve" smooth="yes"/>
      <point x="609" y="358"/>
      <point x="601" y="350"/>
      <point x="562" y="350" type="curve" smooth="yes"/>
      <point x="475" y="350"/>
      <point x="428" y="392"/>
      <point x="383" y="455" type="curve"/>
      <point x="344" y="346" type="line"/>
      <point x="385" y="282"/>
      <point x="460" y="230"/>
      <point x="575" y="230" type="curve" smooth="yes"/>
      <point x="709" y="230"/>
      <point x="774" y="285"/>
    </contour>
  </outline>
</glyph>
<glyph name="ttatelu" format="2">
  <advance width="900"/>
  <unicode hex="0C1F"/>
  <outline>
    <contour>
      <point x="646" y="-12" type="curve" smooth="yes"/>
      <point x="793" y="-12"/>
      <point x="869" y="74"/>
      <point x="869" y="208" type="curve" smooth="yes"/>
      <point x="869" y="344"/>
      <point x="773" y="447"/>
      <point x="650" y="509" type="curve"/>
      <point x="551" y="370" type="line"/>
      <point x="635" y="322"/>
      <point x="684" y="265"/>
      <point x="684" y="200" type="curve" smooth="yes"/>
      <point x="684" y="154"/>
      <point x="662" y="137"/>
      <point x="625" y="137" type="curve" smooth="yes"/>
      <point x="579" y="137"/>
      <point x="555" y="165"/>
      <point x="549" y="208" type="curve"/>
      <point x="384" y="208" type="line"/>
      <point x="376" y="179"/>
      <point x="354" y="135"/>
      <point x="292" y="135" type="curve" smooth="yes"/>
      <point x="238" y="135"/>
      <point x="208" y="163"/>
      <point x="208" y="229" type="curve" smooth="yes"/>
      <point x="208" y="244" type="line" smooth="yes"/>
      <point x="208" y="367"/>
      <point x="251" y="391"/>
      <point x="284" y="391" type="curve" smooth="yes"/>
      <point x="311" y="391"/>
      <point x="322" y="374"/>
      <point x="322" y="355" type="curve" smooth="yes"/>
      <point x="322" y="322"/>
      <point x="300" y="311"/>
      <point x="266" y="311" type="curve" smooth="yes"/>
      <point x="220" y="311"/>
      <point x="183" y="343"/>
      <point x="156" y="380" type="curve"/>
      <point x="123" y="266" type="line"/>
      <point x="153" y="241"/>
      <point x="209" y="199"/>
      <point x="294" y="199" type="curve" smooth="yes"/>
      <point x="410" y="199"/>
      <point x="477" y="244"/>
      <point x="477" y="353" type="curve" smooth="yes"/>
      <point x="477" y="429"/>
      <point x="424" y="508"/>
      <point x="293" y="508" type="curve" smooth="yes"/>
      <point x="128" y="508"/>
      <point x="34" y="391"/>
      <point x="34" y="237" type="curve" smooth="yes"/>
      <point x="34" y="90"/>
      <point x="107" y="-12"/>
      <point x="261" y="-12" type="curve" smooth="yes"/>
      <point x="370" y="-12"/>
      <point x="430" y="16"/>
      <point x="489" y="95" type="curve"/>
      <point x="434" y="96" type="line"/>
      <point x="496" y="15"/>
      <point x="546" y="-12"/>
    </contour>
    <contour>
      <point x="365" y="628" type="line"/>
      <point x="201" y="628" type="line"/>
      <point x="209" y="490" type="line"/>
      <point x="357" y="490" type="line"/>
    </contour>
  </outline>
</glyph>
<glyph name="nnatelu" format="2">
  <advance width="937"/>
  <unicode hex="0C23"/>
  <outline>
    <contour>
      <point x="662" y="-12" type="curve" smooth="yes"/>
      <point x="820" y="-12"/>
      <point x="906" y="78"/>
      <point x="906" y="243" type="curve" smooth="yes"/>
      <point x="906" y="400"/>
      <point x="817" y="508"/>
      <point x="656" y="508" type="curve" smooth="yes"/>
      <point x="547" y="508"/>
      <point x="487" y="456"/>
      <point x="451" y="400" type="curve"/>
      <point x="496" y="409" type="line"/>
      <point x="421" y="482"/>
      <point x="357" y="508"/>
      <point x="252" y="508" type="curve" smooth="yes"/>
      <point x="108" y="508"/>
      <point x="35" y="446"/>
      <point x="35" y="363" type="curve" smooth="yes"/>
      <point x="35" y="301"/>
      <point x="81" y="255"/>
      <point x="141" y="238" type="curve"/>
      <point x="138" y="256" type="line"/>
      <point x="61" y="233"/>
      <point x="27" y="184"/>
      <point x="27" y="131" type="curve" smooth="yes"/>
      <point x="27" y="47"/>
      <point x="94" y="-12"/>
      <point x="224" y="-12" type="curve" smooth="yes"/>
      <point x="353" y="-12"/>
      <point x="420" y="35"/>
      <point x="473" y="86" type="curve"/>
      <point x="366" y="178" type="line"/>
      <point x="339" y="148"/>
      <point x="312" y="121"/>
      <point x="264" y="121" type="curve" smooth="yes"/>
      <point x="235" y="121"/>
      <point x="218" y="132"/>
      <point x="218" y="153" type="curve" smooth="yes"/>
      <point x="218" y="165"/>
      <point x="223" y="173"/>
      <point x="231" y="178" type="curve" smooth="yes"/>
      <point x="244" y="187"/>
      <point x="260" y="189"/>
      <point x="295" y="189" type="curve" smooth="yes"/>
      <point x="351" y="189" type="line"/>
      <point x="351" y="305" type="line"/>
      <point x="289" y="305" type="line" smooth="yes"/>
      <point x="267" y="305"/>
      <point x="249" y="308"/>
      <point x="238" y="316" type="curve" smooth="yes"/>
      <point x="230" y="322"/>
      <point x="226" y="330"/>
      <point x="226" y="342" type="curve" smooth="yes"/>
      <point x="226" y="362"/>
      <point x="245" y="373"/>
      <point x="286" y="373" type="curve" smooth="yes"/>
      <point x="351" y="373"/>
      <point x="380" y="339"/>
      <point x="391" y="306" type="curve"/>
      <point x="559" y="306" type="line"/>
      <point x="573" y="336"/>
      <point x="598" y="359"/>
      <point x="642" y="359" type="curve" smooth="yes"/>
      <point x="710" y="359"/>
      <point x="735" y="297"/>
      <point x="735" y="227" type="curve" smooth="yes"/>
      <point x="735" y="221" type="line" smooth="yes"/>
      <point x="735" y="163"/>
      <point x="724" y="105"/>
      <point x="664" y="105" type="curve" smooth="yes"/>
      <point x="639" y="105"/>
      <point x="621" y="116"/>
      <point x="621" y="140" type="curve" smooth="yes"/>
      <point x="621" y="168"/>
      <point x="642" y="177"/>
      <point x="666" y="177" type="curve" smooth="yes"/>
      <point x="717" y="177"/>
      <point x="748" y="128"/>
      <point x="772" y="64" type="curve"/>
      <point x="834" y="172" type="line"/>
      <point x="797" y="228"/>
      <point x="742" y="289"/>
      <point x="635" y="289" type="curve" smooth="yes"/>
      <point x="544" y="289"/>
      <point x="468" y="243"/>
      <point x="468" y="144" type="curve" smooth="yes"/>
      <point x="468" y="64"/>
      <point x="517" y="-12"/>
    </contour>
  </outline>
</glyph>
<glyph name="tatelu" format="2">
  <advance width="941"/>
  <unicode hex="0C24"/>
  <outline>
    <contour>
      <point x="458" y="-12" type="curve" smooth="yes"/>
      <point x="815" y="-12"/>
      <point x="912" y="96"/>
      <point x="912" y="247" type="curve" smooth="yes"/>
      <point x="912" y="416"/>
      <point x="763" y="501"/>
      <point x="613" y="507" type="curve"/>
      <point x="538" y="421" type="line"/>
      <point x="574" y="421"/>
      <point x="628" y="413"/>
      <point x="659" y="399" type="curve"/>
      <point x="784" y="398" type="line"/>
      <point x="759" y="407"/>
      <point x="703" y="414"/>
      <point x="672" y="414" type="curve" smooth="yes"/>
      <point x="549" y="414"/>
      <point x="488" y="370"/>
      <point x="488" y="287" type="curve" smooth="yes"/>
      <point x="488" y="198"/>
      <point x="561" y="160"/>
      <point x="647" y="160" type="curve" smooth="yes"/>
      <point x="746" y="160"/>
      <point x="814" y="223"/>
      <point x="844" y="294" type="curve"/>
      <point x="764" y="345" type="line"/>
      <point x="749" y="290"/>
      <point x="722" y="261"/>
      <point x="683" y="261" type="curve" smooth="yes"/>
      <point x="661" y="261"/>
      <point x="637" y="269"/>
      <point x="637" y="300" type="curve" smooth="yes"/>
      <point x="637" y="327"/>
      <point x="657" y="339"/>
      <point x="681" y="339" type="curve" smooth="yes"/>
      <point x="722" y="339"/>
      <point x="762" y="311"/>
      <point x="762" y="257" type="curve" smooth="yes"/>
      <point x="762" y="249" type="line" smooth="yes"/>
      <point x="762" y="163"/>
      <point x="699" y="130"/>
      <point x="458" y="130" type="curve" smooth="yes"/>
      <point x="232" y="130"/>
      <point x="183" y="179"/>
      <point x="183" y="239" type="curve" smooth="yes"/>
      <point x="183" y="247" type="line" smooth="yes"/>
      <point x="183" y="313"/>
      <point x="222" y="339"/>
      <point x="255" y="339" type="curve" smooth="yes"/>
      <point x="281" y="339"/>
      <point x="294" y="325"/>
      <point x="294" y="305" type="curve" smooth="yes"/>
      <point x="294" y="272"/>
      <point x="272" y="261"/>
      <point x="237" y="261" type="curve" smooth="yes"/>
      <point x="189" y="261"/>
      <point x="145" y="300"/>
      <point x="120" y="337" type="curve"/>
      <point x="82" y="251" type="line"/>
      <point x="117" y="210"/>
      <point x="189" y="163"/>
      <point x="266" y="163" type="curve" smooth="yes"/>
      <point x="378" y="163"/>
      <point x="446" y="206"/>
      <point x="446" y="304" type="curve" smooth="yes"/>
      <point x="446" y="385"/>
      <point x="388" y="455"/>
      <point x="257" y="455" type="curve" smooth="yes"/>
      <point x="125" y="455"/>
      <point x="29" y="376"/>
      <point x="29" y="251" type="curve" smooth="yes"/>
      <point x="29" y="96"/>
      <point x="165" y="-12"/>
    </contour>
    <component base="hattelu" xOffset="406"/>
  </outline>
</glyph>
<glyph name="natelu" format="2">
  <advance width="824"/>
  <unicode hex="0C28"/>
  <outline>
    <contour>
      <point x="568" y="-12" type="curve" smooth="yes"/>
      <point x="729" y="-12"/>
      <point x="793" y="89"/>
      <point x="793" y="206" type="curve" smooth="yes"/>
      <point x="793" y="359"/>
      <point x="678" y="478"/>
      <point x="484" y="509" type="curve"/>
      <point x="313" y="382" type="line"/>
      <point x="347" y="382" type="line" smooth="yes"/>
      <point x="550" y="382"/>
      <point x="608" y="272"/>
      <point x="608" y="198" type="curve" smooth="yes"/>
      <point x="608" y="154"/>
      <point x="593" y="137"/>
      <point x="563" y="137" type="curve" smooth="yes"/>
      <point x="529" y="137"/>
      <point x="504" y="154"/>
      <point x="454" y="204" type="curve" smooth="yes"/>
      <point x="366" y="293"/>
      <point x="310" y="321"/>
      <point x="222" y="321" type="curve" smooth="yes"/>
      <point x="99" y="321"/>
      <point x="26" y="247"/>
      <point x="26" y="150" type="curve" smooth="yes"/>
      <point x="26" y="87"/>
      <point x="44" y="29"/>
      <point x="68" y="-16" type="curve"/>
      <point x="253" y="40" type="line"/>
      <point x="224" y="82"/>
      <point x="210" y="112"/>
      <point x="210" y="140" type="curve" smooth="yes"/>
      <point x="210" y="157"/>
      <point x="218" y="172"/>
      <point x="236" y="172" type="curve" smooth="yes"/>
      <point x="255" y="172"/>
      <point x="266" y="164"/>
      <point x="301" y="123" type="curve" smooth="yes"/>
      <point x="399" y="10"/>
      <point x="475" y="-12"/>
    </contour>
    <component base="hattelu" xOffset="180"/>
  </outline>
</glyph>
<glyph name="batelu" format="2">
  <advance width="871"/>
  <unicode hex="0C2C"/>
  <outline>
    <contour>
      <point x="617" y="-12" type="curve" smooth="yes"/>
      <point x="764" y="-12"/>
      <point x="840" y="74"/>
      <point x="840" y="208" type="curve" smooth="yes"/>
      <point x="840" y="344"/>
      <point x="744" y="447"/>
      <point x="621" y="509" type="curve"/>
      <point x="522" y="370" type="line"/>
      <point x="606" y="322"/>
      <point x="655" y="265"/>
      <point x="655" y="200" type="curve" smooth="yes"/>
      <point x="655" y="154"/>
      <point x="633" y="137"/>
      <point x="596" y="137" type="curve" smooth="yes"/>
      <point x="550" y="137"/>
      <point x="525" y="163"/>
      <point x="520" y="213" type="curve"/>
      <point x="355" y="213" type="line"/>
      <point x="348" y="179"/>
      <point x="324" y="134"/>
      <point x="263" y="134" type="curve" smooth="yes"/>
      <point x="235" y="134"/>
      <point x="222" y="142"/>
      <point x="222" y="156" type="curve" smooth="yes"/>
      <point x="222" y="171"/>
      <point x="231" y="178"/>
      <point x="277" y="195" type="curve" smooth="yes"/>
      <point x="413" y="245"/>
      <point x="445" y="293"/>
      <point x="445" y="368" type="curve" smooth="yes"/>
      <point x="445" y="440"/>
      <point x="392" y="508"/>
      <point x="243" y="508" type="curve" smooth="yes"/>
      <point x="98" y="508"/>
      <point x="29" y="445"/>
      <point x="29" y="372" type="curve" smooth="yes"/>
      <point x="29" y="337"/>
      <point x="39" y="307"/>
      <point x="53" y="276" type="curve"/>
      <point x="211" y="323" type="line"/>
      <point x="207" y="331"/>
      <point x="202" y="345"/>
      <point x="202" y="359" type="curve" smooth="yes"/>
      <point x="202" y="375"/>
      <point x="210" y="390"/>
      <point x="239" y="390" type="curve" smooth="yes"/>
      <point x="263" y="390"/>
      <point x="272" y="377"/>
      <point x="272" y="362" type="curve" smooth="yes"/>
      <point x="272" y="334"/>
      <point x="252" y="323"/>
      <point x="209" y="306" type="curve" smooth="yes"/>
      <point x="75" y="253"/>
      <point x="37" y="204"/>
      <point x="37" y="132" type="curve" smooth="yes"/>
      <point x="37" y="53"/>
      <point x="95" y="-12"/>
      <point x="231" y="-12" type="curve" smooth="yes"/>
      <point x="341" y="-12"/>
      <point x="401" y="16"/>
      <point x="460" y="95" type="curve"/>
      <point x="405" y="96" type="line"/>
      <point x="467" y="15"/>
      <point x="517" y="-12"/>
    </contour>
  </outline>
</glyph>
<glyph name="yatelu" format="2">
  <advance width="1390"/>
  <unicode hex="0C2F"/>
  <outline>
    <contour>
      <point x="31" y="247" type="curve" smooth="yes"/>
      <point x="31" y="96"/>
      <point x="123" y="-12"/>
      <point x="332" y="-12" type="curve" smooth="yes"/>
      <point x="540" y="-12"/>
      <point x="637" y="93"/>
      <point x="637" y="244" type="curve" smooth="yes"/>
      <point x="637" y="394"/>
      <point x="534" y="508"/>
      <point x="335" y="508" type="curve" smooth="yes"/>
      <point x="122" y="508"/>
      <point x="31" y="382"/>
    </contour>
    <contour>
      <point x="216" y="249" type="curve" smooth="yes"/>
      <point x="216" y="315"/>
      <point x="257" y="359"/>
      <point x="338" y="359" type="curve" smooth="yes"/>
      <point x="412" y="359"/>
      <point x="452" y="317"/>
      <point x="452" y="247" type="curve" smooth="yes"/>
      <point x="452" y="179"/>
      <point x="411" y="138"/>
      <point x="330" y="138" type="curve" smooth="yes"/>
      <point x="253" y="138"/>
      <point x="216" y="181"/>
    </contour>
    <contour>
      <point x="767" y="-12" type="curve" smooth="yes"/>
      <point x="923" y="-12"/>
      <point x="999" y="77"/>
      <point x="999" y="208" type="curve" smooth="yes"/>
      <point x="999" y="344"/>
      <point x="909" y="429"/>
      <point x="778" y="501" type="curve"/>
      <point x="669" y="386" type="line"/>
      <point x="753" y="338"/>
      <point x="814" y="271"/>
      <point x="814" y="200" type="curve" smooth="yes"/>
      <point x="814" y="154"/>
      <point x="794" y="137"/>
      <point x="760" y="137" type="curve" smooth="yes"/>
      <point x="704" y="137"/>
      <point x="666" y="171"/>
      <point x="626" y="215" type="curve"/>
      <point x="527" y="107" type="line"/>
      <point x="591" y="36"/>
      <point x="659" y="-12"/>
    </contour>
    <contour>
      <point x="1127" y="-12" type="curve" smooth="yes"/>
      <point x="1283" y="-12"/>
      <point x="1359" y="77"/>
      <point x="1359" y="208" type="curve" smooth="yes"/>
      <point x="1359" y="344"/>
      <point x="1263" y="447"/>
      <point x="1140" y="509" type="curve"/>
      <point x="1041" y="370" type="line"/>
      <point x="1125" y="322"/>
      <point x="1174" y="265"/>
      <point x="1174" y="200" type="curve" smooth="yes"/>
      <point x="1174" y="154"/>
      <point x="1154" y="137"/>
      <point x="1120" y="137" type="curve" smooth="yes"/>
      <point x="1064" y="137"/>
      <point x="1026" y="171"/>
      <point x="986" y="215" type="curve"/>
      <point x="887" y="107" type="line"/>
      <point x="951" y="36"/>
      <point x="1019" y="-12"/>
    </contour>
    <component base="hattelu" xOffset="587"/>
  </outline>
</glyph>
<glyph name="rratelu" format="2">
  <advance width="999"/>
  <unicode hex="0C31"/>
  <outline>
    <contour>
      <point x="701" y="-12" type="curve" smooth="yes"/>
      <point x="883" y="-12"/>
      <point x="965" y="97"/>
      <point x="965" y="257" type="curve" smooth="yes"/>
      <point x="965" y="397"/>
      <point x="877" y="508"/>
      <point x="704" y="508" type="curve" smooth="yes"/>
      <point x="588" y="508"/>
      <point x="524" y="456"/>
      <point x="524" y="376" type="curve" smooth="yes"/>
      <point x="524" y="349"/>
      <point x="537" y="321"/>
      <point x="556" y="302" type="curve"/>
      <point x="551" y="327" type="line"/>
      <point x="412" y="327" type="line"/>
      <point x="412" y="205" type="line"/>
      <point x="725" y="205" type="line"/>
      <point x="725" y="313" type="line"/>
      <point x="690" y="314"/>
      <point x="672" y="327"/>
      <point x="672" y="345" type="curve" smooth="yes"/>
      <point x="672" y="359"/>
      <point x="681" y="373"/>
      <point x="708" y="373" type="curve" smooth="yes"/>
      <point x="751" y="373"/>
      <point x="781" y="334"/>
      <point x="781" y="257" type="curve" smooth="yes"/>
      <point x="781" y="179"/>
      <point x="750" y="135"/>
      <point x="680" y="135" type="curve" smooth="yes"/>
      <point x="644" y="135"/>
      <point x="606" y="144"/>
      <point x="585" y="187" type="curve"/>
      <point x="410" y="187" type="line"/>
      <point x="392" y="152"/>
      <point x="357" y="135"/>
      <point x="307" y="135" type="curve" smooth="yes"/>
      <point x="229" y="135"/>
      <point x="202" y="175"/>
      <point x="202" y="253" type="curve" smooth="yes"/>
      <point x="202" y="283" type="line" smooth="yes"/>
      <point x="202" y="351"/>
      <point x="227" y="391"/>
      <point x="265" y="391" type="curve" smooth="yes"/>
      <point x="290" y="391"/>
      <point x="301" y="374"/>
      <point x="301" y="355" type="curve" smooth="yes"/>
      <point x="301" y="322"/>
      <point x="278" y="311"/>
      <point x="247" y="311" type="curve" smooth="yes"/>
      <point x="199" y="311"/>
      <point x="162" y="343"/>
      <point x="135" y="380" type="curve"/>
      <point x="112" y="264" type="line"/>
      <point x="147" y="232"/>
      <point x="208" y="199"/>
      <point x="265" y="199" type="curve" smooth="yes"/>
      <point x="383" y="199"/>
      <point x="452" y="244"/>
      <point x="452" y="350" type="curve" smooth="yes"/>
      <point x="452" y="429"/>
      <point x="403" y="508"/>
      <point x="271" y="508" type="curve" smooth="yes"/>
      <point x="126" y="508"/>
      <point x="35" y="411"/>
      <point x="35" y="252" type="curve" smooth="yes"/>
      <point x="35" y="130"/>
      <point x="79" y="-12"/>
      <point x="292" y="-12" type="curve" smooth="yes"/>
      <point x="417" y="-12"/>
      <point x="465" y="30"/>
      <point x="506" y="73" type="curve"/>
      <point x="481" y="81" type="line"/>
      <point x="516" y="42"/>
      <point x="570" y="-12"/>
    </contour>
  </outline>
</glyph>
<glyph name="latelu" format="2">
  <advance width="813"/>
  <unicode hex="0C32"/>
  <outline>
    <contour>
      <point x="410" y="-12" type="curve" smooth="yes"/>
      <point x="670" y="-12"/>
      <point x="784" y="99"/>
      <point x="784" y="248" type="curve" smooth="yes"/>
      <point x="784" y="363"/>
      <point x="720" y="455"/>
      <point x="598" y="508" type="curve"/>
      <point x="499" y="369" type="line"/>
      <point x="569" y="334"/>
      <point x="598" y="304"/>
      <point x="598" y="248" type="curve" smooth="yes"/>
      <point x="598" y="169"/>
      <point x="520" y="137"/>
      <point x="408" y="137" type="curve" smooth="yes"/>
      <point x="224" y="137"/>
      <point x="196" y="220"/>
      <point x="196" y="260" type="curve" smooth="yes"/>
      <point x="196" y="294" type="line" smooth="yes"/>
      <point x="196" y="353"/>
      <point x="223" y="391"/>
      <point x="259" y="391" type="curve" smooth="yes"/>
      <point x="284" y="391"/>
      <point x="295" y="374"/>
      <point x="295" y="355" type="curve" smooth="yes"/>
      <point x="295" y="321"/>
      <point x="272" y="311"/>
      <point x="241" y="311" type="curve" smooth="yes"/>
      <point x="193" y="311"/>
      <point x="156" y="343"/>
      <point x="129" y="380" type="curve"/>
      <point x="103" y="268" type="line"/>
      <point x="136" y="239"/>
      <point x="187" y="199"/>
      <point x="274" y="199" type="curve" smooth="yes"/>
      <point x="393" y="199"/>
      <point x="466" y="249"/>
      <point x="466" y="350" type="curve" smooth="yes"/>
      <point x="466" y="418"/>
      <point x="415" y="508"/>
      <point x="268" y="508" type="curve" smooth="yes"/>
      <point x="123" y="508"/>
      <point x="29" y="410"/>
      <point x="29" y="277" type="curve" smooth="yes"/>
      <point x="29" y="113"/>
      <point x="150" y="-12"/>
    </contour>
  </outline>
</glyph>
<glyph name="llatelu" format="2">
  <advance width="760"/>
  <unicode hex="0C33"/>
  <outline>
    <contour>
      <point x="381" y="-12" type="curve" smooth="yes"/>
      <point x="484" y="-12"/>
      <point x="582" y="13"/>
      <point x="582" y="94" type="curve" smooth="yes"/>
      <point x="582" y="140"/>
      <point x="549" y="164"/>
      <point x="501" y="178" type="curve"/>
      <point x="493" y="195"/>
      <point x="519" y="241"/>
      <point x="502" y="246" type="curve" smooth="yes"/>
      <point x="479" y="252"/>
      <point x="454" y="258"/>
      <point x="340" y="262" type="curve" smooth="yes"/>
      <point x="212" y="266"/>
      <point x="191" y="289"/>
      <point x="191" y="312" type="curve" smooth="yes"/>
      <point x="191" y="326"/>
      <point x="205" y="335"/>
      <point x="225" y="335" type="curve" smooth="yes"/>
      <point x="252" y="335"/>
      <point x="262" y="322"/>
      <point x="262" y="308" type="curve" smooth="yes"/>
      <point x="262" y="270"/>
      <point x="212" y="256"/>
      <point x="135" y="249" type="curve"/>
      <point x="238" y="193" type="line"/>
      <point x="345" y="217"/>
      <point x="417" y="258"/>
      <point x="417" y="334" type="curve" smooth="yes"/>
      <point x="417" y="392"/>
      <point x="369" y="454"/>
      <point x="223" y="454" type="curve" smooth="yes"/>
      <point x="85" y="454"/>
      <point x="24" y="389"/>
      <point x="24" y="311" type="curve" smooth="yes"/>
      <point x="24" y="215"/>
      <point x="104" y="152"/>
      <point x="286" y="134" type="curve"/>
      <point x="296" y="133"/>
      <point x="287" y="154"/>
      <point x="317" y="150" type="curve"/>
      <point x="402" y="150"/>
      <point x="431" y="135"/>
      <point x="431" y="120" type="curve" smooth="yes"/>
      <point x="431" y="107"/>
      <point x="419" y="98"/>
      <point x="385" y="98" type="curve" smooth="yes"/>
      <point x="353" y="98"/>
      <point x="338" y="109"/>
      <point x="338" y="119" type="curve" smooth="yes"/>
      <point x="338" y="134"/>
      <point x="349" y="146"/>
      <point x="442" y="147" type="curve"/>
      <point x="482" y="128" type="line"/>
      <point x="668" y="147"/>
      <point x="736" y="225"/>
      <point x="736" y="324" type="curve" smooth="yes"/>
      <point x="736" y="421"/>
      <point x="671" y="501"/>
      <point x="497" y="506" type="curve"/>
      <point x="466" y="387" type="line"/>
      <point x="550" y="378"/>
      <point x="552" y="349"/>
      <point x="552" y="332" type="curve" smooth="yes"/>
      <point x="552" y="289"/>
      <point x="498" y="254"/>
      <point x="357" y="254" type="curve"/>
      <point x="301" y="186" type="line"/>
      <point x="217" y="166"/>
      <point x="186" y="136"/>
      <point x="186" y="92" type="curve" smooth="yes"/>
      <point x="186" y="10"/>
      <point x="292" y="-12"/>
    </contour>
    <component base="hattelu" xOffset="324"/>
  </outline>
</glyph>
<glyph name="lllatelu" format="2">
  <advance width="973"/>
  <unicode hex="0C34"/>
  <outline>
    <contour>
      <point x="702" y="-12" type="curve" smooth="yes"/>
      <point x="863" y="-12"/>
      <point x="939" y="90"/>
      <point x="939" y="237" type="curve" smooth="yes"/>
      <point x="939" y="391"/>
      <point x="845" y="508"/>
      <point x="677" y="508" type="curve" smooth="yes"/>
      <point x="553" y="508"/>
      <point x="499" y="429"/>
      <point x="499" y="353" type="curve" smooth="yes"/>
      <point x="499" y="244"/>
      <point x="566" y="199"/>
      <point x="679" y="199" type="curve" smooth="yes"/>
      <point x="764" y="199"/>
      <point x="820" y="241"/>
      <point x="850" y="266" type="curve"/>
      <point x="817" y="380" type="line"/>
      <point x="790" y="343"/>
      <point x="753" y="311"/>
      <point x="707" y="311" type="curve" smooth="yes"/>
      <point x="673" y="311"/>
      <point x="651" y="322"/>
      <point x="651" y="355" type="curve" smooth="yes"/>
      <point x="651" y="374"/>
      <point x="662" y="391"/>
      <point x="689" y="391" type="curve" smooth="yes"/>
      <point x="722" y="391"/>
      <point x="765" y="367"/>
      <point x="765" y="244" type="curve" smooth="yes"/>
      <point x="765" y="229" type="line" smooth="yes"/>
      <point x="765" y="163"/>
      <point x="732" y="135"/>
      <point x="671" y="135" type="curve" smooth="yes"/>
      <point x="602" y="135"/>
      <point x="578" y="179"/>
      <point x="569" y="208" type="curve"/>
      <point x="404" y="208" type="line"/>
      <point x="395" y="179"/>
      <point x="371" y="135"/>
      <point x="302" y="135" type="curve" smooth="yes"/>
      <point x="241" y="135"/>
      <point x="208" y="163"/>
      <point x="208" y="229" type="curve" smooth="yes"/>
      <point x="208" y="244" type="line" smooth="yes"/>
      <point x="208" y="367"/>
      <point x="251" y="391"/>
      <point x="284" y="391" type="curve" smooth="yes"/>
      <point x="311" y="391"/>
      <point x="322" y="374"/>
      <point x="322" y="355" type="curve" smooth="yes"/>
      <point x="322" y="322"/>
      <point x="300" y="311"/>
      <point x="266" y="311" type="curve" smooth="yes"/>
      <point x="220" y="311"/>
      <point x="183" y="343"/>
      <point x="156" y="380" type="curve"/>
      <point x="123" y="266" type="line"/>
      <point x="153" y="241"/>
      <point x="209" y="199"/>
      <point x="294" y="199" type="curve" smooth="yes"/>
      <point x="407" y="199"/>
      <point x="474" y="244"/>
      <point x="474" y="353" type="curve" smooth="yes"/>
      <point x="474" y="429"/>
      <point x="421" y="508"/>
      <point x="293" y="508" type="curve" smooth="yes"/>
      <point x="128" y="508"/>
      <point x="34" y="391"/>
      <point x="34" y="237" type="curve" smooth="yes"/>
      <point x="34" y="90"/>
      <point x="110" y="-12"/>
      <point x="271" y="-12" type="curve" smooth="yes"/>
      <point x="385" y="-12"/>
      <point x="447" y="16"/>
      <point x="509" y="95" type="curve"/>
      <point x="464" y="95" type="line"/>
      <point x="526" y="16"/>
      <point x="588" y="-12"/>
    </contour>
  </outline>
</glyph>
<glyph name="avagrahatelu" format="2">
  <advance width="670"/>
  <unicode hex="0C3D"/>
  <outline>
    <contour>
      <point x="243" y="508" type="curve" smooth="yes"/>
      <point x="98" y="508"/>
      <point x="29" y="445"/>
      <point x="29" y="372" type="curve" smooth="yes"/>
      <point x="29" y="337"/>
      <point x="39" y="307"/>
      <point x="53" y="276" type="curve"/>
      <point x="211" y="323" type="line"/>
      <point x="207" y="331"/>
      <point x="202" y="345"/>
      <point x="202" y="359" type="curve" smooth="yes"/>
      <point x="202" y="375"/>
      <point x="210" y="390"/>
      <point x="239" y="390" type="curve" smooth="yes"/>
      <point x="263" y="390"/>
      <point x="272" y="377"/>
      <point x="272" y="362" type="curve" smooth="yes"/>
      <point x="272" y="334"/>
      <point x="252" y="323"/>
      <point x="209" y="306" type="curve" smooth="yes"/>
      <point x="78" y="254"/>
      <point x="37" y="214"/>
      <point x="37" y="137" type="curve" smooth="yes"/>
      <point x="37" y="100"/>
      <point x="49" y="69"/>
      <point x="74" y="46" type="curve" smooth="yes"/>
      <point x="111" y="12"/>
      <point x="160" y="0"/>
      <point x="268" y="0" type="curve" smooth="yes"/>
      <point x="651" y="0" type="line"/>
      <point x="651" y="146" type="line"/>
      <point x="253" y="146" type="line" smooth="yes"/>
      <point x="232" y="146"/>
      <point x="228" y="148"/>
      <point x="225" y="151" type="curve" smooth="yes"/>
      <point x="223" y="153"/>
      <point x="222" y="156"/>
      <point x="222" y="159" type="curve" smooth="yes"/>
      <point x="222" y="171"/>
      <point x="231" y="178"/>
      <point x="277" y="195" type="curve" smooth="yes"/>
      <point x="413" y="245"/>
      <point x="445" y="293"/>
      <point x="445" y="368" type="curve" smooth="yes"/>
      <point x="445" y="440"/>
      <point x="392" y="508"/>
    </contour>
  </outline>
</glyph>
<glyph name="aavowelsigntelu" format="2">
  <advance width="310"/>
  <unicode hex="0C3E"/>
  <outline>
    <contour>
      <point x="125" y="166" type="curve" smooth="yes"/>
      <point x="230" y="166"/>
      <point x="296" y="228"/>
      <point x="296" y="328" type="curve" smooth="yes"/>
      <point x="296" y="391"/>
      <point x="274" y="435"/>
      <point x="235" y="463" type="curve" smooth="yes"/>
      <point x="184" y="500"/>
      <point x="128" y="508"/>
      <point x="11" y="508" type="curve" smooth="yes"/>
      <point x="-542" y="508" type="line"/>
      <point x="-542" y="368" type="line"/>
      <point x="106" y="368" type="line" smooth="yes"/>
      <point x="150" y="368"/>
      <point x="170" y="351"/>
      <point x="170" y="326" type="curve" smooth="yes"/>
      <point x="170" y="297"/>
      <point x="151" y="286"/>
      <point x="125" y="286" type="curve" smooth="yes"/>
      <point x="95" y="286"/>
      <point x="81" y="306"/>
      <point x="81" y="335" type="curve" smooth="yes"/>
      <point x="81" y="368"/>
      <point x="102" y="398"/>
      <point x="134" y="425" type="curve"/>
      <point x="2" y="437" type="line"/>
      <point x="-20" y="408"/>
      <point x="-42" y="363"/>
      <point x="-42" y="313" type="curve" smooth="yes"/>
      <point x="-42" y="241"/>
      <point x="4" y="166"/>
    </contour>
  </outline>
</glyph>
<glyph name="ivowelsigntelu" format="2">
  <unicode hex="0C3F"/>
  <outline>
    <contour>
      <point x="-279" y="417" type="curve" smooth="yes"/>
      <point x="-138" y="417"/>
      <point x="-65" y="482"/>
      <point x="-65" y="592" type="curve" smooth="yes"/>
      <point x="-65" y="701"/>
      <point x="-135" y="779"/>
      <point x="-277" y="779" type="curve" smooth="yes"/>
      <point x="-399" y="779"/>
      <point x="-456" y="724"/>
      <point x="-456" y="656" type="curve" smooth="yes"/>
      <point x="-456" y="593"/>
      <point x="-414" y="546"/>
      <point x="-297" y="546" type="curve" smooth="yes"/>
      <point x="-215" y="546"/>
      <point x="-181" y="571"/>
      <point x="-131" y="616" type="curve"/>
      <point x="-171" y="708" type="line"/>
      <point x="-197" y="666"/>
      <point x="-232" y="636"/>
      <point x="-273" y="636" type="curve" smooth="yes"/>
      <point x="-306" y="636"/>
      <point x="-316" y="645"/>
      <point x="-316" y="659" type="curve" smooth="yes"/>
      <point x="-316" y="676"/>
      <point x="-301" y="682"/>
      <point x="-280" y="682" type="curve" smooth="yes"/>
      <point x="-233" y="682"/>
      <point x="-201" y="653"/>
      <point x="-201" y="601" type="curve" smooth="yes"/>
      <point x="-201" y="592" type="line" smooth="yes"/>
      <point x="-201" y="535"/>
      <point x="-240" y="519"/>
      <point x="-300" y="519" type="curve" smooth="yes"/>
      <point x="-339" y="519"/>
      <point x="-376" y="528"/>
      <point x="-407" y="542" type="curve"/>
      <point x="-442" y="443" type="line"/>
      <point x="-399" y="427"/>
      <point x="-341" y="417"/>
    </contour>
  </outline>
</glyph>
<glyph name="iivowelsigntelu" format="2">
  <unicode hex="0C40"/>
  <outline>
    <contour>
      <point x="-279" y="417" type="curve" smooth="yes"/>
      <point x="-138" y="417"/>
      <point x="-65" y="484"/>
      <point x="-65" y="584" type="curve" smooth="yes"/>
      <point x="-65" y="683"/>
      <point x="-135" y="751"/>
      <point x="-276" y="751" type="curve" smooth="yes"/>
      <point x="-393" y="751"/>
      <point x="-456" y="704"/>
      <point x="-456" y="642" type="curve" smooth="yes"/>
      <point x="-456" y="585"/>
      <point x="-414" y="542"/>
      <point x="-297" y="542" type="curve" smooth="yes"/>
      <point x="-215" y="542"/>
      <point x="-186" y="565"/>
      <point x="-136" y="606" type="curve"/>
      <point x="-180" y="690" type="line"/>
      <point x="-206" y="651"/>
      <point x="-243" y="624"/>
      <point x="-273" y="624" type="curve" smooth="yes"/>
      <point x="-307" y="624"/>
      <point x="-316" y="632"/>
      <point x="-316" y="645" type="curve" smooth="yes"/>
      <point x="-316" y="660"/>
      <point x="-302" y="666"/>
      <point x="-280" y="666" type="curve" smooth="yes"/>
      <point x="-233" y="666"/>
      <point x="-201" y="639"/>
      <point x="-201" y="592" type="curve" smooth="yes"/>
      <point x="-201" y="584" type="line" smooth="yes"/>
      <point x="-201" y="532"/>
      <point x="-240" y="515"/>
      <point x="-300" y="515" type="curve" smooth="yes"/>
      <point x="-339" y="515"/>
      <point x="-376" y="524"/>
      <point x="-407" y="538" type="curve"/>
      <point x="-442" y="443" type="line"/>
      <point x="-399" y="427"/>
      <point x="-341" y="417"/>
    </contour>
    <contour>
      <point x="-251" y="869" type="curve" smooth="yes"/>
      <point x="-370" y="869"/>
      <point x="-428" y="822"/>
      <point x="-428" y="762" type="curve" smooth="yes"/>
      <point x="-428" y="712"/>
      <point x="-389" y="678"/>
      <point x="-353" y="660" type="curve"/>
      <point x="-238" y="711" type="line"/>
      <point x="-271" y="718"/>
      <point x="-288" y="732"/>
      <point x="-288" y="755" type="curve" smooth="yes"/>
      <point x="-288" y="773"/>
      <point x="-272" y="781"/>
      <point x="-247" y="781" type="curve" smooth="yes"/>
      <point x="-215" y="781"/>
      <point x="-200" y="767"/>
      <point x="-192" y="749" type="curve"/>
      <point x="-58" y="773" type="line"/>
      <point x="-100" y="849"/>
      <point x="-158" y="869"/>
    </contour>
  </outline>
</glyph>
<glyph name="uvowelsigntelu" format="2">
  <advance width="360"/>
  <unicode hex="0C41"/>
  <outline>
    <contour>
      <point x="97" y="-12" type="curve" smooth="yes"/>
      <point x="253" y="-12"/>
      <point x="329" y="77"/>
      <point x="329" y="208" type="curve" smooth="yes"/>
      <point x="329" y="344"/>
      <point x="233" y="447"/>
      <point x="110" y="509" type="curve"/>
      <point x="11" y="370" type="line"/>
      <point x="95" y="322"/>
      <point x="144" y="265"/>
      <point x="144" y="200" type="curve" smooth="yes"/>
      <point x="144" y="154"/>
      <point x="124" y="137"/>
      <point x="90" y="137" type="curve" smooth="yes"/>
      <point x="34" y="137"/>
      <point x="-4" y="171"/>
      <point x="-44" y="215" type="curve"/>
      <point x="-143" y="107" type="line"/>
      <point x="-79" y="36"/>
      <point x="-11" y="-12"/>
    </contour>
  </outline>
</glyph>
<glyph name="uuvowelsigntelu" format="2">
  <advance width="732"/>
  <unicode hex="0C42"/>
  <outline>
    <contour>
      <point x="97" y="-12" type="curve" smooth="yes"/>
      <point x="253" y="-12"/>
      <point x="329" y="77"/>
      <point x="329" y="208" type="curve" smooth="yes"/>
      <point x="329" y="323"/>
      <point x="270" y="372"/>
      <point x="187" y="432" type="curve"/>
      <point x="188" y="451" type="line"/>
      <point x="167" y="472"/>
      <point x="136" y="492"/>
      <point x="110" y="508" type="curve"/>
      <point x="11" y="370" type="line"/>
      <point x="95" y="322"/>
      <point x="144" y="265"/>
      <point x="144" y="200" type="curve" smooth="yes"/>
      <point x="144" y="154"/>
      <point x="124" y="137"/>
      <point x="90" y="137" type="curve" smooth="yes"/>
      <point x="34" y="137"/>
      <point x="-4" y="171"/>
      <point x="-44" y="215" type="curve"/>
      <point x="-143" y="107" type="line"/>
      <point x="-79" y="36"/>
      <point x="-11" y="-12"/>
    </contour>
    <contour>
      <point x="547" y="166" type="curve" smooth="yes"/>
      <point x="652" y="166"/>
      <point x="718" y="228"/>
      <point x="718" y="328" type="curve" smooth="yes"/>
      <point x="718" y="391"/>
      <point x="696" y="435"/>
      <point x="657" y="463" type="curve" smooth="yes"/>
      <point x="606" y="500"/>
      <point x="550" y="508"/>
      <point x="433" y="508" type="curve" smooth="yes"/>
      <point x="110" y="508" type="line"/>
      <point x="97" y="368" type="line"/>
      <point x="528" y="368" type="line" smooth="yes"/>
      <point x="572" y="368"/>
      <point x="592" y="351"/>
      <point x="592" y="326" type="curve" smooth="yes"/>
      <point x="592" y="297"/>
      <point x="573" y="286"/>
      <point x="547" y="286" type="curve" smooth="yes"/>
      <point x="517" y="286"/>
      <point x="503" y="306"/>
      <point x="503" y="335" type="curve" smooth="yes"/>
      <point x="503" y="368"/>
      <point x="524" y="398"/>
      <point x="556" y="425" type="curve"/>
      <point x="424" y="437" type="line"/>
      <point x="402" y="408"/>
      <point x="380" y="363"/>
      <point x="380" y="313" type="curve" smooth="yes"/>
      <point x="380" y="241"/>
      <point x="426" y="166"/>
    </contour>
  </outline>
</glyph>
<glyph name="rvocalicvowelsigntelu" format="2">
  <advance width="464"/>
  <unicode hex="0C43"/>
  <outline>
    <contour>
      <point x="116" y="-411" type="curve" smooth="yes"/>
      <point x="307" y="-411"/>
      <point x="456" y="-308"/>
      <point x="456" y="-84" type="curve" smooth="yes"/>
      <point x="456" y="184"/>
      <point x="294" y="382"/>
      <point x="68" y="513" type="curve"/>
      <point x="-27" y="379" type="line"/>
      <point x="161" y="271"/>
      <point x="291" y="99"/>
      <point x="291" y="-96" type="curve" smooth="yes"/>
      <point x="291" y="-248"/>
      <point x="203" y="-290"/>
      <point x="113" y="-290" type="curve" smooth="yes"/>
      <point x="14" y="-290"/>
      <point x="-23" y="-267"/>
      <point x="-23" y="-213" type="curve" smooth="yes"/>
      <point x="-23" y="-193" type="line" smooth="yes"/>
      <point x="-23" y="-137"/>
      <point x="9" y="-112"/>
      <point x="38" y="-112" type="curve" smooth="yes"/>
      <point x="62" y="-112"/>
      <point x="74" y="-127"/>
      <point x="74" y="-143" type="curve" smooth="yes"/>
      <point x="74" y="-169"/>
      <point x="52" y="-180"/>
      <point x="18" y="-180" type="curve" smooth="yes"/>
      <point x="-10" y="-180"/>
      <point x="-28" y="-170"/>
      <point x="-51" y="-148" type="curve"/>
      <point x="-57" y="-239" type="line"/>
      <point x="-34" y="-254"/>
      <point x="7" y="-270"/>
      <point x="54" y="-270" type="curve" smooth="yes"/>
      <point x="138" y="-270"/>
      <point x="211" y="-235"/>
      <point x="211" y="-146" type="curve" smooth="yes"/>
      <point x="211" y="-68"/>
      <point x="157" y="-3"/>
      <point x="43" y="-3" type="curve" smooth="yes"/>
      <point x="-80" y="-3"/>
      <point x="-159" y="-81"/>
      <point x="-159" y="-193" type="curve" smooth="yes"/>
      <point x="-159" y="-341"/>
      <point x="-45" y="-411"/>
    </contour>
  </outline>
</glyph>
<glyph name="rrvocalicvowelsigntelu" format="2">
  <advance width="774"/>
  <unicode hex="0C44"/>
  <outline>
    <contour>
      <point x="116" y="-411" type="curve" smooth="yes"/>
      <point x="307" y="-411"/>
      <point x="456" y="-308"/>
      <point x="456" y="-84" type="curve" smooth="yes"/>
      <point x="456" y="138"/>
      <point x="339" y="312"/>
      <point x="198" y="405" type="curve"/>
      <point x="176" y="445" type="line"/>
      <point x="143" y="469"/>
      <point x="111" y="487"/>
      <point x="75" y="508" type="curve"/>
      <point x="-2" y="365" type="line"/>
      <point x="158" y="268"/>
      <point x="291" y="99"/>
      <point x="291" y="-96" type="curve" smooth="yes"/>
      <point x="291" y="-250"/>
      <point x="203" y="-290"/>
      <point x="113" y="-290" type="curve" smooth="yes"/>
      <point x="14" y="-290"/>
      <point x="-23" y="-267"/>
      <point x="-23" y="-213" type="curve" smooth="yes"/>
      <point x="-23" y="-193" type="line" smooth="yes"/>
      <point x="-23" y="-137"/>
      <point x="9" y="-112"/>
      <point x="38" y="-112" type="curve" smooth="yes"/>
      <point x="62" y="-112"/>
      <point x="74" y="-127"/>
      <point x="74" y="-143" type="curve" smooth="yes"/>
      <point x="74" y="-169"/>
      <point x="52" y="-180"/>
      <point x="18" y="-180" type="curve" smooth="yes"/>
      <point x="-10" y="-180"/>
      <point x="-28" y="-170"/>
      <point x="-51" y="-148" type="curve"/>
      <point x="-57" y="-239" type="line"/>
      <point x="-34" y="-254"/>
      <point x="7" y="-270"/>
      <point x="54" y="-270" type="curve" smooth="yes"/>
      <point x="138" y="-270"/>
      <point x="211" y="-235"/>
      <point x="211" y="-146" type="curve" smooth="yes"/>
      <point x="211" y="-68"/>
      <point x="157" y="-3"/>
      <point x="43" y="-3" type="curve" smooth="yes"/>
      <point x="-80" y="-3"/>
      <point x="-159" y="-81"/>
      <point x="-159" y="-193" type="curve" smooth="yes"/>
      <point x="-159" y="-341"/>
      <point x="-45" y="-411"/>
    </contour>
    <contour>
      <point x="589" y="166" type="curve" smooth="yes"/>
      <point x="694" y="166"/>
      <point x="760" y="228"/>
      <point x="760" y="328" type="curve" smooth="yes"/>
      <point x="760" y="391"/>
      <point x="738" y="435"/>
      <point x="699" y="463" type="curve" smooth="yes"/>
      <point x="648" y="500"/>
      <point x="592" y="508"/>
      <point x="475" y="508" type="curve" smooth="yes"/>
      <point x="75" y="508" type="line"/>
      <point x="150" y="377" type="line"/>
      <point x="213" y="369"/>
      <point x="294" y="368"/>
      <point x="347" y="368" type="curve" smooth="yes"/>
      <point x="570" y="368" type="line" smooth="yes"/>
      <point x="614" y="368"/>
      <point x="634" y="351"/>
      <point x="634" y="326" type="curve" smooth="yes"/>
      <point x="634" y="297"/>
      <point x="615" y="286"/>
      <point x="589" y="286" type="curve" smooth="yes"/>
      <point x="559" y="286"/>
      <point x="545" y="306"/>
      <point x="545" y="335" type="curve" smooth="yes"/>
      <point x="545" y="368"/>
      <point x="566" y="398"/>
      <point x="598" y="425" type="curve"/>
      <point x="466" y="437" type="line"/>
      <point x="444" y="408"/>
      <point x="422" y="363"/>
      <point x="422" y="313" type="curve" smooth="yes"/>
      <point x="422" y="241"/>
      <point x="468" y="166"/>
    </contour>
  </outline>
</glyph>
<glyph name="evowelsigntelu" format="2">
  <unicode hex="0C46"/>
  <outline>
    <contour>
      <point x="13" y="550" type="curve" smooth="yes"/>
      <point x="13" y="607"/>
      <point x="-7" y="646"/>
      <point x="-40" y="673" type="curve" smooth="yes"/>
      <point x="-83" y="708"/>
      <point x="-133" y="721"/>
      <point x="-229" y="721" type="curve" smooth="yes"/>
      <point x="-586" y="721" type="line"/>
      <point x="-586" y="581" type="line"/>
      <point x="-219" y="581" type="line" smooth="yes"/>
      <point x="-187" y="581"/>
      <point x="-176" y="579"/>
      <point x="-166" y="572" type="curve" smooth="yes"/>
      <point x="-158" y="566"/>
      <point x="-154" y="558"/>
      <point x="-154" y="546" type="curve" smooth="yes"/>
      <point x="-154" y="533"/>
      <point x="-158" y="526"/>
      <point x="-164" y="520" type="curve" smooth="yes"/>
      <point x="-175" y="509"/>
      <point x="-193" y="508"/>
      <point x="-218" y="508" type="curve" smooth="yes"/>
      <point x="-265" y="508" type="line"/>
      <point x="-265" y="377" type="line"/>
      <point x="-207" y="377" type="line" smooth="yes"/>
      <point x="-130" y="377"/>
      <point x="-82" y="389"/>
      <point x="-40" y="424" type="curve" smooth="yes"/>
      <point x="-7" y="452"/>
      <point x="13" y="494"/>
    </contour>
  </outline>
</glyph>
<glyph name="eevowelsigntelu" format="2">
  <unicode hex="0C47"/>
  <outline>
    <contour>
      <point x="13" y="550" type="curve" smooth="yes"/>
      <point x="13" y="607"/>
      <point x="-7" y="646"/>
      <point x="-40" y="673" type="curve" smooth="yes"/>
      <point x="-83" y="708"/>
      <point x="-133" y="721"/>
      <point x="-229" y="721" type="curve" smooth="yes"/>
      <point x="-586" y="721" type="line"/>
      <point x="-586" y="581" type="line"/>
      <point x="-219" y="581" type="line" smooth="yes"/>
      <point x="-187" y="581"/>
      <point x="-176" y="579"/>
      <point x="-166" y="572" type="curve" smooth="yes"/>
      <point x="-158" y="566"/>
      <point x="-154" y="558"/>
      <point x="-154" y="546" type="curve" smooth="yes"/>
      <point x="-154" y="533"/>
      <point x="-158" y="526"/>
      <point x="-164" y="520" type="curve" smooth="yes"/>
      <point x="-175" y="509"/>
      <point x="-193" y="508"/>
      <point x="-218" y="508" type="curve" smooth="yes"/>
      <point x="-265" y="508" type="line"/>
      <point x="-265" y="377" type="line"/>
      <point x="-207" y="377" type="line" smooth="yes"/>
      <point x="-130" y="377"/>
      <point x="-82" y="389"/>
      <point x="-40" y="424" type="curve" smooth="yes"/>
      <point x="-7" y="452"/>
      <point x="13" y="494"/>
    </contour>
    <contour>
      <point x="-118" y="869" type="curve" smooth="yes"/>
      <point x="-251" y="869"/>
      <point x="-297" y="801"/>
      <point x="-297" y="742" type="curve" smooth="yes"/>
      <point x="-297" y="691"/>
      <point x="-269" y="652"/>
      <point x="-241" y="629" type="curve"/>
      <point x="-126" y="674" type="line"/>
      <point x="-144" y="687"/>
      <point x="-161" y="705"/>
      <point x="-161" y="727" type="curve" smooth="yes"/>
      <point x="-161" y="745"/>
      <point x="-148" y="757"/>
      <point x="-122" y="757" type="curve" smooth="yes"/>
      <point x="-99" y="757"/>
      <point x="-82" y="748"/>
      <point x="-72" y="726" type="curve"/>
      <point x="57" y="759" type="line"/>
      <point x="27" y="825"/>
      <point x="-25" y="869"/>
    </contour>
  </outline>
</glyph>
<glyph name="oovowelsigntelu" format="2">
  <advance width="374"/>
  <unicode hex="0C4B"/>
  <outline>
    <contour>
      <point x="188" y="383" type="curve" smooth="yes"/>
      <point x="293" y="383"/>
      <point x="359" y="445"/>
      <point x="359" y="548" type="curve" smooth="yes"/>
      <point x="359" y="609"/>
      <point x="336" y="652"/>
      <point x="298" y="681" type="curve" smooth="yes"/>
      <point x="258" y="712"/>
      <point x="204" y="725"/>
      <point x="95" y="725" type="curve" smooth="yes"/>
      <point x="15" y="725" type="line" smooth="yes"/>
      <point x="-92" y="725"/>
      <point x="-133" y="679"/>
      <point x="-159" y="623" type="curve"/>
      <point x="-134" y="623" type="line"/>
      <point x="-159" y="685"/>
      <point x="-209" y="725"/>
      <point x="-306" y="725" type="curve" smooth="yes"/>
      <point x="-313" y="725" type="line" smooth="yes"/>
      <point x="-434" y="725"/>
      <point x="-502" y="654"/>
      <point x="-502" y="555" type="curve" smooth="yes"/>
      <point x="-502" y="441"/>
      <point x="-406" y="377"/>
      <point x="-284" y="377" type="curve" smooth="yes"/>
      <point x="-259" y="377" type="line"/>
      <point x="-259" y="508" type="line"/>
      <point x="-287" y="508" type="line" smooth="yes"/>
      <point x="-324" y="508"/>
      <point x="-341" y="520"/>
      <point x="-341" y="547" type="curve" smooth="yes"/>
      <point x="-341" y="570"/>
      <point x="-323" y="585"/>
      <point x="-297" y="585" type="curve" smooth="yes"/>
      <point x="-291" y="585" type="line" smooth="yes"/>
      <point x="-250" y="585"/>
      <point x="-229" y="565"/>
      <point x="-218" y="527" type="curve"/>
      <point x="-67" y="527" type="line"/>
      <point x="-60" y="571"/>
      <point x="-38" y="585"/>
      <point x="-1" y="585" type="curve" smooth="yes"/>
      <point x="169" y="585" type="line" smooth="yes"/>
      <point x="213" y="585"/>
      <point x="232" y="568"/>
      <point x="232" y="543" type="curve" smooth="yes"/>
      <point x="232" y="514"/>
      <point x="214" y="503"/>
      <point x="188" y="503" type="curve" smooth="yes"/>
      <point x="158" y="503"/>
      <point x="144" y="523"/>
      <point x="144" y="552" type="curve" smooth="yes"/>
      <point x="144" y="585"/>
      <point x="165" y="615"/>
      <point x="197" y="642" type="curve"/>
      <point x="65" y="654" type="line"/>
      <point x="43" y="625"/>
      <point x="21" y="580"/>
      <point x="21" y="530" type="curve" smooth="yes"/>
      <point x="21" y="458"/>
      <point x="67" y="383"/>
    </contour>
    <contour>
      <point x="231" y="869" type="curve" smooth="yes"/>
      <point x="98" y="869"/>
      <point x="52" y="801"/>
      <point x="52" y="742" type="curve" smooth="yes"/>
      <point x="52" y="691"/>
      <point x="80" y="652"/>
      <point x="108" y="629" type="curve"/>
      <point x="223" y="674" type="line"/>
      <point x="205" y="687"/>
      <point x="188" y="705"/>
      <point x="188" y="727" type="curve" smooth="yes"/>
      <point x="188" y="745"/>
      <point x="201" y="757"/>
      <point x="227" y="757" type="curve" smooth="yes"/>
      <point x="250" y="757"/>
      <point x="267" y="748"/>
      <point x="277" y="726" type="curve"/>
      <point x="406" y="759" type="line"/>
      <point x="376" y="825"/>
      <point x="324" y="869"/>
    </contour>
  </outline>
</glyph>
<glyph name="auvowelsigntelu" format="2">
  <advance width="359"/>
  <unicode hex="0C4C"/>
  <outline>
    <contour>
      <point x="172" y="379" type="curve" smooth="yes"/>
      <point x="277" y="379"/>
      <point x="343" y="441"/>
      <point x="343" y="541" type="curve" smooth="yes"/>
      <point x="343" y="604"/>
      <point x="321" y="648"/>
      <point x="282" y="676" type="curve" smooth="yes"/>
      <point x="231" y="713"/>
      <point x="175" y="721"/>
      <point x="58" y="721" type="curve" smooth="yes"/>
      <point x="-520" y="721" type="line"/>
      <point x="-520" y="581" type="line"/>
      <point x="-289" y="581" type="line" smooth="yes"/>
      <point x="-257" y="581"/>
      <point x="-246" y="579"/>
      <point x="-236" y="572" type="curve" smooth="yes"/>
      <point x="-228" y="566"/>
      <point x="-224" y="558"/>
      <point x="-224" y="546" type="curve" smooth="yes"/>
      <point x="-224" y="533"/>
      <point x="-228" y="526"/>
      <point x="-234" y="520" type="curve" smooth="yes"/>
      <point x="-245" y="509"/>
      <point x="-263" y="508"/>
      <point x="-288" y="508" type="curve" smooth="yes"/>
      <point x="-393" y="508" type="line"/>
      <point x="-393" y="377" type="line"/>
      <point x="-283" y="377" type="line" smooth="yes"/>
      <point x="-206" y="377"/>
      <point x="-158" y="389"/>
      <point x="-116" y="424" type="curve" smooth="yes"/>
      <point x="-83" y="452"/>
      <point x="-63" y="494"/>
      <point x="-63" y="542" type="curve" smooth="yes"/>
      <point x="-63" y="558"/>
      <point x="-64" y="568"/>
      <point x="-67" y="581" type="curve"/>
      <point x="153" y="581" type="line" smooth="yes"/>
      <point x="197" y="581"/>
      <point x="217" y="564"/>
      <point x="217" y="539" type="curve" smooth="yes"/>
      <point x="217" y="510"/>
      <point x="198" y="499"/>
      <point x="172" y="499" type="curve" smooth="yes"/>
      <point x="142" y="499"/>
      <point x="128" y="519"/>
      <point x="128" y="548" type="curve" smooth="yes"/>
      <point x="128" y="581"/>
      <point x="149" y="611"/>
      <point x="181" y="638" type="curve"/>
      <point x="49" y="650" type="line"/>
      <point x="27" y="621"/>
      <point x="5" y="576"/>
      <point x="5" y="526" type="curve" smooth="yes"/>
      <point x="5" y="454"/>
      <point x="51" y="379"/>
    </contour>
  </outline>
</glyph>
<glyph name="viramatelu" format="2">
  <unicode hex="0C4D"/>
  <outline>
    <contour>
      <point x="-403" y="525" type="curve" smooth="yes"/>
      <point x="-403" y="419"/>
      <point x="-323" y="381"/>
      <point x="-216" y="381" type="curve" smooth="yes"/>
      <point x="-167" y="381" type="line"/>
      <point x="-167" y="508" type="line"/>
      <point x="-194" y="508" type="line" smooth="yes"/>
      <point x="-216" y="508"/>
      <point x="-225" y="510"/>
      <point x="-232" y="515" type="curve" smooth="yes"/>
      <point x="-238" y="519"/>
      <point x="-241" y="525"/>
      <point x="-241" y="533" type="curve" smooth="yes"/>
      <point x="-241" y="541"/>
      <point x="-238" y="547"/>
      <point x="-233" y="551" type="curve" smooth="yes"/>
      <point x="-226" y="557"/>
      <point x="-217" y="559"/>
      <point x="-197" y="559" type="curve" smooth="yes"/>
      <point x="-48" y="559" type="line"/>
      <point x="-48" y="686" type="line"/>
      <point x="-198" y="686" type="line" smooth="yes"/>
      <point x="-217" y="686"/>
      <point x="-229" y="688"/>
      <point x="-237" y="694" type="curve" smooth="yes"/>
      <point x="-243" y="699"/>
      <point x="-247" y="705"/>
      <point x="-247" y="715" type="curve" smooth="yes"/>
      <point x="-247" y="724"/>
      <point x="-243" y="731"/>
      <point x="-236" y="735" type="curve" smooth="yes"/>
      <point x="-227" y="740"/>
      <point x="-218" y="742"/>
      <point x="-199" y="742" type="curve" smooth="yes"/>
      <point x="119" y="742" type="line"/>
      <point x="119" y="869" type="line"/>
      <point x="-167" y="869" type="line" smooth="yes"/>
      <point x="-272" y="869"/>
      <point x="-331" y="856"/>
      <point x="-370" y="823" type="curve" smooth="yes"/>
      <point x="-396" y="801"/>
      <point x="-411" y="772"/>
      <point x="-411" y="730" type="curve" smooth="yes"/>
      <point x="-411" y="681"/>
      <point x="-388" y="643"/>
      <point x="-340" y="611" type="curve"/>
      <point x="-339" y="632" type="line"/>
      <point x="-384" y="606"/>
      <point x="-403" y="566"/>
    </contour>
  </outline>
</glyph>
<glyph name="lengthmarktelu" format="2">
  <unicode hex="0C55"/>
  <outline>
    <contour>
      <point x="-160" y="693" type="curve" smooth="yes"/>
      <point x="-293" y="693"/>
      <point x="-339" y="625"/>
      <point x="-339" y="566" type="curve" smooth="yes"/>
      <point x="-339" y="515"/>
      <point x="-311" y="476"/>
      <point x="-283" y="453" type="curve"/>
      <point x="-168" y="498" type="line"/>
      <point x="-186" y="511"/>
      <point x="-203" y="529"/>
      <point x="-203" y="551" type="curve" smooth="yes"/>
      <point x="-203" y="569"/>
      <point x="-190" y="581"/>
      <point x="-164" y="581" type="curve" smooth="yes"/>
      <point x="-141" y="581"/>
      <point x="-124" y="572"/>
      <point x="-114" y="550" type="curve"/>
      <point x="15" y="583" type="line"/>
      <point x="-15" y="649"/>
      <point x="-67" y="693"/>
    </contour>
  </outline>
</glyph>
<glyph name="ailengthmarktelu" format="2">
  <unicode hex="0C56"/>
  <outline>
    <contour>
      <point x="-455" y="-42" type="curve" smooth="yes"/>
      <point x="-557" y="-42"/>
      <point x="-620" y="-105"/>
      <point x="-620" y="-198" type="curve" smooth="yes"/>
      <point x="-620" y="-257"/>
      <point x="-591" y="-301"/>
      <point x="-555" y="-327" type="curve" smooth="yes"/>
      <point x="-503" y="-364"/>
      <point x="-438" y="-370"/>
      <point x="-316" y="-370" type="curve" smooth="yes"/>
      <point x="54" y="-370" type="line"/>
      <point x="54" y="-233" type="line"/>
      <point x="-431" y="-233" type="line" smooth="yes"/>
      <point x="-475" y="-233"/>
      <point x="-498" y="-217"/>
      <point x="-498" y="-193" type="curve" smooth="yes"/>
      <point x="-498" y="-165"/>
      <point x="-478" y="-154"/>
      <point x="-456" y="-154" type="curve" smooth="yes"/>
      <point x="-418" y="-154"/>
      <point x="-412" y="-183"/>
      <point x="-412" y="-202" type="curve" smooth="yes"/>
      <point x="-412" y="-234"/>
      <point x="-436" y="-264"/>
      <point x="-465" y="-290" type="curve"/>
      <point x="-336" y="-305" type="line"/>
      <point x="-313" y="-275"/>
      <point x="-290" y="-232"/>
      <point x="-290" y="-183" type="curve" smooth="yes"/>
      <point x="-290" y="-122"/>
      <point x="-322" y="-42"/>
    </contour>
  </outline>
</glyph>
<glyph name="tsatelu" format="2">
  <advance width="897"/>
  <unicode hex="0C58"/>
  <outline>
    <contour>
      <point x="641" y="-12" type="curve" smooth="yes"/>
      <point x="790" y="-12"/>
      <point x="866" y="72"/>
      <point x="866" y="196" type="curve" smooth="yes"/>
      <point x="866" y="346"/>
      <point x="742" y="444"/>
      <point x="579" y="471" type="curve"/>
      <point x="446" y="360" type="line"/>
      <point x="592" y="342"/>
      <point x="681" y="280"/>
      <point x="681" y="191" type="curve" smooth="yes"/>
      <point x="681" y="152"/>
      <point x="659" y="137"/>
      <point x="622" y="137" type="curve" smooth="yes"/>
      <point x="576" y="137"/>
      <point x="551" y="163"/>
      <point x="546" y="213" type="curve"/>
      <point x="381" y="213" type="line"/>
      <point x="372" y="174"/>
      <point x="351" y="137"/>
      <point x="302" y="137" type="curve" smooth="yes"/>
      <point x="268" y="137"/>
      <point x="254" y="154"/>
      <point x="254" y="175" type="curve" smooth="yes"/>
      <point x="254" y="203"/>
      <point x="278" y="223"/>
      <point x="331" y="231" type="curve"/>
      <point x="331" y="364" type="line"/>
      <point x="24" y="364" type="line"/>
      <point x="24" y="218" type="line"/>
      <point x="156" y="218" type="line"/>
      <point x="149" y="257" type="line"/>
      <point x="98" y="231"/>
      <point x="73" y="184"/>
      <point x="73" y="137" type="curve" smooth="yes"/>
      <point x="73" y="38"/>
      <point x="149" y="-12"/>
      <point x="265" y="-12" type="curve" smooth="yes"/>
      <point x="371" y="-12"/>
      <point x="424" y="14"/>
      <point x="486" y="95" type="curve"/>
      <point x="431" y="96" type="line"/>
      <point x="493" y="15"/>
      <point x="543" y="-12"/>
    </contour>
    <contour>
      <point x="506" y="346" type="curve" smooth="yes"/>
      <point x="606" y="346"/>
      <point x="670" y="408"/>
      <point x="707" y="453" type="curve" smooth="yes"/>
      <point x="738" y="490" type="line" smooth="yes"/>
      <point x="781" y="541"/>
      <point x="815" y="556"/>
      <point x="876" y="558" type="curve"/>
      <point x="867" y="698" type="line"/>
      <point x="750" y="697"/>
      <point x="700" y="666"/>
      <point x="628" y="577" type="curve" smooth="yes"/>
      <point x="580" y="518" type="line" smooth="yes"/>
      <point x="549" y="480"/>
      <point x="537" y="472"/>
      <point x="516" y="472" type="curve" smooth="yes"/>
      <point x="491" y="472"/>
      <point x="477" y="504"/>
      <point x="464" y="571" type="curve"/>
      <point x="296" y="528" type="line"/>
      <point x="327" y="398"/>
      <point x="391" y="346"/>
    </contour>
    <contour>
      <point x="535" y="869" type="curve" smooth="yes"/>
      <point x="404" y="869"/>
      <point x="369" y="801"/>
      <point x="369" y="747" type="curve" smooth="yes"/>
      <point x="369" y="704"/>
      <point x="392" y="666"/>
      <point x="415" y="639" type="curve"/>
      <point x="544" y="654" type="line"/>
      <point x="515" y="674"/>
      <point x="491" y="698"/>
      <point x="491" y="723" type="curve" smooth="yes"/>
      <point x="491" y="746"/>
      <point x="502" y="765"/>
      <point x="535" y="765" type="curve" smooth="yes"/>
      <point x="564" y="765"/>
      <point x="577" y="753"/>
      <point x="577" y="737" type="curve" smooth="yes"/>
      <point x="577" y="717"/>
      <point x="562" y="706"/>
      <point x="536" y="706" type="curve" smooth="yes"/>
      <point x="81" y="706" type="line"/>
      <point x="81" y="574" type="line"/>
      <point x="445" y="574" type="line" smooth="yes"/>
      <point x="542" y="574"/>
      <point x="598" y="584"/>
      <point x="638" y="613" type="curve" smooth="yes"/>
      <point x="673" y="638"/>
      <point x="699" y="678"/>
      <point x="699" y="730" type="curve" smooth="yes"/>
      <point x="699" y="815"/>
      <point x="636" y="869"/>
    </contour>
  </outline>
</glyph>
<glyph name="dzatelu" format="2">
  <advance width="857"/>
  <unicode hex="0C59"/>
  <outline>
    <contour>
      <point x="603" y="866" type="curve"/>
      <point x="472" y="866"/>
      <point x="437" y="789"/>
      <point x="437" y="728" type="curve" smooth="yes"/>
      <point x="437" y="679"/>
      <point x="460" y="636"/>
      <point x="483" y="606" type="curve"/>
      <point x="612" y="621" type="line"/>
      <point x="583" y="647"/>
      <point x="559" y="677"/>
      <point x="559" y="709" type="curve" smooth="yes"/>
      <point x="559" y="728"/>
      <point x="565" y="757"/>
      <point x="603" y="757" type="curve" smooth="yes"/>
      <point x="625" y="757"/>
      <point x="645" y="746"/>
      <point x="645" y="718" type="curve" smooth="yes"/>
      <point x="645" y="694"/>
      <point x="622" y="678"/>
      <point x="578" y="678" type="curve" smooth="yes"/>
      <point x="102" y="678" type="line"/>
      <point x="102" y="541" type="line"/>
      <point x="481" y="541" type="line" smooth="yes"/>
      <point x="597" y="541"/>
      <point x="654" y="547"/>
      <point x="706" y="584" type="curve" smooth="yes"/>
      <point x="742" y="610"/>
      <point x="767" y="654"/>
      <point x="767" y="713" type="curve" smooth="yes"/>
      <point x="767" y="807"/>
      <point x="704" y="866"/>
    </contour>
    <component base="jatelu"/>
  </outline>
</glyph>
<glyph name="rrratelu" format="2">
  <advance width="829"/>
  <unicode hex="0C5A"/>
  <outline>
    <contour>
      <point x="595" y="-12" type="curve" smooth="yes"/>
      <point x="728" y="-12"/>
      <point x="798" y="71"/>
      <point x="798" y="205" type="curve" smooth="yes"/>
      <point x="798" y="386"/>
      <point x="652" y="508"/>
      <point x="418" y="508" type="curve" smooth="yes"/>
      <point x="177" y="508"/>
      <point x="31" y="386"/>
      <point x="31" y="205" type="curve" smooth="yes"/>
      <point x="31" y="71"/>
      <point x="101" y="-12"/>
      <point x="234" y="-12" type="curve" smooth="yes"/>
      <point x="335" y="-12"/>
      <point x="378" y="11"/>
      <point x="445" y="94" type="curve"/>
      <point x="382" y="95" type="line"/>
      <point x="445" y="14"/>
      <point x="496" y="-12"/>
    </contour>
    <contour>
      <point x="560" y="137" type="curve" smooth="yes"/>
      <point x="524" y="137"/>
      <point x="503" y="158"/>
      <point x="497" y="201" type="curve"/>
      <point x="332" y="201" type="line"/>
      <point x="324" y="158"/>
      <point x="305" y="137"/>
      <point x="269" y="137" type="curve" smooth="yes"/>
      <point x="232" y="137"/>
      <point x="212" y="160"/>
      <point x="212" y="213" type="curve" smooth="yes"/>
      <point x="212" y="309"/>
      <point x="271" y="368"/>
      <point x="406" y="368" type="curve" smooth="yes"/>
      <point x="427" y="368" type="line" smooth="yes"/>
      <point x="558" y="368"/>
      <point x="617" y="305"/>
      <point x="617" y="213" type="curve" smooth="yes"/>
      <point x="617" y="160"/>
      <point x="596" y="137"/>
    </contour>
    <contour>
      <point x="73" y="218" type="line"/>
      <point x="677" y="218" type="line"/>
      <point x="677" y="331" type="line"/>
      <point x="139" y="331" type="line"/>
    </contour>
  </outline>
</glyph>
<glyph name="llvocalictelu" format="2">
  <advance width="1415"/>
  <unicode hex="0C61"/>
  <outline>
    <contour>
      <point x="629" y="-122" type="curve" smooth="yes"/>
      <point x="840" y="-122"/>
      <point x="1001" y="17"/>
      <point x="1001" y="212" type="curve" smooth="yes"/>
      <point x="1001" y="334"/>
      <point x="952" y="412"/>
      <point x="840" y="483" type="curve"/>
      <point x="726" y="377" type="line"/>
      <point x="779" y="335"/>
      <point x="816" y="282"/>
      <point x="816" y="209" type="curve" smooth="yes"/>
      <point x="816" y="85"/>
      <point x="717" y="27"/>
      <point x="641" y="27" type="curve" smooth="yes"/>
      <point x="599" y="27"/>
      <point x="576" y="45"/>
      <point x="576" y="78" type="curve" smooth="yes"/>
      <point x="576" y="103"/>
      <point x="587" y="122"/>
      <point x="630" y="168" type="curve" smooth="yes"/>
      <point x="688" y="229"/>
      <point x="721" y="274"/>
      <point x="721" y="350" type="curve" smooth="yes"/>
      <point x="721" y="406"/>
      <point x="680" y="508"/>
      <point x="541" y="508" type="curve" smooth="yes"/>
      <point x="463" y="508"/>
      <point x="404" y="478"/>
      <point x="356" y="404" type="curve"/>
      <point x="381" y="406" type="line"/>
      <point x="340" y="468"/>
      <point x="293" y="508"/>
      <point x="207" y="508" type="curve" smooth="yes"/>
      <point x="90" y="508"/>
      <point x="25" y="437"/>
      <point x="25" y="355" type="curve" smooth="yes"/>
      <point x="25" y="308"/>
      <point x="37" y="264"/>
      <point x="52" y="230" type="curve"/>
      <point x="222" y="279" type="line"/>
      <point x="213" y="296"/>
      <point x="210" y="311"/>
      <point x="210" y="325" type="curve" smooth="yes"/>
      <point x="210" y="342"/>
      <point x="218" y="359"/>
      <point x="239" y="359" type="curve" smooth="yes"/>
      <point x="269" y="359"/>
      <point x="286" y="329"/>
      <point x="288" y="281" type="curve"/>
      <point x="452" y="281" type="line"/>
      <point x="461" y="327"/>
      <point x="482" y="360"/>
      <point x="516" y="360" type="curve" smooth="yes"/>
      <point x="532" y="360"/>
      <point x="543" y="353"/>
      <point x="543" y="332" type="curve" smooth="yes"/>
      <point x="543" y="310"/>
      <point x="519" y="284"/>
      <point x="490" y="252" type="curve" smooth="yes"/>
      <point x="423" y="180"/>
      <point x="394" y="137"/>
      <point x="394" y="65" type="curve" smooth="yes"/>
      <point x="394" y="-46"/>
      <point x="476" y="-122"/>
    </contour>
    <contour>
      <point x="1230" y="166" type="curve" smooth="yes"/>
      <point x="1335" y="166"/>
      <point x="1401" y="228"/>
      <point x="1401" y="328" type="curve" smooth="yes"/>
      <point x="1401" y="391"/>
      <point x="1379" y="435"/>
      <point x="1340" y="463" type="curve" smooth="yes"/>
      <point x="1289" y="500"/>
      <point x="1233" y="508"/>
      <point x="1116" y="508" type="curve" smooth="yes"/>
      <point x="834" y="508" type="line"/>
      <point x="726" y="377" type="line"/>
      <point x="891" y="368" type="line"/>
      <point x="1211" y="368" type="line" smooth="yes"/>
      <point x="1255" y="368"/>
      <point x="1275" y="351"/>
      <point x="1275" y="326" type="curve" smooth="yes"/>
      <point x="1275" y="297"/>
      <point x="1256" y="286"/>
      <point x="1230" y="286" type="curve" smooth="yes"/>
      <point x="1200" y="286"/>
      <point x="1186" y="306"/>
      <point x="1186" y="335" type="curve" smooth="yes"/>
      <point x="1186" y="368"/>
      <point x="1207" y="398"/>
      <point x="1239" y="425" type="curve"/>
      <point x="1107" y="437" type="line"/>
      <point x="1085" y="408"/>
      <point x="1063" y="363"/>
      <point x="1063" y="313" type="curve" smooth="yes"/>
      <point x="1063" y="241"/>
      <point x="1109" y="166"/>
    </contour>
  </outline>
</glyph>
<glyph name="lvocalicvowelsigntelu" format="2">
  <unicode hex="0C62"/>
  <outline>
    <contour>
      <point x="-226" y="-474" type="curve" smooth="yes"/>
      <point x="-70" y="-474"/>
      <point x="33" y="-375"/>
      <point x="33" y="-250" type="curve" smooth="yes"/>
      <point x="33" y="-161"/>
      <point x="-5" y="-97"/>
      <point x="-68" y="-50" type="curve"/>
      <point x="-160" y="-140" type="line"/>
      <point x="-131" y="-162"/>
      <point x="-100" y="-203"/>
      <point x="-100" y="-252" type="curve" smooth="yes"/>
      <point x="-100" y="-332"/>
      <point x="-171" y="-368"/>
      <point x="-222" y="-368" type="curve" smooth="yes"/>
      <point x="-248" y="-368"/>
      <point x="-264" y="-359"/>
      <point x="-264" y="-340" type="curve" smooth="yes"/>
      <point x="-264" y="-328"/>
      <point x="-262" y="-318"/>
      <point x="-232" y="-284" type="curve" smooth="yes"/>
      <point x="-180" y="-226"/>
      <point x="-170" y="-200"/>
      <point x="-170" y="-157" type="curve" smooth="yes"/>
      <point x="-170" y="-113"/>
      <point x="-200" y="-50"/>
      <point x="-299" y="-50" type="curve" smooth="yes"/>
      <point x="-364" y="-50"/>
      <point x="-403" y="-75"/>
      <point x="-435" y="-125" type="curve"/>
      <point x="-414" y="-123" type="line"/>
      <point x="-445" y="-76"/>
      <point x="-479" y="-50"/>
      <point x="-542" y="-50" type="curve" smooth="yes"/>
      <point x="-634" y="-50"/>
      <point x="-678" y="-100"/>
      <point x="-678" y="-159" type="curve" smooth="yes"/>
      <point x="-678" y="-193"/>
      <point x="-668" y="-222"/>
      <point x="-660" y="-241" type="curve"/>
      <point x="-535" y="-211" type="line"/>
      <point x="-542" y="-198"/>
      <point x="-546" y="-185"/>
      <point x="-546" y="-174" type="curve" smooth="yes"/>
      <point x="-546" y="-160"/>
      <point x="-539" y="-149"/>
      <point x="-522" y="-149" type="curve" smooth="yes"/>
      <point x="-501" y="-149"/>
      <point x="-486" y="-169"/>
      <point x="-484" y="-206" type="curve"/>
      <point x="-367" y="-206" type="line"/>
      <point x="-358" y="-172"/>
      <point x="-342" y="-149"/>
      <point x="-316" y="-149" type="curve" smooth="yes"/>
      <point x="-303" y="-149"/>
      <point x="-294" y="-155"/>
      <point x="-294" y="-170" type="curve" smooth="yes"/>
      <point x="-294" y="-185"/>
      <point x="-307" y="-201"/>
      <point x="-325" y="-221" type="curve" smooth="yes"/>
      <point x="-373" y="-274"/>
      <point x="-393" y="-309"/>
      <point x="-393" y="-351" type="curve" smooth="yes"/>
      <point x="-393" y="-427"/>
      <point x="-337" y="-474"/>
    </contour>
  </outline>
</glyph>
<glyph name="llvocalicvowelsigntelu" format="2">
  <advance width="402"/>
  <unicode hex="0C63"/>
  <outline>
    <contour>
      <point x="-226" y="-474" type="curve" smooth="yes"/>
      <point x="-70" y="-474"/>
      <point x="33" y="-375"/>
      <point x="33" y="-250" type="curve" smooth="yes"/>
      <point x="33" y="-161"/>
      <point x="-21" y="-97"/>
      <point x="-84" y="-50" type="curve"/>
      <point x="-160" y="-140" type="line"/>
      <point x="-131" y="-162"/>
      <point x="-100" y="-203"/>
      <point x="-100" y="-252" type="curve" smooth="yes"/>
      <point x="-100" y="-332"/>
      <point x="-171" y="-368"/>
      <point x="-222" y="-368" type="curve" smooth="yes"/>
      <point x="-248" y="-368"/>
      <point x="-264" y="-359"/>
      <point x="-264" y="-340" type="curve" smooth="yes"/>
      <point x="-264" y="-328"/>
      <point x="-262" y="-318"/>
      <point x="-232" y="-284" type="curve" smooth="yes"/>
      <point x="-180" y="-226"/>
      <point x="-170" y="-200"/>
      <point x="-170" y="-157" type="curve" smooth="yes"/>
      <point x="-170" y="-113"/>
      <point x="-200" y="-50"/>
      <point x="-299" y="-50" type="curve" smooth="yes"/>
      <point x="-364" y="-50"/>
      <point x="-403" y="-75"/>
      <point x="-435" y="-125" type="curve"/>
      <point x="-414" y="-123" type="line"/>
      <point x="-445" y="-76"/>
      <point x="-479" y="-50"/>
      <point x="-542" y="-50" type="curve" smooth="yes"/>
      <point x="-634" y="-50"/>
      <point x="-678" y="-100"/>
      <point x="-678" y="-159" type="curve" smooth="yes"/>
      <point x="-678" y="-193"/>
      <point x="-668" y="-222"/>
      <point x="-660" y="-241" type="curve"/>
      <point x="-535" y="-211" type="line"/>
      <point x="-542" y="-198"/>
      <point x="-546" y="-185"/>
      <point x="-546" y="-174" type="curve" smooth="yes"/>
      <point x="-546" y="-160"/>
      <point x="-539" y="-149"/>
      <point x="-522" y="-149" type="curve" smooth="yes"/>
      <point x="-501" y="-149"/>
      <point x="-486" y="-169"/>
      <point x="-484" y="-206" type="curve"/>
      <point x="-367" y="-206" type="line"/>
      <point x="-358" y="-172"/>
      <point x="-342" y="-149"/>
      <point x="-316" y="-149" type="curve" smooth="yes"/>
      <point x="-303" y="-149"/>
      <point x="-294" y="-155"/>
      <point x="-294" y="-170" type="curve" smooth="yes"/>
      <point x="-294" y="-185"/>
      <point x="-307" y="-201"/>
      <point x="-325" y="-221" type="curve" smooth="yes"/>
      <point x="-373" y="-274"/>
      <point x="-393" y="-309"/>
      <point x="-393" y="-351" type="curve" smooth="yes"/>
      <point x="-393" y="-427"/>
      <point x="-337" y="-474"/>
    </contour>
    <contour>
      <point x="237" y="-330" type="curve" smooth="yes"/>
      <point x="350" y="-330"/>
      <point x="402" y="-276"/>
      <point x="402" y="-193" type="curve" smooth="yes"/>
      <point x="402" y="-146"/>
      <point x="383" y="-109"/>
      <point x="346" y="-84" type="curve" smooth="yes"/>
      <point x="310" y="-59"/>
      <point x="263" y="-50"/>
      <point x="178" y="-50" type="curve" smooth="yes"/>
      <point x="-84" y="-50" type="line"/>
      <point x="-81" y="-150" type="line"/>
      <point x="220" y="-150" type="line" smooth="yes"/>
      <point x="266" y="-150"/>
      <point x="285" y="-165"/>
      <point x="285" y="-192" type="curve" smooth="yes"/>
      <point x="285" y="-221"/>
      <point x="266" y="-232"/>
      <point x="240" y="-232" type="curve" smooth="yes"/>
      <point x="210" y="-232"/>
      <point x="196" y="-212"/>
      <point x="196" y="-183" type="curve" smooth="yes"/>
      <point x="196" y="-155"/>
      <point x="211" y="-126"/>
      <point x="244" y="-97" type="curve"/>
      <point x="131" y="-76" type="line"/>
      <point x="101" y="-109"/>
      <point x="79" y="-151"/>
      <point x="79" y="-196" type="curve" smooth="yes"/>
      <point x="79" y="-253"/>
      <point x="106" y="-330"/>
    </contour>
  </outline>
</glyph>
<glyph name="zerotelu" format="2">
  <advance width="755"/>
  <unicode hex="0C66"/>
  <outline>
    <contour>
      <point x="38" y="312" type="curve" smooth="yes"/>
      <point x="38" y="121"/>
      <point x="151" y="-12"/>
      <point x="377" y="-12" type="curve" smooth="yes"/>
      <point x="602" y="-12"/>
      <point x="717" y="110"/>
      <point x="717" y="312" type="curve" smooth="yes"/>
      <point x="717" y="503"/>
      <point x="595" y="633"/>
      <point x="377" y="633" type="curve" smooth="yes"/>
      <point x="154" y="633"/>
      <point x="38" y="503"/>
    </contour>
    <contour>
      <point x="227" y="310" type="curve" smooth="yes"/>
      <point x="227" y="418"/>
      <point x="277" y="487"/>
      <point x="377" y="487" type="curve" smooth="yes"/>
      <point x="477" y="487"/>
      <point x="528" y="418"/>
      <point x="528" y="310" type="curve" smooth="yes"/>
      <point x="528" y="203"/>
      <point x="478" y="134"/>
      <point x="377" y="134" type="curve" smooth="yes"/>
      <point x="275" y="134"/>
      <point x="227" y="203"/>
    </contour>
  </outline>
</glyph>
<glyph name="onetelu" format="2">
  <advance width="744"/>
  <unicode hex="0C67"/>
  <outline>
    <contour>
      <point x="372" y="633" type="curve" smooth="yes"/>
      <point x="144" y="633"/>
      <point x="38" y="490"/>
      <point x="38" y="311" type="curve" smooth="yes"/>
      <point x="38" y="188"/>
      <point x="76" y="87"/>
      <point x="125" y="-9" type="curve"/>
      <point x="307" y="58" type="line"/>
      <point x="264" y="126"/>
      <point x="227" y="204"/>
      <point x="227" y="307" type="curve" smooth="yes"/>
      <point x="227" y="414"/>
      <point x="275" y="487"/>
      <point x="372" y="487" type="curve" smooth="yes"/>
      <point x="483" y="487"/>
      <point x="517" y="399"/>
      <point x="517" y="307" type="curve" smooth="yes"/>
      <point x="517" y="207"/>
      <point x="477" y="119"/>
      <point x="436" y="59" type="curve"/>
      <point x="619" y="-9" type="line"/>
      <point x="662" y="74"/>
      <point x="706" y="178"/>
      <point x="706" y="311" type="curve" smooth="yes"/>
      <point x="706" y="510"/>
      <point x="584" y="633"/>
    </contour>
  </outline>
</glyph>
<glyph name="twotelu" format="2">
  <advance width="828"/>
  <unicode hex="0C68"/>
  <outline>
    <contour>
      <point x="463" y="633" type="curve" smooth="yes"/>
      <point x="315" y="633"/>
      <point x="234" y="563"/>
      <point x="234" y="454" type="curve" smooth="yes"/>
      <point x="234" y="359"/>
      <point x="302" y="288"/>
      <point x="414" y="288" type="curve" smooth="yes"/>
      <point x="538" y="288"/>
      <point x="581" y="353"/>
      <point x="581" y="431" type="curve" smooth="yes"/>
      <point x="581" y="451"/>
      <point x="579" y="461"/>
      <point x="571" y="486" type="curve"/>
      <point x="502" y="561" type="line"/>
      <point x="416" y="555" type="line"/>
      <point x="435" y="540"/>
      <point x="469" y="507"/>
      <point x="469" y="465" type="curve" smooth="yes"/>
      <point x="469" y="432"/>
      <point x="451" y="413"/>
      <point x="422" y="413" type="curve" smooth="yes"/>
      <point x="391" y="413"/>
      <point x="374" y="429"/>
      <point x="374" y="456" type="curve" smooth="yes"/>
      <point x="374" y="477"/>
      <point x="389" y="501"/>
      <point x="438" y="501" type="curve" smooth="yes"/>
      <point x="467" y="501"/>
      <point x="489" y="498"/>
      <point x="505" y="490" type="curve"/>
      <point x="567" y="473"/>
      <point x="605" y="420"/>
      <point x="605" y="312" type="curve" smooth="yes"/>
      <point x="605" y="268"/>
      <point x="595" y="235"/>
      <point x="575" y="211" type="curve" smooth="yes"/>
      <point x="534" y="162"/>
      <point x="462" y="149"/>
      <point x="321" y="149" type="curve" smooth="yes"/>
      <point x="17" y="149" type="line"/>
      <point x="17" y="0" type="line"/>
      <point x="347" y="0" type="line" smooth="yes"/>
      <point x="557" y="0"/>
      <point x="654" y="30"/>
      <point x="720" y="101" type="curve" smooth="yes"/>
      <point x="764" y="148"/>
      <point x="790" y="216"/>
      <point x="790" y="301" type="curve" smooth="yes"/>
      <point x="790" y="478"/>
      <point x="681" y="633"/>
    </contour>
  </outline>
</glyph>
<glyph name="threetelu" format="2">
  <advance width="595"/>
  <unicode hex="0C69"/>
  <outline>
    <contour>
      <point x="313" y="-12" type="curve" smooth="yes"/>
      <point x="500" y="-12"/>
      <point x="560" y="67"/>
      <point x="560" y="161" type="curve" smooth="yes"/>
      <point x="560" y="240"/>
      <point x="517" y="293"/>
      <point x="443" y="317" type="curve"/>
      <point x="441" y="304" type="line"/>
      <point x="527" y="328"/>
      <point x="560" y="393"/>
      <point x="560" y="460" type="curve" smooth="yes"/>
      <point x="560" y="554"/>
      <point x="499" y="633"/>
      <point x="312" y="633" type="curve" smooth="yes"/>
      <point x="190" y="633"/>
      <point x="96" y="597"/>
      <point x="10" y="551" type="curve"/>
      <point x="81" y="413" type="line"/>
      <point x="144" y="459"/>
      <point x="213" y="489"/>
      <point x="285" y="489" type="curve" smooth="yes"/>
      <point x="348" y="489"/>
      <point x="369" y="468"/>
      <point x="369" y="437" type="curve" smooth="yes"/>
      <point x="369" y="419"/>
      <point x="362" y="407"/>
      <point x="350" y="399" type="curve" smooth="yes"/>
      <point x="330" y="385"/>
      <point x="298" y="382"/>
      <point x="249" y="382" type="curve" smooth="yes"/>
      <point x="193" y="382" type="line"/>
      <point x="193" y="240" type="line"/>
      <point x="249" y="240" type="line" smooth="yes"/>
      <point x="308" y="240"/>
      <point x="334" y="235"/>
      <point x="352" y="222" type="curve" smooth="yes"/>
      <point x="363" y="214"/>
      <point x="369" y="203"/>
      <point x="369" y="186" type="curve" smooth="yes"/>
      <point x="369" y="152"/>
      <point x="348" y="132"/>
      <point x="285" y="132" type="curve" smooth="yes"/>
      <point x="213" y="132"/>
      <point x="144" y="162"/>
      <point x="81" y="208" type="curve"/>
      <point x="10" y="70" type="line"/>
      <point x="95" y="22"/>
      <point x="187" y="-12"/>
    </contour>
  </outline>
</glyph>
<glyph name="fourtelu" format="2">
  <advance width="768"/>
  <unicode hex="0C6A"/>
  <outline>
    <contour>
      <point x="382" y="-12" type="curve" smooth="yes"/>
      <point x="506" y="-12"/>
      <point x="590" y="24"/>
      <point x="590" y="125" type="curve" smooth="yes"/>
      <point x="590" y="190"/>
      <point x="530" y="231"/>
      <point x="477" y="255" type="curve"/>
      <point x="466" y="295" type="line"/>
      <point x="277" y="297"/>
      <point x="219" y="344"/>
      <point x="219" y="412" type="curve" smooth="yes"/>
      <point x="219" y="450"/>
      <point x="248" y="479"/>
      <point x="291" y="498" type="curve"/>
      <point x="203" y="633" type="line"/>
      <point x="88" y="584"/>
      <point x="30" y="502"/>
      <point x="30" y="414" type="curve" smooth="yes"/>
      <point x="30" y="285"/>
      <point x="122" y="199"/>
      <point x="280" y="181" type="curve"/>
      <point x="307" y="179" type="line"/>
      <point x="389" y="176"/>
      <point x="426" y="156"/>
      <point x="426" y="129" type="curve" smooth="yes"/>
      <point x="426" y="110"/>
      <point x="410" y="100"/>
      <point x="384" y="100" type="curve" smooth="yes"/>
      <point x="358" y="100"/>
      <point x="342" y="110"/>
      <point x="342" y="128" type="curve" smooth="yes"/>
      <point x="342" y="150"/>
      <point x="365" y="172"/>
      <point x="454" y="180" type="curve"/>
      <point x="488" y="181" type="line"/>
      <point x="646" y="199"/>
      <point x="738" y="288"/>
      <point x="738" y="412" type="curve" smooth="yes"/>
      <point x="738" y="502"/>
      <point x="680" y="584"/>
      <point x="565" y="633" type="curve"/>
      <point x="477" y="498" type="line"/>
      <point x="520" y="479"/>
      <point x="549" y="450"/>
      <point x="549" y="411" type="curve" smooth="yes"/>
      <point x="549" y="343"/>
      <point x="491" y="297"/>
      <point x="302" y="295" type="curve"/>
      <point x="297" y="292"/>
      <point x="296" y="257"/>
      <point x="291" y="255" type="curve"/>
      <point x="238" y="231"/>
      <point x="179" y="190"/>
      <point x="179" y="125" type="curve" smooth="yes"/>
      <point x="179" y="32"/>
      <point x="251" y="-12"/>
    </contour>
  </outline>
</glyph>
<glyph name="fivetelu" format="2">
  <advance width="815"/>
  <unicode hex="0C6B"/>
  <outline>
    <contour>
      <point x="267" y="-12" type="curve" smooth="yes"/>
      <point x="446" y="-12"/>
      <point x="559" y="99"/>
      <point x="559" y="310" type="curve" smooth="yes"/>
      <point x="559" y="539"/>
      <point x="428" y="633"/>
      <point x="267" y="633" type="curve" smooth="yes"/>
      <point x="164" y="633"/>
      <point x="89" y="607"/>
      <point x="11" y="563" type="curve"/>
      <point x="80" y="427" type="line"/>
      <point x="126" y="463"/>
      <point x="175" y="487"/>
      <point x="235" y="487" type="curve" smooth="yes"/>
      <point x="334" y="487"/>
      <point x="376" y="417"/>
      <point x="376" y="312" type="curve" smooth="yes"/>
      <point x="376" y="199"/>
      <point x="333" y="134"/>
      <point x="235" y="134" type="curve" smooth="yes"/>
      <point x="175" y="134"/>
      <point x="120" y="162"/>
      <point x="80" y="194" type="curve"/>
      <point x="11" y="58" type="line"/>
      <point x="89" y="14"/>
      <point x="161" y="-12"/>
    </contour>
    <contour>
      <point x="783" y="164" type="curve" smooth="yes"/>
      <point x="783" y="240"/>
      <point x="743" y="292"/>
      <point x="670" y="317" type="curve"/>
      <point x="670" y="304" type="line"/>
      <point x="746" y="330"/>
      <point x="783" y="381"/>
      <point x="783" y="458" type="curve" smooth="yes"/>
      <point x="783" y="523"/>
      <point x="743" y="592"/>
      <point x="697" y="633" type="curve"/>
      <point x="552" y="555" type="line"/>
      <point x="579" y="526"/>
      <point x="599" y="492"/>
      <point x="599" y="456" type="curve" smooth="yes"/>
      <point x="599" y="421"/>
      <point x="578" y="386"/>
      <point x="514" y="386" type="curve"/>
      <point x="514" y="235" type="line"/>
      <point x="578" y="235"/>
      <point x="599" y="200"/>
      <point x="599" y="165" type="curve" smooth="yes"/>
      <point x="599" y="129"/>
      <point x="582" y="98"/>
      <point x="553" y="68" type="curve"/>
      <point x="697" y="-12" type="line"/>
      <point x="741" y="28"/>
      <point x="783" y="98"/>
    </contour>
  </outline>
</glyph>
<glyph name="sixtelu" format="2">
  <advance width="747"/>
  <unicode hex="0C6C"/>
  <outline>
    <contour>
      <point x="35" y="176" type="curve" smooth="yes"/>
      <point x="35" y="123"/>
      <point x="59" y="79"/>
      <point x="95" y="52" type="curve" smooth="yes"/>
      <point x="146" y="13"/>
      <point x="210" y="0"/>
      <point x="344" y="0" type="curve" smooth="yes"/>
      <point x="730" y="0" type="line"/>
      <point x="730" y="149" type="line"/>
      <point x="304" y="149" type="line" smooth="yes"/>
      <point x="269" y="149"/>
      <point x="251" y="151"/>
      <point x="237" y="162" type="curve" smooth="yes"/>
      <point x="229" y="169"/>
      <point x="224" y="178"/>
      <point x="224" y="192" type="curve" smooth="yes"/>
      <point x="224" y="207"/>
      <point x="229" y="217"/>
      <point x="238" y="224" type="curve" smooth="yes"/>
      <point x="251" y="234"/>
      <point x="268" y="236"/>
      <point x="300" y="236" type="curve" smooth="yes"/>
      <point x="512" y="236" type="line"/>
      <point x="512" y="382" type="line"/>
      <point x="310" y="382" type="line" smooth="yes"/>
      <point x="278" y="382"/>
      <point x="262" y="384"/>
      <point x="248" y="393" type="curve" smooth="yes"/>
      <point x="238" y="400"/>
      <point x="232" y="410"/>
      <point x="232" y="426" type="curve" smooth="yes"/>
      <point x="232" y="438"/>
      <point x="236" y="449"/>
      <point x="246" y="458" type="curve" smooth="yes"/>
      <point x="258" y="468"/>
      <point x="277" y="471"/>
      <point x="311" y="471" type="curve" smooth="yes"/>
      <point x="354" y="471" type="line"/>
      <point x="354" y="620" type="line"/>
      <point x="323" y="620" type="line" smooth="yes"/>
      <point x="222" y="620"/>
      <point x="152" y="607"/>
      <point x="104" y="569" type="curve" smooth="yes"/>
      <point x="66" y="539"/>
      <point x="46" y="503"/>
      <point x="46" y="439" type="curve" smooth="yes"/>
      <point x="46" y="373"/>
      <point x="83" y="330"/>
      <point x="135" y="297" type="curve"/>
      <point x="140" y="329" type="line"/>
      <point x="72" y="299"/>
      <point x="35" y="240"/>
    </contour>
  </outline>
</glyph>
<glyph name="seventelu" format="2">
  <advance width="663"/>
  <unicode hex="0C6D"/>
  <outline>
    <contour>
      <point x="325" y="-12" type="curve" smooth="yes"/>
      <point x="559" y="-12"/>
      <point x="635" y="62"/>
      <point x="635" y="167" type="curve" smooth="yes"/>
      <point x="635" y="203"/>
      <point x="622" y="239"/>
      <point x="602" y="267" type="curve"/>
      <point x="433" y="222" type="line"/>
      <point x="438" y="213"/>
      <point x="445" y="199"/>
      <point x="445" y="180" type="curve" smooth="yes"/>
      <point x="445" y="153"/>
      <point x="424" y="131"/>
      <point x="329" y="131" type="curve" smooth="yes"/>
      <point x="246" y="131"/>
      <point x="226" y="148"/>
      <point x="226" y="173" type="curve" smooth="yes"/>
      <point x="226" y="202"/>
      <point x="244" y="217"/>
      <point x="383" y="256" type="curve" smooth="yes"/>
      <point x="573" y="309"/>
      <point x="620" y="356"/>
      <point x="620" y="456" type="curve" smooth="yes"/>
      <point x="620" y="542"/>
      <point x="568" y="633"/>
      <point x="337" y="633" type="curve" smooth="yes"/>
      <point x="124" y="633"/>
      <point x="46" y="554"/>
      <point x="46" y="472" type="curve" smooth="yes"/>
      <point x="46" y="431"/>
      <point x="64" y="389"/>
      <point x="80" y="361" type="curve"/>
      <point x="246" y="420" type="line"/>
      <point x="239" y="433"/>
      <point x="236" y="444"/>
      <point x="236" y="454" type="curve" smooth="yes"/>
      <point x="236" y="478"/>
      <point x="261" y="490"/>
      <point x="340" y="490" type="curve" smooth="yes"/>
      <point x="407" y="490"/>
      <point x="430" y="480"/>
      <point x="430" y="458" type="curve" smooth="yes"/>
      <point x="430" y="435"/>
      <point x="422" y="425"/>
      <point x="289" y="390" type="curve" smooth="yes"/>
      <point x="119" y="345"/>
      <point x="36" y="286"/>
      <point x="36" y="177" type="curve" smooth="yes"/>
      <point x="36" y="66"/>
      <point x="104" y="-12"/>
    </contour>
  </outline>
</glyph>
<glyph name="eighttelu" format="2">
  <advance width="851"/>
  <unicode hex="0C6E"/>
  <outline>
    <contour>
      <point x="370" y="-12" type="curve" smooth="yes"/>
      <point x="614" y="-12"/>
      <point x="701" y="133"/>
      <point x="701" y="269" type="curve" smooth="yes"/>
      <point x="701" y="342"/>
      <point x="681" y="418"/>
      <point x="634" y="471" type="curve"/>
      <point x="834" y="471" type="line"/>
      <point x="834" y="620" type="line"/>
      <point x="480" y="620" type="line"/>
      <point x="423" y="483" type="line"/>
      <point x="488" y="423"/>
      <point x="512" y="364"/>
      <point x="512" y="284" type="curve" smooth="yes"/>
      <point x="512" y="180"/>
      <point x="456" y="134"/>
      <point x="369" y="134" type="curve" smooth="yes"/>
      <point x="255" y="134"/>
      <point x="227" y="219"/>
      <point x="227" y="286" type="curve" smooth="yes"/>
      <point x="227" y="368"/>
      <point x="257" y="423"/>
      <point x="315" y="483" type="curve"/>
      <point x="158" y="573" type="line"/>
      <point x="81" y="491"/>
      <point x="38" y="393"/>
      <point x="38" y="286" type="curve" smooth="yes"/>
      <point x="38" y="119"/>
      <point x="150" y="-12"/>
    </contour>
  </outline>
</glyph>
<glyph name="ninetelu" format="2">
  <advance width="747"/>
  <unicode hex="0C6F"/>
  <outline>
    <contour>
      <point x="46" y="181" type="curve" smooth="yes"/>
      <point x="46" y="117"/>
      <point x="66" y="81"/>
      <point x="104" y="51" type="curve" smooth="yes"/>
      <point x="152" y="13"/>
      <point x="222" y="0"/>
      <point x="323" y="0" type="curve" smooth="yes"/>
      <point x="354" y="0" type="line"/>
      <point x="354" y="149" type="line"/>
      <point x="311" y="149" type="line" smooth="yes"/>
      <point x="277" y="149"/>
      <point x="258" y="152"/>
      <point x="246" y="162" type="curve" smooth="yes"/>
      <point x="236" y="171"/>
      <point x="232" y="182"/>
      <point x="232" y="194" type="curve" smooth="yes"/>
      <point x="232" y="210"/>
      <point x="238" y="220"/>
      <point x="248" y="227" type="curve" smooth="yes"/>
      <point x="262" y="236"/>
      <point x="278" y="238"/>
      <point x="310" y="238" type="curve" smooth="yes"/>
      <point x="512" y="238" type="line"/>
      <point x="512" y="384" type="line"/>
      <point x="300" y="384" type="line" smooth="yes"/>
      <point x="268" y="384"/>
      <point x="251" y="386"/>
      <point x="238" y="396" type="curve" smooth="yes"/>
      <point x="229" y="403"/>
      <point x="224" y="413"/>
      <point x="224" y="428" type="curve" smooth="yes"/>
      <point x="224" y="442"/>
      <point x="229" y="451"/>
      <point x="237" y="458" type="curve" smooth="yes"/>
      <point x="251" y="469"/>
      <point x="269" y="471"/>
      <point x="304" y="471" type="curve" smooth="yes"/>
      <point x="730" y="471" type="line"/>
      <point x="730" y="620" type="line"/>
      <point x="344" y="620" type="line" smooth="yes"/>
      <point x="210" y="620"/>
      <point x="146" y="607"/>
      <point x="95" y="568" type="curve" smooth="yes"/>
      <point x="59" y="541"/>
      <point x="35" y="497"/>
      <point x="35" y="444" type="curve" smooth="yes"/>
      <point x="35" y="380"/>
      <point x="72" y="321"/>
      <point x="140" y="291" type="curve"/>
      <point x="135" y="323" type="line"/>
      <point x="83" y="290"/>
      <point x="46" y="247"/>
    </contour>
  </outline>
</glyph>
<glyph name="uni0C77" format="2">
  <advance width="1176"/>
  <unicode hex="0C77"/>
  <outline>
    <contour>
      <point x="212" y="517" type="curve"/>
      <point x="63" y="525" type="line"/>
      <point x="47" y="450"/>
      <point x="40" y="383"/>
      <point x="40" y="319" type="curve" smooth="yes"/>
      <point x="40" y="-32"/>
      <point x="272" y="-228"/>
      <point x="601" y="-228" type="curve" smooth="yes"/>
      <point x="934" y="-228"/>
      <point x="1136" y="-58"/>
      <point x="1136" y="248" type="curve" smooth="yes"/>
      <point x="1136" y="532"/>
      <point x="941" y="697"/>
      <point x="680" y="697" type="curve" smooth="yes"/>
      <point x="437" y="697"/>
      <point x="267" y="558"/>
      <point x="267" y="334" type="curve" smooth="yes"/>
      <point x="267" y="135"/>
      <point x="405" y="8"/>
      <point x="603" y="8" type="curve" smooth="yes"/>
      <point x="793" y="8"/>
      <point x="914" y="108"/>
      <point x="914" y="268" type="curve" smooth="yes"/>
      <point x="914" y="405"/>
      <point x="812" y="501"/>
      <point x="675" y="501" type="curve" smooth="yes"/>
      <point x="557" y="501"/>
      <point x="470" y="433"/>
      <point x="470" y="334" type="curve" smooth="yes"/>
      <point x="470" y="240"/>
      <point x="537" y="179"/>
      <point x="624" y="179" type="curve" smooth="yes"/>
      <point x="680" y="179"/>
      <point x="705" y="191"/>
      <point x="726" y="205" type="curve"/>
      <point x="681" y="317" type="line"/>
      <point x="667" y="310"/>
      <point x="658" y="307"/>
      <point x="649" y="307" type="curve" smooth="yes"/>
      <point x="633" y="307"/>
      <point x="616" y="312"/>
      <point x="616" y="338" type="curve" smooth="yes"/>
      <point x="616" y="362"/>
      <point x="636" y="373"/>
      <point x="665" y="373" type="curve" smooth="yes"/>
      <point x="726" y="373"/>
      <point x="765" y="338"/>
      <point x="765" y="268" type="curve" smooth="yes"/>
      <point x="765" y="181"/>
      <point x="709" y="137"/>
      <point x="603" y="137" type="curve" smooth="yes"/>
      <point x="488" y="137"/>
      <point x="416" y="208"/>
      <point x="416" y="331" type="curve" smooth="yes"/>
      <point x="416" y="494"/>
      <point x="531" y="566"/>
      <point x="680" y="566" type="curve" smooth="yes"/>
      <point x="851" y="566"/>
      <point x="984" y="460"/>
      <point x="984" y="250" type="curve" smooth="yes"/>
      <point x="984" y="18"/>
      <point x="828" y="-94"/>
      <point x="603" y="-94" type="curve" smooth="yes"/>
      <point x="363" y="-94"/>
      <point x="189" y="45"/>
      <point x="189" y="324" type="curve" smooth="yes"/>
      <point x="189" y="399"/>
      <point x="196" y="455"/>
    </contour>
  </outline>
</glyph>
<glyph name="uni0C78" format="2">
  <advance width="711"/>
  <unicode hex="0C78"/>
  <outline>
    <contour>
      <point x="36" y="366" type="curve" smooth="yes"/>
      <point x="36" y="207"/>
      <point x="157" y="115"/>
      <point x="351" y="115" type="curve" smooth="yes"/>
      <point x="543" y="115"/>
      <point x="666" y="212"/>
      <point x="666" y="368" type="curve" smooth="yes"/>
      <point x="666" y="535"/>
      <point x="540" y="633"/>
      <point x="351" y="633" type="curve" smooth="yes"/>
      <point x="163" y="633"/>
      <point x="36" y="532"/>
    </contour>
    <contour>
      <point x="225" y="373" type="curve" smooth="yes"/>
      <point x="225" y="436"/>
      <point x="266" y="488"/>
      <point x="351" y="488" type="curve" smooth="yes"/>
      <point x="436" y="488"/>
      <point x="477" y="436"/>
      <point x="477" y="372" type="curve" smooth="yes"/>
      <point x="477" y="306"/>
      <point x="434" y="260"/>
      <point x="351" y="260" type="curve" smooth="yes"/>
      <point x="269" y="260"/>
      <point x="225" y="306"/>
    </contour>
    <contour>
      <point x="675" y="93" type="curve" smooth="yes"/>
      <point x="675" y="157"/>
      <point x="641" y="211"/>
      <point x="579" y="262" type="curve"/>
      <point x="423" y="174" type="line"/>
      <point x="466" y="148"/>
      <point x="484" y="126"/>
      <point x="484" y="105" type="curve" smooth="yes"/>
      <point x="484" y="64"/>
      <point x="448" y="42"/>
      <point x="356" y="11" type="curve"/>
      <point x="436" y="-137" type="line"/>
      <point x="596" y="-83"/>
      <point x="675" y="-20"/>
    </contour>
  </outline>
</glyph>
<glyph name="uni0C79" format="2">
  <advance width="329"/>
  <unicode hex="0C79"/>
  <outline>
    <contour>
      <point x="259" y="0" type="line"/>
      <point x="259" y="620" type="line"/>
      <point x="70" y="620" type="line"/>
      <point x="70" y="0" type="line"/>
    </contour>
  </outline>
</glyph>
<glyph name="uni0C7A" format="2">
  <advance width="581"/>
  <unicode hex="0C7A"/>
  <outline>
    <contour>
      <point x="259" y="188" type="curve" smooth="yes"/>
      <point x="340" y="188"/>
      <point x="392" y="226"/>
      <point x="432" y="277" type="curve"/>
      <point x="497" y="373" type="line"/>
      <point x="497" y="620" type="line"/>
      <point x="322" y="620" type="line"/>
      <point x="322" y="408" type="line" smooth="yes"/>
      <point x="322" y="378"/>
      <point x="321" y="357"/>
      <point x="311" y="343" type="curve" smooth="yes"/>
      <point x="306" y="335"/>
      <point x="296" y="330"/>
      <point x="284" y="330" type="curve" smooth="yes"/>
      <point x="272" y="330"/>
      <point x="264" y="333"/>
      <point x="258" y="341" type="curve" smooth="yes"/>
      <point x="248" y="354"/>
      <point x="246" y="375"/>
      <point x="246" y="410" type="curve" smooth="yes"/>
      <point x="246" y="620" type="line"/>
      <point x="57" y="620" type="line"/>
      <point x="57" y="418" type="line" smooth="yes"/>
      <point x="57" y="312"/>
      <point x="81" y="268"/>
      <point x="117" y="234" type="curve" smooth="yes"/>
      <point x="150" y="202"/>
      <point x="202" y="188"/>
    </contour>
    <contour>
      <point x="511" y="0" type="line"/>
      <point x="511" y="620" type="line"/>
      <point x="322" y="620" type="line"/>
      <point x="322" y="0" type="line"/>
    </contour>
  </outline>
</glyph>
<glyph name="uni0C7B" format="2">
  <advance width="816"/>
  <unicode hex="0C7B"/>
  <outline>
    <contour>
      <point x="501" y="188" type="curve" smooth="yes"/>
      <point x="579" y="188"/>
      <point x="636" y="228"/>
      <point x="667" y="277" type="curve"/>
      <point x="732" y="408" type="line"/>
      <point x="732" y="620" type="line"/>
      <point x="557" y="620" type="line"/>
      <point x="557" y="394" type="line" smooth="yes"/>
      <point x="557" y="368"/>
      <point x="555" y="352"/>
      <point x="548" y="341" type="curve" smooth="yes"/>
      <point x="543" y="334"/>
      <point x="536" y="330"/>
      <point x="526" y="330" type="curve" smooth="yes"/>
      <point x="518" y="330"/>
      <point x="510" y="333"/>
      <point x="506" y="339" type="curve" smooth="yes"/>
      <point x="498" y="349"/>
      <point x="496" y="366"/>
      <point x="496" y="401" type="curve" smooth="yes"/>
      <point x="496" y="620" type="line"/>
      <point x="307" y="620" type="line"/>
      <point x="307" y="418" type="line" smooth="yes"/>
      <point x="307" y="312"/>
      <point x="331" y="269"/>
      <point x="365" y="234" type="curve" smooth="yes"/>
      <point x="396" y="202"/>
      <point x="446" y="188"/>
    </contour>
    <contour>
      <point x="746" y="0" type="line"/>
      <point x="746" y="620" type="line"/>
      <point x="557" y="620" type="line"/>
      <point x="557" y="0" type="line"/>
    </contour>
    <contour>
      <point x="251" y="188" type="curve" smooth="yes"/>
      <point x="339" y="188"/>
      <point x="385" y="225"/>
      <point x="417" y="277" type="curve"/>
      <point x="482" y="401" type="line"/>
      <point x="482" y="620" type="line"/>
      <point x="307" y="620" type="line"/>
      <point x="307" y="394" type="line" smooth="yes"/>
      <point x="307" y="368"/>
      <point x="305" y="352"/>
      <point x="298" y="341" type="curve" smooth="yes"/>
      <point x="293" y="334"/>
      <point x="286" y="330"/>
      <point x="276" y="330" type="curve" smooth="yes"/>
      <point x="268" y="330"/>
      <point x="260" y="333"/>
      <point x="256" y="339" type="curve" smooth="yes"/>
      <point x="248" y="349"/>
      <point x="246" y="366"/>
      <point x="246" y="401" type="curve" smooth="yes"/>
      <point x="246" y="620" type="line"/>
      <point x="57" y="620" type="line"/>
      <point x="57" y="418" type="line" smooth="yes"/>
      <point x="57" y="312"/>
      <point x="81" y="269"/>
      <point x="115" y="234" type="curve" smooth="yes"/>
      <point x="146" y="202"/>
      <point x="196" y="188"/>
    </contour>
  </outline>
</glyph>
<glyph name="uni0C7C" format="2">
  <advance width="651"/>
  <unicode hex="0C7C"/>
  <outline>
    <contour>
      <point x="32" y="241" type="line"/>
      <point x="619" y="241" type="line"/>
      <point x="619" y="388" type="line"/>
      <point x="32" y="388" type="line"/>
    </contour>
  </outline>
</glyph>
<glyph name="uni0C7D" format="2">
  <advance width="657"/>
  <unicode hex="0C7D"/>
  <outline>
    <contour>
      <point x="40" y="137" type="curve" smooth="yes"/>
      <point x="40" y="91"/>
      <point x="55" y="59"/>
      <point x="83" y="38" type="curve" smooth="yes"/>
      <point x="121" y="9"/>
      <point x="173" y="0"/>
      <point x="275" y="0" type="curve" smooth="yes"/>
      <point x="640" y="0" type="line"/>
      <point x="640" y="125" type="line"/>
      <point x="271" y="125" type="line" smooth="yes"/>
      <point x="246" y="125"/>
      <point x="234" y="130"/>
      <point x="234" y="144" type="curve" smooth="yes"/>
      <point x="234" y="161"/>
      <point x="240" y="170"/>
      <point x="375" y="196" type="curve" smooth="yes"/>
      <point x="543" y="228"/>
      <point x="608" y="264"/>
      <point x="608" y="368" type="curve" smooth="yes"/>
      <point x="608" y="408"/>
      <point x="591" y="442"/>
      <point x="562" y="463" type="curve" smooth="yes"/>
      <point x="524" y="490"/>
      <point x="477" y="500"/>
      <point x="368" y="500" type="curve" smooth="yes"/>
      <point x="40" y="500" type="line"/>
      <point x="40" y="378" type="line"/>
      <point x="375" y="378" type="line" smooth="yes"/>
      <point x="398" y="378"/>
      <point x="412" y="377"/>
      <point x="412" y="360" type="curve" smooth="yes"/>
      <point x="412" y="345"/>
      <point x="396" y="336"/>
      <point x="289" y="315" type="curve" smooth="yes"/>
      <point x="128" y="283"/>
      <point x="40" y="239"/>
    </contour>
  </outline>
</glyph>
<glyph name="uni0C7E" format="2">
  <advance width="657"/>
  <unicode hex="0C7E"/>
  <outline>
    <contour>
      <point x="40" y="98" type="curve"/>
      <point x="40" y="60"/>
      <point x="61" y="37"/>
      <point x="86" y="23" type="curve" smooth="yes"/>
      <point x="118" y="5"/>
      <point x="165" y="0"/>
      <point x="243" y="0" type="curve" smooth="yes"/>
      <point x="640" y="0" type="line"/>
      <point x="640" y="108" type="line"/>
      <point x="249" y="108" type="line" smooth="yes"/>
      <point x="242" y="108"/>
      <point x="238" y="109"/>
      <point x="238" y="113" type="curve" smooth="yes"/>
      <point x="238" y="118"/>
      <point x="241" y="122"/>
      <point x="352" y="140" type="curve" smooth="yes"/>
      <point x="567" y="174"/>
      <point x="608" y="210"/>
      <point x="608" y="272" type="curve" smooth="yes"/>
      <point x="608" y="305"/>
      <point x="594" y="328"/>
      <point x="572" y="343" type="curve" smooth="yes"/>
      <point x="546" y="360"/>
      <point x="511" y="369"/>
      <point x="419" y="369" type="curve" smooth="yes"/>
      <point x="251" y="369" type="line" smooth="yes"/>
      <point x="244" y="369"/>
      <point x="240" y="370"/>
      <point x="240" y="374" type="curve" smooth="yes"/>
      <point x="240" y="382"/>
      <point x="242" y="383"/>
      <point x="372" y="406" type="curve" smooth="yes"/>
      <point x="552" y="438"/>
      <point x="608" y="463"/>
      <point x="608" y="537" type="curve" smooth="yes"/>
      <point x="608" y="571"/>
      <point x="591" y="596"/>
      <point x="562" y="611" type="curve" smooth="yes"/>
      <point x="526" y="629"/>
      <point x="486" y="633"/>
      <point x="405" y="633" type="curve" smooth="yes"/>
      <point x="40" y="633" type="line"/>
      <point x="40" y="527" type="line"/>
      <point x="399" y="527" type="line" smooth="yes"/>
      <point x="406" y="527"/>
      <point x="410" y="526"/>
      <point x="410" y="522" type="curve" smooth="yes"/>
      <point x="410" y="517"/>
      <point x="407" y="513"/>
      <point x="296" y="495" type="curve" smooth="yes"/>
      <point x="81" y="461"/>
      <point x="40" y="424"/>
      <point x="40" y="363" type="curve" smooth="yes"/>
      <point x="40" y="330"/>
      <point x="54" y="307"/>
      <point x="76" y="292" type="curve" smooth="yes"/>
      <point x="102" y="275"/>
      <point x="140" y="266"/>
      <point x="230" y="266" type="curve" smooth="yes"/>
      <point x="397" y="266" type="line" smooth="yes"/>
      <point x="404" y="266"/>
      <point x="408" y="265"/>
      <point x="408" y="261" type="curve" smooth="yes"/>
      <point x="408" y="253"/>
      <point x="406" y="252"/>
      <point x="276" y="229" type="curve" smooth="yes"/>
      <point x="96" y="197"/>
      <point x="40" y="172"/>
    </contour>
  </outline>
</glyph>
<glyph name="uni0C7F" format="2">
  <advance width="839"/>
  <unicode hex="0C7F"/>
  <outline>
    <contour>
      <point x="381" y="-12" type="curve" smooth="yes"/>
      <point x="638" y="-12"/>
      <point x="761" y="130"/>
      <point x="822" y="280" type="curve"/>
      <point x="631" y="344" type="line"/>
      <point x="581" y="227"/>
      <point x="503" y="137"/>
      <point x="371" y="137" type="curve" smooth="yes"/>
      <point x="263" y="137"/>
      <point x="207" y="183"/>
      <point x="207" y="245" type="curve" smooth="yes"/>
      <point x="207" y="293" type="line" smooth="yes"/>
      <point x="207" y="343"/>
      <point x="233" y="388"/>
      <point x="279" y="388" type="curve" smooth="yes"/>
      <point x="305" y="388"/>
      <point x="315" y="371"/>
      <point x="315" y="353" type="curve" smooth="yes"/>
      <point x="315" y="321"/>
      <point x="292" y="311"/>
      <point x="261" y="311" type="curve" smooth="yes"/>
      <point x="213" y="311"/>
      <point x="175" y="343"/>
      <point x="149" y="380" type="curve"/>
      <point x="123" y="265" type="line"/>
      <point x="158" y="237"/>
      <point x="210" y="196"/>
      <point x="299" y="196" type="curve" smooth="yes"/>
      <point x="415" y="196"/>
      <point x="489" y="244"/>
      <point x="489" y="353" type="curve" smooth="yes"/>
      <point x="489" y="433"/>
      <point x="433" y="508"/>
      <point x="287" y="508" type="curve" smooth="yes"/>
      <point x="143" y="508"/>
      <point x="37" y="419"/>
      <point x="37" y="263" type="curve" smooth="yes"/>
      <point x="37" y="88"/>
      <point x="170" y="-12"/>
    </contour>
  </outline>
</glyph>
<glyph name="uni1CDA" format="2">
  <unicode hex="1CDA"/>
  <outline>
    <contour>
      <point x="-311" y="599" type="line"/>
      <point x="-311" y="809" type="line"/>
      <point x="-411" y="809" type="line"/>
      <point x="-411" y="599" type="line"/>
    </contour>
    <contour>
      <point x="-158" y="599" type="line"/>
      <point x="-158" y="809" type="line"/>
      <point x="-261" y="809" type="line"/>
      <point x="-261" y="599" type="line"/>
    </contour>
  </outline>
</glyph>
<glyph name="uni1CF2" format="2">
  <advance width="544"/>
  <unicode hex="1CF2"/>
  <outline>
    <contour>
      <point x="272" y="243" type="curve" smooth="yes"/>
      <point x="385" y="243"/>
      <point x="473" y="294"/>
      <point x="525" y="424" type="curve"/>
      <point x="378" y="466" type="line"/>
      <point x="355" y="409"/>
      <point x="329" y="377"/>
      <point x="272" y="377" type="curve" smooth="yes"/>
      <point x="215" y="377"/>
      <point x="189" y="407"/>
      <point x="166" y="466" type="curve"/>
      <point x="19" y="424" type="line"/>
      <point x="71" y="294"/>
      <point x="159" y="243"/>
    </contour>
    <contour>
      <point x="272" y="219" type="curve" smooth="yes"/>
      <point x="159" y="219"/>
      <point x="71" y="168"/>
      <point x="19" y="38" type="curve"/>
      <point x="166" y="-4" type="line"/>
      <point x="189" y="53"/>
      <point x="215" y="85"/>
      <point x="272" y="85" type="curve" smooth="yes"/>
      <point x="329" y="85"/>
      <point x="355" y="55"/>
      <point x="378" y="-4" type="curve"/>
      <point x="525" y="38" type="line"/>
      <point x="473" y="168"/>
      <point x="385" y="219"/>
    </contour>
  </outline>
</glyph>
<glyph name="endash.telu" format="2">
  <advance width="500"/>
  <unicode hex="2013"/>
  <outline>
    <contour>
      <point x="39" y="197" type="line"/>
      <point x="461" y="197" type="line"/>
      <point x="461" y="332" type="line"/>
      <point x="39" y="332" type="line"/>
    </contour>
  </outline>
</glyph>
<glyph name="emdash.telu" format="2">
  <advance width="1000"/>
  <unicode hex="2014"/>
  <outline>
    <contour>
      <point x="39" y="197" type="line"/>
      <point x="961" y="197" type="line"/>
      <point x="961" y="332" type="line"/>
      <point x="39" y="332" type="line"/>
    </contour>
  </outline>
</glyph>
<glyph name="quoteleft.telu" format="2">
  <advance width="302"/>
  <unicode hex="2018"/>
  <outline>
    <contour>
      <point x="47" y="521" type="line"/>
      <point x="214" y="521" type="line"/>
      <point x="223" y="592"/>
      <point x="243" y="693"/>
      <point x="262" y="773" type="curve"/>
      <point x="126" y="773" type="line"/>
      <point x="93" y="708"/>
      <point x="58" y="594"/>
      <point x="40" y="531" type="curve"/>
    </contour>
  </outline>
</glyph>
<glyph name="quoteright.telu" format="2">
  <advance width="302"/>
  <unicode hex="2019"/>
  <outline>
    <contour>
      <point x="255" y="773" type="line"/>
      <point x="88" y="773" type="line"/>
      <point x="79" y="702"/>
      <point x="59" y="601"/>
      <point x="40" y="521" type="curve"/>
      <point x="176" y="521" type="line"/>
      <point x="209" y="586"/>
      <point x="244" y="700"/>
      <point x="262" y="763" type="curve"/>
    </contour>
  </outline>
</glyph>
<glyph name="quotedblleft.telu" format="2">
  <advance width="552"/>
  <unicode hex="201C"/>
  <outline>
    <contour>
      <point x="297" y="521" type="line"/>
      <point x="464" y="521" type="line"/>
      <point x="473" y="592"/>
      <point x="493" y="693"/>
      <point x="512" y="773" type="curve"/>
      <point x="376" y="773" type="line"/>
      <point x="343" y="708"/>
      <point x="308" y="594"/>
      <point x="290" y="531" type="curve"/>
    </contour>
    <contour>
      <point x="47" y="521" type="line"/>
      <point x="214" y="521" type="line"/>
      <point x="223" y="592"/>
      <point x="243" y="693"/>
      <point x="262" y="773" type="curve"/>
      <point x="126" y="773" type="line"/>
      <point x="93" y="708"/>
      <point x="58" y="594"/>
      <point x="40" y="531" type="curve"/>
    </contour>
  </outline>
</glyph>
<glyph name="quotedblright.telu" format="2">
  <advance width="552"/>
  <unicode hex="201D"/>
  <outline>
    <contour>
      <point x="505" y="773" type="line"/>
      <point x="338" y="773" type="line"/>
      <point x="329" y="702"/>
      <point x="309" y="601"/>
      <point x="290" y="521" type="curve"/>
      <point x="426" y="521" type="line"/>
      <point x="459" y="586"/>
      <point x="494" y="700"/>
      <point x="512" y="763" type="curve"/>
    </contour>
    <contour>
      <point x="255" y="773" type="line"/>
      <point x="88" y="773" type="line"/>
      <point x="79" y="702"/>
      <point x="59" y="601"/>
      <point x="40" y="521" type="curve"/>
      <point x="176" y="521" type="line"/>
      <point x="209" y="586"/>
      <point x="244" y="700"/>
      <point x="262" y="763" type="curve"/>
    </contour>
  </outline>
</glyph>
